<svg width="390" height="274" viewBox="0 0 390 274" fill="none" xmlns="http://www.w3.org/2000/svg">
<path fill-rule="evenodd" clip-rule="evenodd" d="M186.967 28.8001C345.655 24.6496 360.805 141.321 327.489 142.269C263.107 144.101 258.871 179.469 216.444 218.638C147.918 281.907 67.2786 285.519 72.0897 120.582C74.112 51.359 122.578 30.4837 186.967 28.8001Z" fill="#F5F2FD"/>
<path fill-rule="evenodd" clip-rule="evenodd" d="M297.095 157.703C342.948 147.464 351.771 168.075 342.147 170.239C323.55 174.42 326.084 180.883 313.124 191.221C294.211 206.308 272.391 200.401 267.272 181.488C263.862 168.887 278.489 161.858 297.095 157.703Z" fill="#F5F2FD"/>
<path d="M281.265 203.966C278.236 203.09 275.521 202.237 272.704 201.061C269.037 199.62 265.812 197.214 262.231 195.603C258.821 193.964 255.098 193.306 251.546 192.077C249.6 191.489 247.498 190.418 245.327 189.782C246.101 189.562 246.909 189.326 247.707 189.115C248.204 189.001 248.709 188.86 249.182 188.737C249.888 189.091 250.613 189.409 251.352 189.689C252.981 190.339 254.652 190.945 256.361 191.365C260.295 192.268 264.299 192.966 268.376 193.144C272.673 193.227 276.752 192.003 280.848 191.815C282.207 191.77 283.6 191.937 284.876 191.977C285.095 191.967 285.375 191.777 285.35 191.54C285.166 191.218 284.716 191.119 284.416 190.901C281.511 189.122 278.324 187.847 274.903 187.638C270.613 187.299 266.374 188.211 262.33 187.241C261.26 187.042 260.204 186.772 259.169 186.434C260.678 185.724 262.196 184.988 263.659 184.176C266.126 182.795 268.402 181.032 270.738 179.405C274.134 176.97 277.732 174.805 280.826 171.921C281.282 171.535 282.391 170.428 281.166 170.549C279.584 171.005 278.03 171.613 276.427 171.975C266.935 173.334 258.175 177.84 251.549 184.771C250.613 185.765 249.717 186.802 248.971 187.948C248.918 188.012 248.875 188.085 248.844 188.162C247.303 188.574 245.802 189.029 244.268 189.501C244.212 189.51 244.179 189.528 244.122 189.536C243.551 189.711 242.98 189.886 242.433 190.069C242.84 189.437 243.274 188.727 243.616 188.358C244.682 187.065 245.703 186.444 246.94 185.354C249.948 182.641 252.588 179.285 254.038 175.403C255.38 171.912 256.854 168.898 258.976 165.793C259.988 162.79 248.349 174.293 247.792 174.817C245.156 177.229 243.448 180.535 242.054 183.864C241.395 185.613 240.866 187.608 240.071 189.052C239.724 189.82 239.179 190.462 238.77 191.18C238.768 191.22 238.772 191.26 238.782 191.299C237.566 191.709 236.355 192.179 235.153 192.622C235.121 192.64 235.097 192.631 235.064 192.649C234.508 192.857 233.952 193.066 233.411 193.309C233.437 193.232 233.44 193.147 233.467 193.07C233.575 192.639 233.737 192.224 233.949 191.833C236.406 187.84 239.535 184.31 242.19 180.443C243.593 178.407 244.99 176.312 245.901 173.991C246.566 172.301 246.891 170.121 247.596 168.703C248.469 167.114 249.515 165.642 250.577 164.204C250.723 163.94 251.765 162.868 252.035 162.245C252.171 161.231 250.765 162.264 250.365 162.412C246.728 164.534 243.511 167.462 240.926 170.894C239.206 172.992 237.54 175.167 236.381 177.66C234.256 181.939 233.417 187.236 231.46 191.259C230.876 192.427 230.163 193.526 229.332 194.534C229.157 194.731 229.208 194.892 229.352 194.942C227.805 195.61 226.296 196.32 224.778 197.056C225.165 194.696 226.596 192.269 227.926 189.979C229.494 187.312 230.863 184.519 232.209 181.718C233.101 179.763 233.929 177.757 234.365 175.644C234.932 172.373 235.006 169.132 235.76 166.097C236.01 165.116 236.334 164.155 236.728 163.223C236.879 162.788 237.191 162.352 237.084 161.885C236.978 161.647 236.652 161.735 236.47 161.873C236.02 162.319 235.726 162.934 235.315 163.422C234.021 165.066 232.293 167.419 230.973 169.369C228.262 173.475 225.793 177.893 224.643 182.767C223.79 186.398 223.798 190.412 223.082 193.803C222.846 195.183 222.625 196.597 221.973 197.861C221.955 197.912 221.896 198.006 221.905 197.981C221.852 198.134 221.685 198.306 221.736 198.467C221.742 198.48 221.751 198.491 221.762 198.5C221.773 198.509 221.786 198.515 221.8 198.518C219.772 199.564 217.789 200.711 215.821 201.893C215.847 201.587 215.8 201.255 215.882 200.94C215.933 200.327 216.213 199.364 216.472 198.537C217.163 196.541 218.211 194.754 218.994 192.647C220.688 188.763 220.801 184.475 221.184 180.338C221.557 175.768 221.184 171.254 221.143 166.713C221.161 165.947 221.219 165.183 221.317 164.423L221.344 164.347C221.517 163.579 221.651 162.803 221.746 162.021C221.804 161.698 221.42 161.565 221.196 161.745C220.868 161.918 220.912 162.334 220.829 162.65C220.707 163.238 220.641 163.817 220.575 164.395C220.077 166.687 219.308 169.143 218.561 171.378C217.151 174.987 215.212 178.414 214.297 182.224C213.49 185.412 213.728 188.761 214.214 191.938C214.528 193.594 214.911 194.815 214.794 196.551C214.793 198.184 214.678 199.606 214.296 201.021C214.116 201.618 213.897 202.172 213.669 202.753C213.657 202.788 213.654 202.826 213.66 202.863C213.666 202.9 213.681 202.935 213.703 202.965C213.729 202.988 213.76 203.006 213.793 203.018C213.826 203.029 213.861 203.034 213.895 203.032C212.507 203.867 211.129 204.717 209.761 205.584C210.062 205.104 210.318 204.598 210.526 204.072C211.437 201.98 211.717 199.699 212.011 197.451C212.395 194.632 212.473 191.765 211.926 188.997C211.52 186.679 210.721 184.483 210.192 182.208C209.61 179.539 209.319 176.815 209.321 174.084C209.327 173.935 209.343 173.787 209.367 173.641C209.452 173.24 209.528 172.866 209.58 172.482C208.975 171.901 208.712 172.583 208.604 173.749C208.061 176.484 207.043 179.657 206.77 182.542C206.465 186.764 206.951 191.029 207.854 195.096C208.342 197.414 209.467 199.522 209.505 201.742C209.529 203.068 209.175 204.092 208.754 205.465C208.716 205.652 208.531 205.875 208.679 206.069L208.727 206.086C208.705 206.137 208.695 206.192 208.698 206.248C202.456 210.306 196.481 214.915 191.193 220.335C190.541 221.054 189.856 221.792 189.243 222.554C189.113 222.853 189.473 222.977 189.703 222.856C190.484 222.152 191.102 221.22 191.868 220.482C197.839 214.41 204.611 209.361 211.884 204.886C214.202 206.806 215.943 209.385 218.178 211.391C222.518 215.156 228.33 216.222 233.417 218.527C233.93 218.676 234.747 219.188 235.115 218.513C235.13 218.468 235.131 218.42 235.118 218.374C235.105 218.329 235.079 218.288 235.042 218.258C234.718 218.031 234.366 217.881 234.024 217.705C232.001 216.719 230.503 215.455 228.872 213.802C228.3 213.203 227.719 212.629 227.129 212.082C227.962 212.628 228.836 213.13 229.709 213.633C232.407 215.312 235.761 216.415 238.517 217.226C241.265 218.275 243.801 219.813 246.002 221.765C246.51 222.084 246.977 222.675 247.573 222.738C248.518 222.492 247.706 221.81 247.354 221.43C244.408 218.605 241.864 215.318 238.633 212.853C236.757 211.516 234.983 210.587 233.305 209.147C231.486 207.801 229.938 206.062 228.019 204.853C225.549 203.368 222.64 203.078 220.233 201.958C219.54 201.632 219.026 201.254 218.512 200.875C220.321 199.84 222.113 198.855 223.968 197.921L225.267 199.058C227.63 201.395 230.37 203.26 233.206 204.929C235.413 206.237 237.864 206.999 239.953 208.496C244.523 211.596 248.262 216.787 253.123 219.902C254.352 220.7 255.522 221.592 256.768 222.338C257.278 222.572 257.996 223.136 258.491 222.562C258.689 222.144 258.155 221.901 257.944 221.656C257.237 220.982 256.506 220.299 255.882 219.539C252.679 215.594 249.786 211.297 245.832 208.123C241.646 204.612 237.242 201.34 232.326 199.008C230.509 198.121 228.674 197.057 226.599 196.997C226.361 196.999 226.124 196.984 225.889 196.952C227.636 196.096 229.438 195.315 231.279 194.577C231.844 194.343 232.4 194.134 232.965 193.899C234.009 194.92 234.66 196.377 235.895 197.234C239.998 200.288 244.544 202.606 249.311 204.284C256.802 207.019 264.165 210.513 272.221 211.152C272.883 211.18 273.57 211.447 274.231 211.246C275.162 210.651 273.514 210.367 273.148 210.183C271.789 209.684 270.826 209.437 269.422 208.836C267.878 208.015 266.403 207.075 264.895 206.152C260.951 203.727 257.018 201.191 252.722 199.475C248.23 197.777 243.862 196.81 239.602 194.677C238.326 194.092 237.092 193.465 235.885 192.76C238.052 191.934 240.201 191.159 242.405 190.46C242.478 190.715 242.901 190.89 243.073 191.093C244.61 192.398 246.503 193.139 248.236 194.111C250.951 195.739 253.512 197.657 256.373 199.019C260.835 200.879 265.161 202.433 269.972 203.439C272.991 204.111 276.067 204.775 279.197 204.74C279.715 204.949 282.089 204.767 281.265 203.966ZM216.975 201.977C216.99 202.011 217.014 202.019 217.029 202.053C217.044 202.087 217.463 202.662 217.316 202.468C218.065 203.873 219.096 205.089 220.144 206.255C220.33 206.491 220.526 206.702 220.722 206.913C218.9 205.75 216.9 204.893 214.801 204.377C214.336 204.245 213.967 204.146 213.607 204.021C214.712 203.315 215.831 202.642 216.975 201.977Z" fill="url(#paint0_linear_51_2094)"/>
<path d="M250.596 136.981C247.636 139.142 244.933 141.048 241.909 142.901C238.04 145.352 233.782 147.013 229.851 149.317C226.029 151.466 222.707 154.303 219.085 156.749C217.164 158.126 214.763 159.424 212.635 160.969C213.059 160.225 213.494 159.445 213.942 158.684C214.233 158.218 214.512 157.733 214.778 157.283C215.587 156.845 216.371 156.37 217.142 155.876C218.867 154.791 220.593 153.653 222.207 152.402C225.873 149.494 229.439 146.439 232.67 143.097C235.997 139.529 238.174 135.577 241.144 132.06C242.143 130.9 243.326 129.804 244.326 128.752C244.484 128.564 244.555 128.246 244.357 128.164C243.975 128.179 243.559 128.514 243.167 128.671C239.624 130.336 236.245 132.456 233.489 135.234C229.976 138.685 227.442 142.635 223.641 145.607C222.786 146.346 221.649 147.195 220.633 147.907C221.245 146.334 221.845 144.742 222.346 143.163C223.181 140.495 223.585 137.821 224.137 135.156C224.885 131.252 225.99 127.295 226.173 123.45C226.229 122.899 226.239 121.49 225.4 122.569C224.541 124.093 223.817 125.66 222.872 127.162C216.834 135.475 213.395 144.892 213.595 153.578C213.632 154.793 213.731 155.995 214.025 157.117C214.033 157.187 214.055 157.255 214.089 157.317C213.229 158.787 212.432 160.243 211.621 161.735C211.585 161.786 211.572 161.821 211.536 161.873C211.234 162.428 210.932 162.983 210.654 163.521C210.487 162.905 210.283 162.234 210.266 161.786C210.104 160.331 210.413 159.206 210.532 157.695C210.778 153.995 210.259 150.326 208.443 147.425C206.839 144.786 205.692 142.243 204.97 139.115C203.481 136.964 203.288 151.716 203.258 152.41C203.07 155.667 204.257 158.533 205.701 161.146C206.515 162.458 207.613 163.767 208.095 165.06C208.409 165.684 208.478 166.42 208.707 167.075C208.756 167.095 208.769 167.114 208.806 167.116C208.19 168.314 207.623 169.533 207.044 170.733C207.032 170.768 207.008 170.784 206.995 170.819C206.73 171.376 206.465 171.933 206.236 172.492C206.199 172.436 206.137 172.397 206.099 172.342C205.858 172.063 205.667 171.745 205.535 171.401C204.399 167.609 204.123 163.453 203.232 159.549C202.768 157.489 202.254 155.408 201.2 153.638C200.436 152.347 199.043 151.129 198.513 149.922C197.981 148.501 197.67 146.985 197.396 145.47C197.307 145.234 197.293 143.894 197.029 143.398C196.371 142.845 196.079 144.471 195.886 144.871C194.72 148.842 194.477 152.809 195.094 156.466C195.364 158.819 195.733 161.16 196.728 163.213C198.33 166.852 201.675 169.854 203.213 173.239C203.654 174.259 203.939 175.34 204.059 176.444C204.074 176.677 204.235 176.704 204.381 176.605C203.707 178.192 203.095 179.766 202.495 181.358C201.015 180.01 200.278 177.757 199.566 175.648C198.752 173.176 197.693 170.816 196.609 168.473C195.817 166.877 194.938 165.312 193.68 164.03C191.652 162.135 189.272 160.668 187.564 158.719C187.017 158.085 186.539 157.395 186.138 156.66C185.926 156.345 185.835 155.894 185.402 155.782C185.144 155.768 184.962 156.079 184.927 156.291C184.921 156.862 185.16 157.375 185.215 157.931C185.468 159.73 185.924 162.2 186.388 164.153C187.415 168.207 188.861 172.194 191.652 175.273C193.733 177.563 196.757 179.298 198.762 181.37C199.62 182.166 200.516 182.964 200.971 184.06C200.996 184.097 201.021 184.187 201.009 184.169C201.084 184.28 201.086 184.494 201.247 184.521C201.278 184.521 201.308 184.51 201.332 184.49C200.578 186.645 199.935 188.805 199.329 190.968C199.118 190.814 198.834 190.709 198.659 190.503C198.237 190.195 197.725 189.542 197.3 188.966C196.324 187.521 195.778 185.867 194.788 184.296C193.155 181.191 190.017 179.236 187.199 177.12C184.046 174.825 180.37 173.18 176.924 171.244C176.369 170.902 175.838 170.521 175.335 170.105L175.298 170.05C174.848 169.568 174.366 169.119 173.855 168.704C173.656 168.515 173.264 168.779 173.23 169.045C173.11 169.396 173.457 169.54 173.631 169.745C173.983 170.092 174.357 170.417 174.75 170.716C176.096 172.128 177.357 173.838 178.47 175.434C180.112 178.182 181.216 181.294 183.385 183.714C185.168 185.774 187.867 187.027 190.624 187.998C192.107 188.453 193.317 188.661 194.533 189.512C195.76 190.221 196.741 190.935 197.514 191.869C197.814 192.278 198.09 192.704 198.341 193.146C198.363 193.172 198.392 193.192 198.424 193.204C198.457 193.215 198.492 193.217 198.526 193.209C198.602 193.185 198.67 193.139 198.722 193.077C198.297 194.597 197.889 196.122 197.5 197.652C197.37 197.197 197.184 196.761 196.944 196.354C196.064 194.682 194.561 193.459 193.094 192.237C191.267 190.692 189.172 189.383 186.675 188.641C184.623 187.976 182.366 187.693 180.253 187.151C177.887 186.514 175.612 185.574 173.485 184.357C173.38 184.288 173.28 184.211 173.187 184.126C172.962 183.887 172.726 183.66 172.478 183.445C171.581 183.7 171.894 184.217 172.689 184.813C174.332 186.455 175.944 188.684 177.906 190.165C180.848 192.252 184.423 193.695 188.167 194.701C190.28 195.297 192.719 195.269 194.417 196.2C195.433 196.754 195.933 197.496 196.645 198.445C196.757 198.558 196.784 198.809 197.043 198.769L197.091 198.736C197.114 198.778 197.149 198.811 197.191 198.831C195.501 205.826 194.427 212.836 194.485 219.623C194.53 220.482 194.564 221.376 194.671 222.221C194.797 222.46 195.164 222.212 195.248 221.967C195.312 221.006 195.081 220.083 195.108 219.121C195.078 211.479 196.427 203.609 198.587 195.569C201.791 194.457 205.052 194.116 208.258 193.112C214.385 191.105 219.601 186.693 225.198 183.426C225.699 183.06 226.705 182.597 226.477 181.996C226.446 181.962 226.406 181.94 226.361 181.931C226.317 181.922 226.271 181.928 226.23 181.947C225.813 182.121 225.433 182.35 225.041 182.561C222.762 183.83 220.675 184.538 218.193 185.189C217.308 185.409 216.436 185.648 215.576 185.905C216.619 185.443 217.661 184.929 218.703 184.414C222.013 182.879 225.39 180.545 228.093 178.585C230.924 176.757 233.982 175.308 237.19 174.276C237.816 173.988 238.615 173.853 239.116 173.381C239.648 172.481 238.519 172.866 237.966 172.997C233.605 174.242 229.201 174.95 224.894 176.591C222.464 177.584 220.418 178.669 218.06 179.452C215.667 180.393 213.184 180.937 210.817 182.023C207.826 183.45 205.398 185.764 202.728 187.297C202.046 187.675 201.337 188 200.606 188.271C201.202 186.304 201.823 184.374 202.53 182.413L204.371 181.817C207.922 180.849 211.406 179.36 214.814 177.705C217.474 176.421 219.908 174.697 222.62 173.594C228.422 171.106 235.165 170.221 241.198 167.496C242.732 166.811 244.29 166.217 245.798 165.496C246.362 165.169 247.331 164.811 247.275 164.148C247.111 163.8 246.523 164.143 246.179 164.213C245.135 164.514 244.066 164.831 243.021 165.024C237.622 165.999 232.195 166.562 226.806 168.502C220.986 170.489 215.182 172.763 209.695 175.875C207.649 177.014 205.454 178.091 203.833 179.806C203.652 180.008 203.461 180.2 203.26 180.382C203.944 178.545 204.725 176.695 205.569 174.831C205.822 174.256 206.087 173.699 206.34 173.123C207.9 172.69 209.49 172.776 211.073 172.112C216.484 169.996 221.68 167.189 226.562 163.919C234.309 158.822 242.528 154.162 249.127 147.683C249.651 147.14 250.373 146.68 250.724 146.038C250.984 144.999 249.519 146.258 249.102 146.486C247.695 147.409 246.778 148.109 245.26 149.027C243.47 149.965 241.643 150.794 239.804 151.659C234.985 153.915 230.092 156.113 225.538 158.972C220.85 162.003 216.805 165.247 211.966 167.895C210.557 168.711 209.148 169.473 207.702 170.181C208.727 168.005 209.777 165.866 210.925 163.715C211.172 163.764 211.625 163.485 211.908 163.429C214.056 162.706 216.051 161.44 218.099 160.408C221.385 158.837 224.772 157.521 227.969 155.712C232.756 152.777 237.21 149.822 241.621 146.224C244.419 143.983 247.254 141.691 249.605 139.052C250.158 138.707 251.824 136.637 250.596 136.981ZM200.269 190.038C200.306 190.04 200.33 190.023 200.367 190.025C200.404 190.027 201.155 189.925 200.896 189.965C202.523 189.945 204.219 189.609 205.891 189.236C206.211 189.181 206.518 189.109 206.825 189.036C204.548 190.071 202.398 191.369 200.421 192.902C199.969 193.235 199.614 193.501 199.247 193.749C199.555 192.516 199.9 191.285 200.269 190.038Z" fill="url(#paint1_linear_51_2094)"/>
<path d="M70.0459 205.628C69.5752 203.512 70.4108 201.084 71.9581 199.626L72.4178 199.239C72.0425 198.979 71.6106 198.715 71.3014 198.347C70.7295 197.729 70.4901 196.884 70.4762 196.059C70.4961 195.45 70.7275 194.867 71.1305 194.41C71.4774 194.013 71.9581 193.714 72.3824 193.41C73.0616 192.786 73.947 192.408 74.8094 192.625C75.2394 191.27 76.3896 190.46 78.2982 190.738C79.786 190.952 81.2524 192.074 81.2283 193.663C81.2936 194.55 80.8676 195.536 81.1471 196.243C81.4689 197.123 82.7017 197.656 83.1637 196.588C83.5497 195.74 83.2027 194.829 82.558 194.063C81.2647 192.586 79.4488 191.235 80.0956 189.018C81.1625 185.557 86.938 184.835 88.5166 188.269C88.5878 188.408 88.6418 188.556 88.6775 188.709C88.7082 188.683 88.7082 188.683 88.7646 188.688C88.7564 188.394 88.7914 188.1 88.8685 187.816C89.0706 187.123 89.4064 186.527 89.4601 185.906C89.5396 185.316 89.3481 184.902 88.9874 184.473C88.3076 183.789 87.0893 183.086 86.8791 181.903C86.7796 181.411 86.8898 180.795 87.3092 180.547C87.6978 180.325 88.375 180.384 88.4695 180.932C88.5015 181.219 88.2821 181.456 88.0466 181.549C87.9288 181.596 87.7081 181.52 87.7227 181.351C87.7583 181.269 87.876 181.222 87.9066 181.196L87.9679 181.145C88.1408 180.79 87.8732 180.596 87.541 180.823C87.0408 181.349 87.3167 182.424 87.9711 183.078C88.3319 183.507 89.0104 183.878 89.4177 184.425C89.7221 184.849 89.9603 185.381 89.8857 185.915C89.8224 186.649 89.3235 187.486 89.244 188.076C89.2356 188.237 89.2122 188.397 89.1742 188.553C89.4648 188.441 89.7673 188.363 90.0757 188.319C91.4751 188.241 92.9448 188.994 93.6321 190.247C94.0112 190.882 94.2779 191.579 94.4204 192.305C95.1379 192.225 95.9522 192.011 96.7065 192.161C96.763 192.166 96.8452 192.202 96.9016 192.207C96.8034 192.028 96.7309 191.879 96.6327 191.7C94.6132 187.12 93.5356 182.166 91.4291 177.607C91.2166 177.106 90.9735 176.63 90.7355 176.097C90.6741 176.149 90.5822 176.226 90.5773 176.283C90.077 176.808 89.5926 177.477 88.8865 177.756C88.5246 177.884 88.1359 177.915 87.7583 177.848C87.3807 177.78 87.027 177.616 86.7317 177.371C86.3612 177.055 86.139 176.666 85.8297 176.298C85.4174 175.808 84.8261 175.416 84.2556 175.111C83.4079 174.725 82.4119 174.411 81.9156 173.572C81.5389 173 81.3411 172.329 81.2256 171.693C79.4743 172.224 77.5573 172.371 76.0556 171.331C75.9379 171.378 75.7895 171.45 75.7846 171.507C75.0804 171.96 74.3332 172.342 73.5538 172.649C70.7798 173.83 67.6823 172.51 66.9464 169.519C66.9095 169.288 66.8468 169.027 66.8099 168.796C65.4767 168.766 64.8875 167.692 64.5129 166.438C64.3458 165.741 64.3787 165.034 64.2423 164.311C64.1894 163.937 64.0849 163.502 63.9854 163.01C63.0964 163.757 62.0827 165.289 60.792 164.439C58.7959 162.873 58.6178 159.674 60.0964 157.699C59.7952 157.605 59.4883 157.531 59.1776 157.477C58.9003 157.396 57.8959 157.509 57.3671 157.377C56.1615 157.188 56.3044 155.864 56.7983 155.083C57.6403 153.593 58.9256 152.403 60.4754 151.678C60.5625 151.657 60.6238 151.605 60.7109 151.585C60.6385 151.436 60.5709 151.231 60.5242 151.114C60.4196 150.68 60.4591 150.225 60.6366 149.816C61.6733 147.689 64.7316 148.152 66.8766 148.651C66.7783 148.071 66.8088 147.478 66.9658 146.912C67.1229 146.346 67.4027 145.821 67.7854 145.375C69.0359 144.063 71.0973 142.905 72.8344 143.851C73.556 143.402 74.4627 143.424 75.2642 143.692C75.8899 143.891 76.4785 144.191 77.0062 144.582C77.1142 144.648 77.1914 144.74 77.2995 144.806C76.8635 143.603 76.4841 142.405 76.0175 141.228C75.9001 141.213 75.7931 141.153 75.7194 141.06C75.2799 140.226 74.7562 140.039 73.9956 139.632C72.6289 139.002 71.5409 138.766 69.9904 138.29C68.4656 137.846 66.9764 137.319 65.492 136.736C64.8949 137.395 64.2304 137.849 63.643 138.395C63.1429 138.92 62.9665 139.643 62.6778 140.357C62.2206 141.37 61.5636 142.393 60.5299 142.843C59.7913 143.175 58.9714 143.282 58.1725 143.151C58.1161 143.146 58.0903 143.115 58.0597 143.141C58.0531 143.202 58.0283 143.259 57.9886 143.305C57.5413 144.205 56.9247 145.09 56.0086 145.493C55.2054 145.907 53.8979 145.907 53.232 146.049C52.1302 146.295 51.4158 147 50.2741 147.385C49.2758 147.753 48.0861 147.706 47.1709 147.116C46.333 146.617 45.8873 145.527 46.1959 144.587C46.319 144.234 46.5013 143.903 46.7352 143.611C46.4106 143.369 46.1106 143.095 45.8394 142.794C45.0309 141.957 44.8513 140.748 45.6163 139.791C45.9325 139.42 46.5248 138.818 46.6669 138.489C47.2578 137.574 46.8733 136.432 47.0839 135.313C47.4512 133.696 48.6969 132.44 50.1758 131.772C49.5559 130.724 50.0588 129.517 50.567 128.566C50.8513 127.908 50.8228 127.252 50.5122 126.572C50.1452 125.886 49.8507 125.349 50.3251 124.793C50.1091 124.661 49.9239 124.503 49.6822 124.34C48.9314 123.82 48.4244 122.781 48.7846 121.903C49.0027 121.353 49.4625 120.967 49.8659 120.575C50.335 120.035 50.6727 119.393 50.8525 118.7C51.0289 117.976 51.1279 117.16 51.6992 116.471C53.1434 114.89 56.1813 114.272 57.6711 116.106C58.3619 116.99 58.3221 118.437 59.4052 118.729C59.5202 118.748 59.638 118.739 59.7486 118.702C58.8822 117.547 58.4094 116.113 57.2219 115.385C56.3324 114.825 55.1044 114.236 54.3975 113.208C54.0256 112.579 53.8474 111.683 54.2188 111.004C54.5497 110.464 55.169 110.205 55.7368 109.885L55.8287 109.808C55.4986 109.475 55.1674 109.143 54.8349 108.812L54.8042 108.838C54.5272 109.031 54.1867 109.111 53.8527 109.061C53.5187 109.011 53.2165 108.835 53.0084 108.569C52.7507 108.262 52.6218 108.109 52.3544 107.915C52.2921 107.865 52.2139 107.838 52.1336 107.839C51.7387 107.805 51.4161 107.919 50.9344 107.906C49.4883 107.866 49.1639 106.36 49.7435 105.245C49.947 104.865 50.2535 104.607 50.5858 104.38C50.3539 104.104 50.0913 103.854 49.8595 103.578C49.7981 103.63 49.6803 103.676 49.6191 103.728C48.8931 104.234 48.6618 105.265 48.461 106.271C48.2651 107.22 47.721 108.253 46.7277 108.565C45.3811 109.017 43.9065 108.322 43.061 107.253C42.4989 106.522 42.1724 105.698 41.3553 105.286C41.0879 105.093 40.1997 104.845 39.7678 104.581C39.2742 104.305 38.8985 103.858 38.7113 103.324C38.615 103.056 38.5719 102.773 38.5846 102.489L38.5232 102.54C38.1291 102.988 37.8655 103.535 37.761 104.123C37.6766 104.769 37.9614 105.419 38.2351 105.869C38.7052 106.677 39.6893 107.786 38.9859 108.691C38.6034 109.169 37.9827 109.116 37.4393 109.154C37.4087 109.18 37.4393 109.154 37.4958 109.159C36.8445 109.131 36.2976 109.538 36.2283 110.016C36.1634 110.436 36.7019 110.454 37.0955 110.176L37.2181 110.073C37.3003 110.108 37.0488 110.058 37.0231 110.027C36.8636 109.9 37.0475 109.745 37.2167 109.76C37.4732 109.754 37.8277 109.927 37.6598 110.225C37.4612 110.549 37.0516 110.684 36.7082 110.711C35.6214 110.787 35.5352 109.814 36.2966 109.226C36.8791 108.736 37.8592 108.906 38.2639 108.827C39.0525 108.583 38.8275 107.569 38.425 106.965C37.7439 105.968 36.9695 104.736 37.5025 103.503C37.7157 103.01 37.9645 102.435 38.471 102.166C38.459 102.147 38.4431 102.132 38.4245 102.121C38.4058 102.109 38.3848 102.102 38.363 102.1C37.9876 101.84 37.8281 101.712 37.4428 101.565C36.5952 101.179 35.1163 101.847 33.7719 101.617C32.3919 101.469 31.1199 100.08 31.4979 98.6627C31.7759 97.7488 32.573 97.0788 33.4068 96.6394C32.3628 95.8952 30.9681 95.9167 29.8614 94.9114C29.0786 94.1046 30.4815 93.6575 31.0445 93.3936C31.4896 93.1764 32.4252 92.5468 33.1636 92.5538C33.2506 92.5329 33.3328 92.5684 33.4199 92.5476L33.3941 92.517C33.3363 92.1993 33.3141 91.7995 33.5384 91.5063C34.4713 90.2512 37.755 90.7343 39.226 91.7996L39.2003 91.7689C38.7848 90.9941 38.6609 90.0959 38.8509 89.2375C39.1533 88.4185 39.7127 87.7195 40.4454 87.245C41.1782 86.7705 42.0448 86.5459 42.9158 86.605L42.9722 86.6098C42.6865 86.3833 42.4133 86.1414 42.1538 85.8853C41.7107 85.4894 41.2262 85.1425 40.7086 84.8507C38.9457 83.8739 36.8469 83.4932 35.2519 82.2182C34.8814 81.9019 34.3708 81.2325 34.8356 80.7896C35.2291 80.5109 35.7578 80.6419 36.2093 80.681C37.1329 80.8462 38.2405 80.8566 39.0903 80.5609C40.1095 80.2796 41.0965 79.7113 42.1944 79.8348C42.3098 79.7382 42.4066 79.6214 42.4801 79.49C43.5916 78.1367 45.4525 77.9851 47.1083 77.9007C48.2514 77.8292 49.1835 77.5692 50.0786 77.0778C52.0174 76.0235 53.8246 74.1903 56.1575 74.1648C56.6773 74.1641 57.1894 74.2908 57.649 74.5337C58.1086 74.7766 58.5016 75.1284 58.7939 75.5583C59.5007 76.5859 59.2814 78.1302 58.0224 78.5613C56.5065 78.9985 55.7649 77.0584 54.5124 76.7511C54.3738 76.7107 53.9531 76.6458 53.7482 76.7134C53.4774 76.8095 53.2249 76.9511 53.0015 77.1319C52.6949 77.3896 52.4399 77.7087 52.1125 77.8792C52.1898 77.9712 52.2365 78.0889 52.1041 78.3049C51.6603 78.8349 50.8913 78.8536 50.3235 79.174C49.6123 79.5103 48.7749 80.3189 48.1631 81.1471C47.6176 81.8672 47.1668 83.1361 46.663 84.03C46.251 84.7867 45.6801 85.4453 44.9895 85.9605C44.8603 86.0598 44.7196 86.1431 44.5703 86.2084C44.573 86.834 44.6063 87.4337 44.614 88.0024C44.6446 87.9767 44.701 87.9816 44.7316 87.9558C44.9929 87.8662 45.2421 87.7445 45.4735 87.5936C46.195 87.1445 46.8223 86.4598 47.6624 86.2767C48.1542 86.1772 48.6878 86.2518 49.089 86.5423C49.4644 86.8022 49.7945 87.257 49.8119 87.7133C49.9128 88.5179 49.4236 89.243 48.9959 89.9168C48.7924 90.2971 48.6454 90.6823 48.7081 90.9435C48.7901 91.1498 48.9488 91.3164 49.151 91.4082C49.4847 91.494 49.8636 91.3846 50.4118 91.2899C50.5244 91.2647 50.6401 91.2555 50.7553 91.2628L50.7748 91.0372C50.8209 89.8477 51.6938 88.9565 52.8836 89.0028C55.3649 88.9053 57.1817 92.8707 54.0101 93.392C53.549 93.4658 53.0314 93.5348 52.58 93.4957C52.6268 93.7996 52.6572 94.1058 52.6712 94.413C52.8423 94.5016 52.9958 94.6208 53.1238 94.7648C53.5411 95.1989 53.5744 95.7983 53.5255 96.3628C53.4567 97.173 53.0756 97.9247 52.4628 98.4591C51.7578 99.0518 50.932 99.0656 50.4223 99.7036C50.2029 99.9404 50.1332 100.418 50.191 100.735C50.2954 101.171 50.482 101.642 50.4993 102.098C50.5213 102.392 50.486 102.689 50.3954 102.97L51.1686 103.889L51.2605 103.812C51.8494 103.417 52.4175 102.992 52.9624 102.538C54.0446 101.524 54.7327 100.475 55.3316 99.1337C55.4738 98.8049 55.6159 98.4762 55.7275 98.1732C54.554 95.9684 56.7762 95.2512 56.6537 93.052C56.6321 92.5891 56.577 92.1284 56.4888 91.6735C56.1573 91.2385 55.9559 90.7185 55.9081 90.1737C55.8796 89.5175 56.0461 88.9062 55.8386 88.3486C55.6618 87.7649 55.3108 87.2229 55.3645 86.6022C55.3862 85.6946 56.4468 85.5874 57.1353 85.846C58.465 86.2453 59.546 87.22 60.2738 88.3346C60.7487 89.0863 61.0754 89.9104 61.1407 90.7972C61.1358 90.8536 61.1616 90.8842 61.1309 90.91C61.4561 90.8471 61.7713 90.7405 62.0679 90.5932C62.1243 90.5981 62.6405 90.2164 62.8967 90.2101C63.2874 90.172 63.6795 90.266 64.0105 90.4771C64.8338 91.1452 65.0795 92.2465 65.5092 93.1932C66.2285 94.7337 66.9381 96.3865 66.6997 98.1566C66.685 98.3258 66.6446 98.4645 66.6299 98.6337C67.0759 98.6104 67.5227 98.6587 67.9534 98.7767C68.5595 98.9996 69.1606 99.2791 69.5729 99.7695C69.7442 100.051 69.8401 100.372 69.8514 100.702C69.8627 101.032 69.7889 101.358 69.6373 101.651C69.195 102.494 68.4837 102.83 67.9172 103.464C67.1718 104.195 67.203 105.477 66.5509 106.443C66.0926 107.143 65.526 107.776 64.805 108.225C64.7437 108.276 64.6259 108.323 64.5647 108.375C64.6162 108.436 64.637 108.523 64.6886 108.584C64.8286 108.938 64.9894 109.378 65.1281 109.418C65.6003 109.544 66.3876 108.987 67.1726 109.112C68.4042 109.332 69.3576 110.467 69.4194 111.722C69.4088 112.83 68.6696 113.818 68.2063 114.573C68.0604 114.794 67.9442 115.032 67.8607 115.282C69.5084 115.624 71.0392 116.325 72.3053 117.458C73.093 118.209 73.979 119.137 74.02 120.306C73.9431 121.522 72.6383 122.148 72.0427 123.12C71.7778 123.551 71.6838 124.311 71.8348 124.864C72.0456 125.934 72.4057 126.97 72.9044 127.941C73.458 129.097 74.1809 130.268 74.0943 131.597C74.0597 132.033 73.9359 132.458 73.7306 132.845C73.695 132.927 73.6288 133.035 73.5933 133.117C74.2402 134.509 74.8614 135.87 75.447 137.314C76.4317 139.73 77.2728 142.161 78.1397 144.624C78.2065 144.632 78.2743 144.629 78.3397 144.613C80.1337 144.569 82.519 145.913 81.9997 147.971C81.9055 148.518 81.7057 149.041 81.4116 149.511C81.381 149.537 81.3454 149.619 81.3148 149.645C81.7702 149.961 82.1776 150.341 82.5246 150.773C83.3297 151.98 83.4653 153.697 82.7581 154.971C82.6023 155.214 82.4303 155.446 82.2432 155.666L82.1206 155.769C82.468 156.68 82.8155 157.591 83.1931 158.477C84.7765 158.244 85.2222 159.335 86.1388 160.238C86.5818 160.703 87.0798 160.859 87.4379 160.663C87.9443 160.394 87.998 159.774 87.8017 159.415C87.3379 158.863 86.3013 158.688 85.5359 158.338C84.9041 158.084 84.2918 157.605 84.007 156.955C83.7318 156.195 83.6944 155.369 83.8997 154.586C84.1005 153.581 85.3359 151.13 86.598 151.324C86.7116 150.859 86.9551 150.437 87.3 150.105C88.4133 149.065 90.2369 148.683 91.589 149.482C91.9692 149.685 92.3447 149.945 92.5717 150.277C92.8216 150.707 92.9742 151.186 93.0187 151.68C93.0489 151.763 93.0511 151.853 93.0249 151.937C93.2046 151.929 93.3846 151.935 93.5634 151.955C94.3743 152.11 95.4587 152.715 96.039 152.908C96.732 153.11 97.4917 153.204 98.0778 153.653C99.5133 154.801 99.6085 156.656 98.764 158.203C98.6267 158.476 98.4637 158.717 98.3313 158.933C99.2868 159.385 100.212 159.863 101.168 160.316C103.013 161.328 103.946 162.688 103.179 164.327C104.733 165.428 105.824 167.597 104.816 169.386C103.833 170.892 101.805 171.342 100.738 172.5C100.269 172.999 99.8249 173.53 99.2314 173.819C98.7399 174.019 98.2054 174.091 97.6787 174.026C97.6174 174.077 97.5512 174.185 97.4899 174.237C96.9075 174.727 96.0869 174.684 95.3936 174.482C94.3362 174.22 93.6085 173.105 92.7657 172.663C92.5191 172.556 92.145 172.609 91.9047 172.759C91.4289 173.002 90.9739 173.332 90.4519 173.457C91.1037 174.793 91.7506 176.185 92.3412 177.572C94.4219 182.101 95.4431 187.049 97.524 191.578C98.187 193.113 99.1516 194.447 100.219 195.904C100.284 195.483 100.405 195.067 100.691 194.723C101.262 194.033 101.983 193.584 102.359 192.849C102.899 191.873 102.806 190.642 103.51 189.737C104.724 188.194 107.166 188.548 108.448 189.823C109.163 190.425 109.382 191.183 109.426 191.983C110.786 191.049 112.198 190.176 113.833 190.005C115.211 189.84 116.957 190.361 117.522 191.717C117.737 192.844 116.941 193.827 116.489 194.783C116.153 195.379 115.986 195.99 115.845 196.631L115.902 196.636C117.087 196.739 118.302 196.816 119.502 196.749C120.696 196.739 122.059 196.43 123.169 197.066C123.93 197.473 124.334 198.389 123.952 199.18C123.114 200.984 120.702 201.599 118.851 201.638C116.862 201.636 115.303 201.586 113.734 202.957C113.239 203.426 112.474 204.383 111.826 204.98C111.049 205.737 110.191 206.459 109.183 206.94C109.077 206.97 108.976 207.019 108.887 207.085C110.325 208.858 111.758 210.687 113.074 212.563C113.249 212.834 113.481 213.11 113.626 213.407C113.668 213.581 113.458 213.705 113.284 213.747C112.766 213.816 112.585 213.288 112.358 212.956C111.728 212.02 111.011 211.106 110.321 210.222C108.021 207.237 105.594 204.412 103.325 201.402C101.37 198.703 99.1791 196.098 97.4952 193.223C97.1016 193.502 96.6613 193.663 96.2935 193.972C95.7467 194.379 95.0381 195.341 95.026 196.137C94.867 197.316 95.1853 198.566 95.6762 199.461C96.1721 200.3 96.7584 200.748 97.6146 200.709C97.7839 200.724 98.1775 200.445 98.0533 200.236C97.9245 200.082 97.8423 200.047 97.5859 200.053C97.4425 200.069 97.3185 199.859 97.4669 199.787C97.6152 199.715 97.7539 199.755 97.8973 199.739C98.5389 199.88 98.7979 200.5 98.1431 200.841C97.5754 201.161 96.8259 200.954 96.2809 200.68C95.1288 199.869 94.6303 198.405 94.5476 197.062C94.4738 196.431 94.5694 195.791 94.8246 195.209C95.0798 194.627 95.4854 194.123 95.9997 193.749C96.3627 193.496 96.7207 193.3 97.1094 193.078C96.3551 192.927 95.5359 193.197 94.5926 193.258C94.3928 193.269 94.1977 193.224 93.9979 193.235L94.0494 193.296C94.1524 193.419 94.4777 193.93 94.5355 194.248C95.0145 195.937 93.0891 196.51 91.7767 196.567C90.4031 196.675 89.1395 196.168 88.0186 196.639C87.5908 196.785 87.1949 197.011 86.8524 197.306C87.2585 197.54 87.6953 197.748 88.1014 197.982C89.4066 198.664 90.7022 199.458 91.4411 200.773C92.3346 202.271 92.8038 204.074 92.3446 205.768C92.1034 206.912 91.4318 208.105 90.2545 208.571C89.3224 208.832 88.6956 208.522 88.2671 207.888C88.517 209.927 88.1378 212.339 86.6779 213.776C85.6211 214.821 83.9791 215.731 82.5049 215.035C81.8254 214.728 81.2548 214.223 80.8682 213.586C80.4238 212.808 80.2873 212.086 79.6236 211.545C79.1402 211.219 78.6533 211.262 78.0733 211.07C77.7185 210.928 77.4007 210.707 77.1444 210.424C76.8881 210.141 76.7001 209.803 76.5947 209.435C76.5112 209.087 76.4535 208.77 76.4005 208.395C75.9651 208.5 75.4991 208.63 74.9509 208.725C73.8491 208.97 73.0204 208.046 72.1257 207.542C71.5906 207.155 70.3271 206.647 70.0459 205.628ZM60.2471 135.599L60.3084 135.548C60.4519 135.532 60.5488 135.398 60.6197 135.234C60.8567 134.822 61.0295 134.377 61.1323 133.914C61.2926 133.047 61.2063 132.073 60.7008 131.347C60.1952 130.621 59.4149 130.44 58.6376 130.884C58.1004 131.179 57.1119 131.434 57.2693 132.244C57.6989 133.19 58.7318 133.734 59.2842 134.578C59.4505 134.773 59.5941 134.985 59.7124 135.212C59.8621 135.452 59.9505 135.745 60.2473 135.599H60.2471ZM58.7271 110.143C59.058 109.604 59.9225 109.138 60.2548 108.911C60.6276 108.546 60.8874 108.17 61.0087 107.754C59.7695 106.965 58.0867 106.706 56.9338 106.89C56.2985 107.006 55.9368 107.571 55.5802 108.08C56.4967 108.984 57.4085 109.944 58.2944 110.873C58.3996 110.609 58.5457 110.363 58.7273 110.143H58.7271ZM55.2475 110.61C54.2813 111.265 54.5747 112.797 55.501 113.588C56.2581 114.364 57.6958 114.829 58.5511 115.784C59.0971 116.372 59.377 117.078 59.8311 117.743C59.9294 117.922 60.1612 118.197 60.2852 118.407C60.4002 118.32 60.4956 118.21 60.5653 118.084C60.6351 117.958 60.6775 117.818 60.6899 117.675C60.7024 117.531 60.6845 117.387 60.6375 117.25C60.5905 117.114 60.5154 116.989 60.417 116.884C60.2893 116.721 60.1255 116.59 59.9386 116.501C60.0396 116.681 60.1 116.88 60.1155 117.085C60.1456 117.167 60.1478 117.258 60.1216 117.341C60.0248 117.475 59.6863 117.446 59.7009 117.277C59.6578 116.79 59.3681 116.196 58.8945 115.757C58.3325 115.026 56.418 114.491 56.6783 113.121C56.7836 112.562 57.1048 112.135 57.5033 111.8L57.7485 111.594C57.254 111.068 56.7594 110.542 56.2908 110.046C55.9639 110.217 55.5543 110.352 55.2477 110.609L55.2475 110.61ZM40.1259 92.56C40.4943 93.5582 40.3771 94.9123 41.215 95.4112C41.4616 95.5178 41.5069 95.3228 41.4331 94.8616C41.3949 94.3183 41.0794 93.6941 40.6671 93.2037C40.5174 92.9633 40.3063 92.7746 40.1259 92.56ZM61.2065 98.9037C60.9551 98.8536 60.5246 98.9016 60.4952 99.2401C60.4513 99.7479 60.4638 100.261 60.6811 100.706C60.7793 100.885 60.8419 101.146 61.0724 101.109L61.1032 101.083C61.124 101.17 61.2627 101.211 61.3496 101.19C61.5496 101.179 61.5949 100.984 61.6353 100.845C61.7872 100.404 61.949 99.8492 61.7316 99.404C61.7092 99.2754 61.646 99.1573 61.5515 99.0673C61.457 98.9772 61.3361 98.9199 61.2065 98.9037ZM69.69 152.93C69.9134 153.632 70.6559 154.577 71.333 154.636C72.1118 154.504 71.6599 153.158 71.1494 152.488C70.8241 151.977 70.0733 151.457 69.5335 151.126C69.5361 151.752 69.5389 152.377 69.69 152.93ZM81.4353 156.135C80.8062 156.507 80.0274 156.639 79.3196 156.606C79.3654 157.719 79.3548 158.826 78.8412 159.833C78.1696 161.026 76.7275 161.924 75.6808 160.555C75.5261 160.371 75.4022 160.161 75.2733 160.008C74.6945 160.128 74.0996 160.105 73.6593 160.266C72.6464 160.804 72.8677 162.187 73.9411 162.593C74.7113 162.887 75.5481 163.073 76.1456 163.721C76.5064 164.15 76.7752 164.657 77.1667 165.06L77.2955 165.214L77.3004 165.157C77.267 164.558 76.797 163.749 76.8604 163.016C77.0536 161.441 78.5619 160.435 79.8408 159.778C80.5526 159.442 81.0315 158.829 81.7942 158.554C81.9684 158.513 82.1732 158.445 82.3473 158.403C82.0209 157.579 81.7152 156.842 81.4353 156.135ZM105.809 203.238C106.021 203.479 106.217 203.733 106.397 203.999L106.51 204.009C106.818 204.064 107.1 204.088 107.274 204.047C107.648 203.994 108.247 203.648 108.276 203.309C108.344 202.519 107.353 202.149 106.615 202.142C106.446 202.127 105.888 202.335 105.708 202.433C105.59 202.48 105.498 202.557 105.35 202.63C105.488 202.843 105.641 203.047 105.809 203.238V203.238Z" fill="url(#paint2_linear_51_2094)"/>
<path fill-rule="evenodd" clip-rule="evenodd" d="M140.503 31.6099C140.659 31.3683 140.986 31.0807 141.355 30.7779C142.448 29.8884 144.009 28.9439 144.158 28.843C146.528 27.28 149.018 25.8461 151.41 24.3008C152.446 23.6273 153.468 22.9336 154.454 22.1982C154.773 21.9553 156.902 20.5048 157.363 19.4692C157.478 19.2262 157.511 18.9523 157.456 18.6892C157.417 18.5483 157.349 18.4172 157.256 18.3045C157.163 18.1918 157.047 18.1 156.916 18.0352C156.42 17.7648 155.731 17.6859 154.979 17.7434C153.567 17.8507 151.892 18.4188 151.034 18.6494C148.183 19.4276 145.377 20.3567 142.625 21.4329C139.857 22.5009 137.147 23.678 134.479 24.8856C126.886 28.3261 119.407 32.0375 112.169 36.0695C104.832 40.1603 97.7427 44.5826 91.0512 49.3952C87.9928 51.5903 84.6221 53.9344 81.7199 56.5747C79.6762 58.437 77.8667 60.4483 76.554 62.6531C76.5065 62.7332 76.4754 62.8219 76.4622 62.9141C76.449 63.0063 76.4542 63.1002 76.4773 63.1904C76.5004 63.2806 76.5411 63.3654 76.597 63.4399C76.6528 63.5144 76.7229 63.5771 76.803 63.6246C76.8831 63.672 76.9718 63.7032 77.064 63.7164C77.1562 63.7295 77.2501 63.7244 77.3403 63.7013C77.4305 63.6782 77.5153 63.6375 77.5898 63.5816C77.6643 63.5257 77.727 63.4557 77.7745 63.3756C79.0091 61.2773 80.719 59.3655 82.6495 57.5878C85.495 54.9665 88.8089 52.6375 91.8105 50.4542C98.4453 45.6343 105.47 41.1991 112.744 37.0954C119.932 33.0426 127.369 29.314 134.919 25.8509C137.558 24.6419 140.248 23.4622 142.994 22.3915C145.71 21.3187 148.482 20.3911 151.296 19.6127C152.013 19.4189 153.312 18.9722 154.532 18.7881C155.27 18.6761 155.973 18.6419 156.441 18.8975C156.576 18.9698 156.469 19.086 156.384 19.2193C156.187 19.5093 155.953 19.7725 155.689 20.0023C154.965 20.6703 154.064 21.2754 153.872 21.4215C152.907 22.1458 151.9 22.8298 150.885 23.4935C148.493 25.0455 146.01 26.4837 143.64 28.0523C143.441 28.1832 141.014 29.6667 140.021 30.7128C139.818 30.9122 139.657 31.1494 139.545 31.4108C139.396 31.8243 139.503 32.1473 139.879 32.3596C140.603 32.7578 141.88 32.7621 143.349 32.515C146.017 32.0641 149.359 30.8565 150.601 30.5357C156.42 29.0412 162.238 27.5381 168.128 26.2652C172.024 25.4216 175.955 24.6802 179.929 24.1057C193.915 22.0937 208.958 21.5969 223.81 22.8113C238.719 24.0311 253.436 26.976 266.678 31.8223C266.765 31.854 266.858 31.8681 266.951 31.8639C267.044 31.8596 267.136 31.837 267.22 31.7975C267.304 31.7579 267.38 31.7022 267.443 31.6333C267.506 31.5645 267.554 31.484 267.586 31.3964C267.618 31.3088 267.632 31.2158 267.627 31.1227C267.623 31.0297 267.601 30.9384 267.561 30.854C267.521 30.7697 267.466 30.6939 267.397 30.6311C267.328 30.5683 267.248 30.5197 267.16 30.488C253.791 25.6743 238.939 22.788 223.903 21.6287C208.966 20.4782 193.837 21.0304 179.78 23.1107C175.792 23.6998 171.839 24.459 167.915 25.3161C162.026 26.605 156.193 28.1172 150.367 29.624C149.139 29.942 145.832 31.1424 143.193 31.5877C142.086 31.7732 141.113 31.8497 140.503 31.6099ZM296.374 207.137C300.603 206.465 304.932 205.063 308.941 203.05C312.95 201.035 316.64 198.409 319.549 195.228C322.302 192.281 324.297 188.572 326.865 185.416C327.937 184.096 329.115 182.879 330.498 181.86C331.882 180.838 333.422 180.157 335.04 179.693C336.672 179.223 338.389 178.979 340.099 178.837C340.286 178.818 340.458 178.726 340.577 178.581C340.696 178.436 340.753 178.25 340.735 178.063C340.717 177.876 340.626 177.704 340.482 177.584C340.337 177.465 340.151 177.407 339.964 177.424C338.169 177.618 336.374 177.922 334.664 178.457C332.925 179.002 331.272 179.781 329.789 180.925C328.356 182.029 327.142 183.339 326.028 184.748C323.523 187.926 321.572 191.628 318.861 194.589C315.994 197.645 312.382 200.172 308.451 202.059C304.571 203.911 300.428 205.151 296.168 205.732C296.074 205.744 295.983 205.774 295.901 205.821C295.819 205.868 295.747 205.931 295.69 206.006C295.632 206.081 295.591 206.167 295.567 206.259C295.543 206.351 295.538 206.446 295.552 206.54C295.566 206.633 295.598 206.723 295.647 206.804C295.696 206.885 295.761 206.955 295.837 207.011C295.914 207.066 296.001 207.106 296.093 207.128C296.185 207.149 296.28 207.152 296.374 207.136L296.374 207.137Z" fill="#E3DBF9"/>
<path fill-rule="evenodd" clip-rule="evenodd" d="M179.968 144.892C187.089 162.676 211.532 190.93 233.492 190.926C265.212 190.928 299.169 107.859 299.169 107.859C311.99 99.1285 304.141 87.0064 298.348 76.8426L289.522 98.6282C289.522 98.6282 251.339 152.032 234.881 149.626C218.422 147.225 199.923 85.0031 190.771 84.2134C181.619 83.4236 172.849 127.105 179.968 144.892Z" fill="#FB9C9A"/>
<mask id="mask0_51_2094" style="mask-type:luminance" maskUnits="userSpaceOnUse" x="177" y="76" width="130" height="115">
<path d="M179.968 144.892C187.089 162.676 211.532 190.93 233.492 190.926C265.212 190.928 299.169 107.859 299.169 107.859C311.99 99.1285 304.141 87.0064 298.348 76.8426L289.522 98.6282C289.522 98.6282 251.339 152.032 234.881 149.626C218.422 147.225 199.923 85.0031 190.771 84.2134C181.619 83.4236 172.849 127.105 179.968 144.892Z" fill="white"/>
</mask>
<g mask="url(#mask0_51_2094)">
<path fill-rule="evenodd" clip-rule="evenodd" d="M272.705 100.76C255.922 79.1071 245.889 48.2372 217.682 38.6032C197.891 31.8428 180.101 42.0709 168.89 58.4294C151.434 83.9032 145.792 120.455 155.918 149.728C170.458 191.759 219.69 205.958 258.413 189.623C270.412 184.56 282.341 176.976 288.99 165.423C293.957 156.792 298.648 139.725 289.912 131.472C287.031 128.748 282.178 129.896 279.708 126.756C277.828 124.371 278.75 121.196 277.658 118.533C275.876 114.165 269.128 113.192 265.005 113.716L272.705 100.76Z" fill="#4BD16F"/>
</g>
<path fill-rule="evenodd" clip-rule="evenodd" d="M177.128 167.539C187.286 155.186 202.771 102.088 194.852 87.1873C186.933 72.2864 144.947 56.3992 129.616 78.132C116.144 97.2291 125.988 146.397 133.906 161.299C140.734 174.154 167.882 178.782 177.128 167.539Z" fill="#4BD16F"/>
<path fill-rule="evenodd" clip-rule="evenodd" d="M173.894 101.149C173.359 99.7343 172.285 98.5901 170.908 97.9675C169.53 97.3449 167.961 97.2949 166.547 97.8283L86.4849 128.045C85.7849 128.31 85.1438 128.71 84.5983 129.222C84.0528 129.734 83.6135 130.349 83.3056 131.031C82.9977 131.713 82.8271 132.449 82.8036 133.197C82.7801 133.945 82.9042 134.69 83.1687 135.39L130.42 260.584C130.953 261.998 132.026 263.143 133.403 263.765C134.78 264.388 136.348 264.439 137.762 263.906L217.824 233.689C219.238 233.155 220.382 232.081 221.005 230.703C221.628 229.326 221.678 227.757 221.145 226.343L173.894 101.149Z" fill="white"/>
<path fill-rule="evenodd" clip-rule="evenodd" d="M113.469 140.423C113.329 140.053 113.048 139.753 112.687 139.59C112.327 139.427 111.916 139.414 111.545 139.553L97.7704 144.752C97.4002 144.892 97.1007 145.173 96.9377 145.534C96.7747 145.895 96.7616 146.306 96.9012 146.676L96.9016 146.677C97.0415 147.047 97.3227 147.347 97.6833 147.51C98.044 147.673 98.4546 147.686 98.8249 147.546L112.6 142.347C112.97 142.207 113.27 141.926 113.433 141.566C113.596 141.205 113.609 140.794 113.469 140.424L113.469 140.423ZM111.304 134.688C111.164 134.318 110.883 134.018 110.523 133.855C110.162 133.692 109.751 133.679 109.381 133.818L95.6058 139.017C95.2355 139.157 94.936 139.438 94.7731 139.799C94.6101 140.16 94.597 140.57 94.7367 140.941V140.942C94.8766 141.312 95.1577 141.612 95.5184 141.775C95.879 141.938 96.2896 141.951 96.6599 141.811L110.436 136.613C110.806 136.473 111.105 136.191 111.268 135.831C111.431 135.47 111.444 135.059 111.305 134.689L111.304 134.688Z" fill="#E3E3FE"/>
<path fill-rule="evenodd" clip-rule="evenodd" d="M173.655 100.516C173.422 99.8989 173.07 99.3337 172.619 98.8527C172.167 98.3717 171.625 97.9844 171.024 97.7127C170.423 97.4411 169.775 97.2906 169.115 97.2697C168.456 97.2488 167.799 97.358 167.182 97.591L85.8561 128.285C85.2389 128.518 84.6737 128.87 84.1926 129.321C83.7115 129.773 83.3241 130.314 83.0524 130.915C82.7806 131.516 82.63 132.165 82.609 132.824C82.588 133.484 82.6971 134.14 82.93 134.758V134.759C83.1629 135.376 83.5151 135.941 83.9664 136.422C84.4178 136.903 84.9595 137.29 85.5606 137.562C86.1617 137.834 86.8104 137.984 87.4697 138.005C88.1289 138.026 88.7859 137.917 89.4029 137.684L170.729 106.989C171.346 106.757 171.911 106.405 172.392 105.953C172.873 105.502 173.261 104.96 173.533 104.359C173.804 103.758 173.955 103.11 173.976 102.45C173.997 101.791 173.888 101.134 173.655 100.517V100.516Z" fill="white"/>
<path fill-rule="evenodd" clip-rule="evenodd" d="M152.218 172.948C152.166 172.953 152.114 172.942 152.07 172.914C152.025 172.887 151.991 172.846 151.972 172.797L142.09 146.615C141.657 145.467 140.785 144.539 139.668 144.034C138.55 143.529 137.277 143.488 136.13 143.921L136.126 143.922C135.558 144.137 135.037 144.461 134.595 144.876C134.152 145.292 133.795 145.791 133.545 146.344C133.295 146.897 133.157 147.495 133.138 148.102C133.119 148.709 133.22 149.314 133.435 149.881L143.397 176.276V176.277L143.393 176.278L142.959 176.442C142.84 176.488 142.707 176.488 142.587 176.442C142.467 176.396 142.369 176.307 142.311 176.193C141.08 173.8 134.831 161.64 131.654 155.46C131.41 154.985 131.075 154.563 130.668 154.217C130.261 153.872 129.79 153.61 129.282 153.446C128.773 153.283 128.238 153.221 127.706 153.265C127.174 153.309 126.655 153.457 126.181 153.701C126.177 153.702 126.177 153.702 126.177 153.702C125.702 153.946 125.279 154.282 124.934 154.689C124.588 155.096 124.326 155.568 124.163 156.076C123.999 156.585 123.938 157.12 123.981 157.653C124.025 158.185 124.173 158.704 124.417 159.179C126.519 163.266 129.997 170.035 132.701 175.296C135.299 180.353 137.606 185.553 139.613 190.872C139.613 190.872 135.847 187.035 132.897 184.029C131.979 183.095 130.727 182.563 129.416 182.551C128.106 182.539 126.844 183.048 125.909 183.966V183.967C125.447 184.421 125.079 184.962 124.827 185.559C124.575 186.156 124.444 186.796 124.441 187.444C124.438 188.092 124.563 188.734 124.809 189.333C125.056 189.932 125.418 190.477 125.876 190.935C129.179 194.245 134.288 199.356 138.76 203.837C141.513 206.593 145.004 208.497 148.813 209.319C152.621 210.141 156.586 209.846 160.231 208.47C170.795 204.483 176.126 192.689 172.14 182.127L170.427 177.588C170.427 177.588 168.713 159.891 167.922 151.719C167.818 150.645 167.291 149.657 166.458 148.972C165.625 148.286 164.554 147.959 163.48 148.064V148.063C162.406 148.167 161.418 148.693 160.731 149.526C160.045 150.359 159.718 151.43 159.822 152.504C160.415 158.606 161.466 169.458 161.466 169.458L161.385 169.489C161.301 169.498 161.217 169.478 161.148 169.431C161.079 169.384 161.028 169.313 161.006 169.232C160.394 166.887 156.972 153.779 155.123 146.698C154.808 145.495 154.029 144.466 152.955 143.837C151.882 143.208 150.604 143.031 149.4 143.344L149.396 143.346C148.8 143.501 148.241 143.773 147.75 144.144C147.259 144.516 146.846 144.981 146.535 145.513C146.223 146.044 146.02 146.632 145.936 147.242C145.852 147.852 145.889 148.473 146.045 149.069C148.139 157.089 152.274 172.928 152.274 172.928L152.218 172.948Z" fill="url(#paint3_linear_51_2094)"/>
<path fill-rule="evenodd" clip-rule="evenodd" d="M204.148 205.35L207.704 214.77C208.234 216.176 208.185 217.736 207.566 219.106C206.946 220.476 205.809 221.543 204.403 222.074L194.459 225.827L193.533 223.372L203.476 219.619C203.851 219.478 204.194 219.265 204.486 218.992C204.778 218.718 205.013 218.39 205.178 218.025C205.343 217.661 205.435 217.267 205.448 216.867C205.461 216.468 205.395 216.069 205.254 215.695L201.699 206.275L204.148 205.35ZM131.459 232.785L135.014 242.205C135.155 242.579 135.368 242.922 135.641 243.214C135.915 243.505 136.243 243.74 136.607 243.905C136.971 244.07 137.365 244.161 137.764 244.174C138.164 244.186 138.562 244.12 138.936 243.979L148.88 240.226L149.806 242.681L139.862 246.434C138.456 246.964 136.896 246.914 135.526 246.295C134.157 245.676 133.089 244.538 132.558 243.132L129.003 233.712L131.459 232.785ZM114.363 148.772L115.29 151.227L105.346 154.98C104.972 155.121 104.629 155.335 104.338 155.608C104.046 155.882 103.811 156.21 103.647 156.574C103.482 156.939 103.391 157.332 103.379 157.731C103.366 158.131 103.433 158.529 103.574 158.903L107.129 168.323L104.674 169.25L101.118 159.83C100.588 158.423 100.637 156.864 101.256 155.494C101.875 154.124 103.013 153.056 104.419 152.525L114.363 148.772ZM159.016 131.919L168.96 128.166C170.366 127.636 171.926 127.686 173.295 128.305C174.665 128.924 175.733 130.062 176.264 131.468L179.819 140.888L177.369 141.813L173.814 132.393C173.672 132.019 173.458 131.676 173.184 131.384C172.91 131.093 172.582 130.858 172.217 130.694C171.852 130.529 171.459 130.438 171.059 130.426C170.659 130.413 170.26 130.48 169.886 130.622L159.942 134.375L159.016 131.919Z" fill="#E3E3FE"/>
<path d="M138.257 222.941C138.734 222.761 139.172 222.79 139.572 223.03C140.046 223.313 140.46 223.922 140.814 224.859C141.167 225.794 141.253 226.529 141.086 227.059C140.948 227.496 140.638 227.805 140.161 227.985C139.939 228.076 139.7 228.113 139.461 228.093C139.223 228.073 138.993 227.996 138.79 227.869C138.351 227.612 137.959 227.008 137.601 226.06C137.25 225.13 137.158 224.4 137.326 223.869C137.469 223.43 137.779 223.121 138.257 222.941ZM138.553 223.726C138.44 223.768 138.344 223.848 138.284 223.953C138.219 224.1 138.198 224.264 138.225 224.423C138.254 224.692 138.375 225.117 138.594 225.697C138.813 226.277 138.992 226.664 139.131 226.859C139.276 227.052 139.4 227.17 139.519 227.208C139.631 227.246 139.754 227.244 139.864 227.2C139.976 227.159 140.069 227.079 140.128 226.976C140.198 226.829 140.218 226.664 140.186 226.505C140.163 226.236 140.037 225.815 139.818 225.235C139.599 224.655 139.421 224.268 139.281 224.073C139.142 223.878 139.013 223.761 138.899 223.721C138.786 223.682 138.664 223.683 138.553 223.726ZM142.093 221.493C142.57 221.313 143.008 221.342 143.408 221.582C143.882 221.865 144.296 222.475 144.65 223.411C145.003 224.346 145.095 225.079 144.928 225.609C144.785 226.048 144.474 226.358 143.997 226.538C143.775 226.628 143.536 226.665 143.297 226.645C143.059 226.624 142.829 226.548 142.626 226.422C142.193 226.163 141.795 225.561 141.437 224.612C141.086 223.682 140.994 222.952 141.168 222.419C141.305 221.983 141.615 221.673 142.093 221.493ZM142.389 222.278C142.277 222.319 142.183 222.398 142.126 222.503C142.056 222.65 142.033 222.815 142.061 222.975C142.09 223.244 142.217 223.668 142.436 224.247C142.655 224.827 142.834 225.214 142.973 225.409C143.112 225.604 143.242 225.72 143.355 225.76C143.468 225.797 143.59 225.794 143.701 225.752C143.812 225.71 143.905 225.631 143.964 225.528C144.034 225.381 144.056 225.215 144.029 225.055C144 224.788 143.88 224.365 143.661 223.785C143.442 223.205 143.263 222.818 143.124 222.623C142.979 222.43 142.855 222.311 142.735 222.273C142.623 222.232 142.5 222.234 142.389 222.278H142.389ZM148.623 224.695L147.68 225.051L146.333 221.483C146.106 221.941 145.78 222.344 145.379 222.662L145.055 221.803C145.308 221.587 145.521 221.328 145.686 221.039C145.883 220.737 145.987 220.384 145.986 220.023L146.751 219.734L148.623 224.695ZM152.086 223.388L151.137 223.746L149.79 220.178C149.562 220.637 149.237 221.039 148.836 221.358L148.511 220.498C148.764 220.282 148.978 220.024 149.143 219.734C149.339 219.432 149.443 219.079 149.443 218.718L150.213 218.428L152.086 223.388ZM155.542 222.084L154.593 222.442L153.246 218.873C153.019 219.332 152.693 219.735 152.292 220.053L151.968 219.194C152.222 218.976 152.437 218.717 152.605 218.428C152.798 218.125 152.9 217.773 152.899 217.414L153.669 217.123L155.542 222.084ZM156.684 215.986C157.161 215.806 157.599 215.835 157.998 216.075C158.473 216.358 158.887 216.968 159.241 217.905C159.594 218.839 159.686 219.572 159.518 220.102C159.375 220.541 159.065 220.851 158.588 221.031C158.366 221.121 158.127 221.158 157.888 221.138C157.65 221.118 157.42 221.041 157.217 220.915C156.784 220.656 156.386 220.054 156.028 219.105C155.677 218.175 155.585 217.445 155.759 216.913C155.896 216.476 156.206 216.166 156.684 215.986ZM156.98 216.771C156.868 216.812 156.775 216.892 156.717 216.996C156.646 217.142 156.626 217.307 156.658 217.466C156.681 217.737 156.808 218.16 157.027 218.74C157.245 219.32 157.424 219.707 157.564 219.902C157.703 220.097 157.832 220.213 157.946 220.253C158.058 220.291 158.18 220.289 158.291 220.246C158.404 220.204 158.5 220.124 158.56 220.019C158.625 219.871 158.646 219.708 158.619 219.548C158.591 219.282 158.47 218.858 158.251 218.278C158.033 217.699 157.854 217.312 157.714 217.116C157.575 216.921 157.445 216.804 157.326 216.766C157.214 216.726 157.091 216.728 156.98 216.771ZM160.525 214.536C161.003 214.356 161.441 214.386 161.84 214.625C162.315 214.908 162.723 215.52 163.077 216.457C163.43 217.391 163.522 218.124 163.354 218.654C163.217 219.091 162.907 219.401 162.429 219.58C162.208 219.671 161.968 219.708 161.73 219.688C161.491 219.668 161.261 219.591 161.058 219.464C160.62 219.208 160.228 218.603 159.87 217.655C159.519 216.725 159.427 215.995 159.595 215.464C159.738 215.026 160.042 214.718 160.525 214.536ZM160.822 215.321C160.708 215.363 160.613 215.443 160.553 215.548C160.488 215.696 160.467 215.859 160.494 216.018C160.523 216.287 160.644 216.713 160.863 217.292C161.082 217.872 161.26 218.259 161.4 218.454C161.539 218.65 161.668 218.766 161.788 218.803C161.9 218.842 162.022 218.839 162.133 218.795C162.244 218.754 162.338 218.675 162.396 218.571C162.466 218.425 162.487 218.259 162.455 218.1C162.432 217.831 162.306 217.41 162.087 216.83C161.868 216.25 161.689 215.863 161.55 215.668C161.411 215.473 161.281 215.356 161.167 215.316C161.055 215.277 160.933 215.279 160.822 215.321ZM164.361 213.088C164.839 212.908 165.277 212.938 165.676 213.177C166.151 213.46 166.565 214.07 166.919 215.007C167.271 215.941 167.364 216.674 167.196 217.204C167.053 217.643 166.743 217.953 166.266 218.133C166.044 218.224 165.805 218.261 165.566 218.241C165.328 218.221 165.097 218.144 164.895 218.017C164.462 217.758 164.064 217.156 163.706 216.208C163.355 215.278 163.263 214.547 163.437 214.015C163.574 213.578 163.884 213.268 164.361 213.088ZM164.658 213.873C164.546 213.914 164.452 213.994 164.394 214.098C164.325 214.245 164.302 214.41 164.33 214.571C164.359 214.84 164.48 215.265 164.699 215.845C164.918 216.424 165.097 216.811 165.242 217.005C165.381 217.2 165.51 217.316 165.624 217.356C165.736 217.393 165.859 217.39 165.969 217.348C166.08 217.306 166.173 217.227 166.233 217.124C166.303 216.977 166.325 216.812 166.297 216.651C166.269 216.384 166.148 215.961 165.93 215.381C165.711 214.801 165.532 214.414 165.387 214.221C165.247 214.026 165.123 213.907 165.004 213.869C164.892 213.828 164.769 213.83 164.658 213.873H164.658ZM170.892 216.29L169.949 216.646L168.602 213.078C168.375 213.536 168.049 213.939 167.648 214.258L167.324 213.398C167.576 213.182 167.79 212.923 167.955 212.634C168.149 212.331 168.253 211.979 168.255 211.618L169.02 211.33L170.892 216.29ZM174.349 214.986L173.405 215.342L172.058 211.773C171.831 212.232 171.505 212.635 171.104 212.953L170.78 212.094C171.033 211.877 171.247 211.619 171.412 211.33C171.608 211.027 171.712 210.674 171.711 210.314L172.476 210.025L174.349 214.986ZM177.811 213.679L176.862 214.037L175.515 210.469C175.287 210.927 174.962 211.33 174.561 211.648L174.236 210.789C174.489 210.573 174.703 210.314 174.868 210.025C175.064 209.723 175.168 209.37 175.168 209.009L175.938 208.718L177.811 213.679ZM181.267 212.375L180.318 212.733L178.972 209.164C178.744 209.623 178.418 210.026 178.017 210.344L177.693 209.485C177.948 209.268 178.163 209.009 178.33 208.718C178.523 208.415 178.625 208.064 178.624 207.704L179.395 207.414L181.267 212.375ZM182.409 206.277C182.892 206.094 183.324 206.126 183.724 206.366C184.198 206.649 184.612 207.258 184.966 208.195C185.319 209.13 185.411 209.862 185.244 210.393C185.1 210.832 184.796 211.139 184.313 211.322C184.091 211.412 183.852 211.449 183.613 211.428C183.375 211.408 183.145 211.332 182.942 211.206C182.509 210.947 182.111 210.345 181.753 209.396C181.402 208.466 181.31 207.736 181.484 207.203C181.621 206.767 181.931 206.457 182.409 206.277ZM182.705 207.062C182.594 207.103 182.5 207.183 182.442 207.287C182.371 207.433 182.351 207.598 182.383 207.757C182.406 208.028 182.533 208.451 182.752 209.031C182.971 209.611 183.15 209.998 183.289 210.193C183.428 210.388 183.558 210.504 183.671 210.544C183.784 210.581 183.906 210.579 184.016 210.536C184.13 210.494 184.225 210.414 184.286 210.31C184.351 210.162 184.371 209.998 184.344 209.839C184.316 209.572 184.195 209.148 183.977 208.569C183.758 207.989 183.579 207.602 183.44 207.407C183.3 207.212 183.171 207.095 183.051 207.057C182.939 207.016 182.816 207.018 182.705 207.062ZM186.251 204.827C186.728 204.647 187.166 204.676 187.565 204.916C188.04 205.199 188.454 205.808 188.808 206.745C189.161 207.68 189.247 208.415 189.08 208.945C188.942 209.382 188.632 209.692 188.155 209.871C187.933 209.962 187.694 209.999 187.455 209.979C187.217 209.959 186.986 209.882 186.784 209.755C186.345 209.498 185.953 208.894 185.595 207.946C185.244 207.016 185.152 206.286 185.32 205.755C185.463 205.316 185.773 205.007 186.251 204.827ZM186.547 205.612C186.434 205.654 186.338 205.734 186.278 205.839C186.213 205.987 186.192 206.15 186.219 206.309C186.248 206.578 186.369 207.003 186.588 207.583C186.807 208.163 186.986 208.55 187.125 208.745C187.264 208.94 187.394 209.056 187.513 209.094C187.625 209.132 187.748 209.13 187.858 209.086C187.97 209.045 188.063 208.965 188.121 208.862C188.192 208.715 188.212 208.55 188.18 208.391C188.157 208.122 188.031 207.701 187.812 207.121C187.594 206.541 187.415 206.154 187.275 205.959C187.136 205.764 187.006 205.647 186.893 205.607C186.78 205.568 186.658 205.569 186.547 205.612H186.547ZM190.087 203.379C190.564 203.199 191.002 203.228 191.402 203.468C191.876 203.751 192.29 204.361 192.644 205.298C192.997 206.232 193.089 206.965 192.921 207.495C192.778 207.934 192.468 208.244 191.991 208.424C191.769 208.515 191.53 208.552 191.291 208.532C191.053 208.511 190.823 208.435 190.62 208.308C190.187 208.049 189.789 207.447 189.431 206.498C189.08 205.568 188.988 204.838 189.162 204.306C189.299 203.869 189.609 203.559 190.087 203.379ZM190.383 204.164C190.271 204.205 190.177 204.285 190.12 204.389C190.05 204.536 190.027 204.701 190.055 204.861C190.084 205.13 190.205 205.556 190.424 206.135C190.643 206.715 190.828 207.1 190.967 207.295C191.106 207.49 191.235 207.606 191.349 207.646C191.461 207.685 191.584 207.682 191.694 207.639C191.806 207.598 191.9 207.519 191.958 207.414C192.027 207.267 192.05 207.102 192.022 206.941C191.994 206.675 191.873 206.251 191.654 205.671C191.436 205.092 191.257 204.705 191.112 204.512C190.972 204.317 190.843 204.2 190.729 204.159C190.617 204.119 190.494 204.121 190.383 204.164ZM143.973 235.597L143.024 235.955L141.677 232.386C141.45 232.845 141.124 233.248 140.723 233.566L140.399 232.707C140.652 232.49 140.865 232.232 141.03 231.943C141.227 231.64 141.331 231.287 141.33 230.927L142.1 230.636L143.973 235.597ZM147.43 234.292L146.481 234.65L145.134 231.082C144.907 231.539 144.583 231.941 144.185 232.26L143.861 231.401C144.113 231.183 144.326 230.925 144.493 230.637C144.687 230.334 144.79 229.982 144.787 229.623L145.557 229.332L147.43 234.292ZM150.886 232.988L149.937 233.346L148.59 229.777C148.364 230.234 148.04 230.636 147.642 230.955L147.317 230.096C147.569 229.879 147.783 229.62 147.949 229.332C148.143 229.029 148.247 228.676 148.249 228.316L149.014 228.027L150.886 232.988ZM152.033 226.888C152.511 226.708 152.949 226.737 153.348 226.977C153.817 227.262 154.231 227.872 154.585 228.808C154.937 229.743 155.03 230.476 154.862 231.006C154.725 231.443 154.415 231.752 153.937 231.932C153.715 232.023 153.474 232.06 153.235 232.04C152.996 232.02 152.765 231.944 152.56 231.818C152.128 231.559 151.735 230.955 151.377 230.007C151.026 229.077 150.935 228.347 151.103 227.816C151.24 227.38 151.55 227.07 152.033 226.888ZM152.329 227.673C152.216 227.715 152.121 227.795 152.06 227.9C151.99 228.046 151.969 228.211 152.001 228.37C152.031 228.639 152.152 229.064 152.37 229.644C152.589 230.224 152.768 230.611 152.908 230.806C153.047 231.001 153.176 231.117 153.29 231.157C153.404 231.194 153.528 231.191 153.641 231.147C153.752 231.105 153.845 231.026 153.904 230.923C153.969 230.775 153.989 230.612 153.962 230.452C153.934 230.186 153.814 229.762 153.595 229.182C153.376 228.602 153.197 228.215 153.058 228.02C152.918 227.825 152.789 227.708 152.675 227.668C152.563 227.63 152.441 227.631 152.329 227.673ZM155.869 225.44C156.347 225.26 156.785 225.289 157.184 225.529C157.659 225.812 158.073 226.422 158.427 227.358C158.779 228.293 158.872 229.026 158.698 229.558C158.561 229.995 158.251 230.305 157.773 230.484C157.552 230.575 157.312 230.612 157.074 230.592C156.835 230.572 156.605 230.495 156.402 230.368C155.969 230.109 155.571 229.507 155.213 228.559C154.862 227.629 154.771 226.899 154.939 226.368C155.082 225.93 155.392 225.62 155.869 225.44ZM156.165 226.225C156.053 226.266 155.96 226.345 155.902 226.45C155.832 226.597 155.81 226.762 155.837 226.922C155.867 227.191 155.988 227.617 156.207 228.196C156.425 228.776 156.604 229.163 156.744 229.358C156.889 229.551 157.012 229.67 157.132 229.707C157.244 229.746 157.366 229.743 157.477 229.699C157.589 229.659 157.682 229.579 157.74 229.475C157.81 229.328 157.831 229.163 157.799 229.004C157.776 228.735 157.655 228.311 157.437 227.732C157.218 227.152 157.033 226.767 156.894 226.572C156.755 226.376 156.625 226.26 156.511 226.219C156.399 226.18 156.277 226.182 156.166 226.225L156.165 226.225ZM159.705 223.992C160.182 223.812 160.621 223.841 161.02 224.081C161.494 224.364 161.908 224.974 162.262 225.911C162.615 226.845 162.707 227.578 162.54 228.108C162.397 228.547 162.086 228.857 161.609 229.037C161.387 229.127 161.148 229.164 160.91 229.144C160.671 229.124 160.441 229.047 160.238 228.921C159.805 228.662 159.407 228.06 159.049 227.111C158.698 226.181 158.607 225.451 158.78 224.919C158.918 224.482 159.228 224.172 159.705 223.992ZM160.001 224.777C159.89 224.819 159.796 224.898 159.738 225.002C159.668 225.148 159.647 225.313 159.679 225.472C159.702 225.743 159.829 226.167 160.048 226.746C160.267 227.326 160.446 227.713 160.585 227.908C160.724 228.103 160.854 228.219 160.967 228.259C161.08 228.297 161.202 228.295 161.312 228.252C161.426 228.21 161.521 228.13 161.582 228.025C161.647 227.877 161.667 227.714 161.64 227.554C161.612 227.288 161.492 226.864 161.273 226.284C161.054 225.705 160.875 225.318 160.736 225.122C160.596 224.927 160.467 224.81 160.347 224.772C160.235 224.732 160.112 224.734 160.002 224.777L160.001 224.777ZM166.242 227.192L165.293 227.55L163.946 223.982C163.719 224.44 163.393 224.843 162.992 225.161L162.667 224.302C162.92 224.086 163.134 223.827 163.299 223.538C163.495 223.236 163.6 222.883 163.599 222.522L164.369 222.231L166.242 227.192ZM169.699 225.888L168.75 226.246L167.403 222.677C167.175 223.136 166.85 223.539 166.449 223.857L166.124 222.998C166.377 222.781 166.591 222.523 166.756 222.234C166.952 221.931 167.056 221.578 167.056 221.218L167.826 220.927L169.699 225.888ZM173.155 224.583L172.206 224.941L170.859 221.373C170.632 221.83 170.309 222.232 169.91 222.551L169.586 221.691C169.838 221.474 170.051 221.216 170.218 220.927C170.412 220.625 170.515 220.273 170.512 219.913L171.282 219.623L173.155 224.583ZM176.611 223.278L175.662 223.637L174.316 220.068C174.089 220.525 173.765 220.927 173.367 221.246L173.043 220.387C173.295 220.169 173.508 219.911 173.674 219.623C173.868 219.319 173.972 218.967 173.974 218.607L174.739 218.318L176.611 223.278ZM177.758 217.178C178.236 216.998 178.674 217.028 179.073 217.268C179.548 217.55 179.956 218.162 180.31 219.099C180.663 220.034 180.755 220.766 180.587 221.297C180.45 221.734 180.14 222.043 179.662 222.223C179.44 222.314 179.2 222.351 178.96 222.331C178.721 222.311 178.49 222.235 178.286 222.109C177.853 221.85 177.461 221.246 177.103 220.298C176.752 219.368 176.66 218.637 176.828 218.107C176.971 217.668 177.275 217.361 177.758 217.178ZM178.055 217.964C177.941 218.006 177.846 218.086 177.786 218.191C177.721 218.338 177.7 218.502 177.727 218.661C177.756 218.93 177.877 219.355 178.096 219.935C178.314 220.515 178.493 220.902 178.633 221.097C178.772 221.292 178.901 221.408 179.021 221.445C179.133 221.484 179.255 221.482 179.366 221.438C179.477 221.396 179.57 221.316 179.629 221.214C179.699 221.067 179.72 220.902 179.688 220.743C179.665 220.474 179.539 220.052 179.32 219.473C179.101 218.893 178.922 218.506 178.783 218.311C178.644 218.116 178.514 217.999 178.4 217.958C178.288 217.92 178.166 217.922 178.054 217.964H178.055ZM181.594 215.731C182.072 215.551 182.51 215.58 182.909 215.82C183.384 216.103 183.798 216.712 184.152 217.649C184.504 218.584 184.597 219.316 184.423 219.849C184.286 220.286 183.976 220.595 183.499 220.775C183.277 220.866 183.037 220.903 182.799 220.883C182.561 220.863 182.33 220.786 182.127 220.659C181.695 220.4 181.297 219.798 180.939 218.85C180.588 217.92 180.496 217.19 180.664 216.659C180.807 216.22 181.117 215.911 181.594 215.731ZM181.891 216.516C181.779 216.556 181.685 216.636 181.627 216.741C181.558 216.888 181.535 217.053 181.563 217.213C181.592 217.482 181.713 217.907 181.932 218.487C182.151 219.067 182.33 219.454 182.475 219.647C182.614 219.842 182.738 219.961 182.857 219.998C182.969 220.037 183.092 220.035 183.202 219.991C183.314 219.95 183.408 219.871 183.465 219.767C183.535 219.619 183.558 219.454 183.53 219.294C183.501 219.027 183.381 218.603 183.162 218.024C182.943 217.444 182.764 217.057 182.619 216.863C182.48 216.668 182.351 216.551 182.237 216.511C182.124 216.472 182.002 216.473 181.891 216.516ZM188.125 218.933L187.182 219.289L185.835 215.72C185.606 216.178 185.281 216.581 184.881 216.9L184.557 216.041C184.809 215.824 185.023 215.566 185.188 215.277C185.382 214.973 185.486 214.621 185.488 214.261L186.253 213.972L188.125 218.933ZM191.582 217.628L190.638 217.984L189.291 214.416C189.064 214.874 188.738 215.277 188.337 215.596L188.013 214.736C188.266 214.52 188.48 214.261 188.645 213.972C188.841 213.67 188.945 213.317 188.945 212.956L189.709 212.668L191.582 217.628ZM192.729 211.528C193.206 211.348 193.644 211.378 194.044 211.617C194.518 211.9 194.932 212.51 195.286 213.447C195.639 214.381 195.731 215.114 195.558 215.647C195.42 216.084 195.11 216.393 194.633 216.573C194.412 216.664 194.172 216.701 193.933 216.681C193.695 216.66 193.465 216.584 193.262 216.457C192.829 216.198 192.431 215.596 192.073 214.647C191.722 213.717 191.63 212.987 191.798 212.457C191.941 212.018 192.251 211.709 192.729 211.528ZM193.025 212.313C192.913 212.354 192.819 212.434 192.762 212.538C192.692 212.685 192.669 212.85 192.697 213.011C192.726 213.28 192.847 213.705 193.066 214.285C193.285 214.864 193.464 215.252 193.603 215.447C193.748 215.64 193.872 215.758 193.991 215.795C194.103 215.834 194.226 215.831 194.336 215.788C194.448 215.747 194.542 215.668 194.6 215.563C194.67 215.416 194.692 215.251 194.664 215.09C194.636 214.824 194.51 214.402 194.291 213.823C194.072 213.243 193.893 212.856 193.754 212.661C193.614 212.466 193.485 212.349 193.371 212.309C193.259 212.269 193.136 212.271 193.025 212.313Z" fill="#21333B"/>
<path fill-rule="evenodd" clip-rule="evenodd" d="M161.719 201.631C160.593 202.333 159.328 202.781 158.011 202.945C157.913 202.956 157.818 202.986 157.732 203.034C157.646 203.082 157.57 203.147 157.509 203.224C157.448 203.302 157.403 203.391 157.376 203.486C157.35 203.581 157.342 203.68 157.355 203.778C157.367 203.876 157.399 203.97 157.448 204.056C157.497 204.142 157.562 204.217 157.641 204.277C157.719 204.337 157.809 204.381 157.904 204.406C157.999 204.431 158.099 204.437 158.197 204.423C159.727 204.233 161.198 203.712 162.506 202.896C162.672 202.791 162.79 202.624 162.834 202.433C162.878 202.241 162.844 202.04 162.74 201.873C162.636 201.706 162.47 201.587 162.279 201.541C162.088 201.496 161.886 201.528 161.719 201.631H161.719ZM166.138 195.669C165.735 196.956 165.116 198.165 164.307 199.244C164.248 199.322 164.205 199.411 164.181 199.506C164.156 199.601 164.151 199.7 164.164 199.797C164.178 199.894 164.21 199.987 164.26 200.072C164.31 200.156 164.376 200.23 164.454 200.289C164.532 200.348 164.622 200.391 164.716 200.416C164.811 200.44 164.91 200.446 165.007 200.432C165.104 200.419 165.198 200.386 165.282 200.336C165.367 200.287 165.441 200.221 165.5 200.142C166.406 198.927 167.102 197.569 167.558 196.123C167.616 195.936 167.597 195.733 167.506 195.559C167.415 195.385 167.259 195.254 167.072 195.194C166.885 195.134 166.682 195.15 166.507 195.239C166.332 195.329 166.2 195.483 166.138 195.669ZM154.487 202.731C153.177 202.412 151.93 201.873 150.799 201.137C150.633 201.03 150.43 200.994 150.237 201.037C150.043 201.079 149.875 201.197 149.768 201.363C149.661 201.53 149.625 201.733 149.668 201.926C149.71 202.119 149.828 202.288 149.994 202.395C151.267 203.215 152.666 203.819 154.135 204.182C154.328 204.228 154.53 204.196 154.699 204.093C154.867 203.99 154.988 203.824 155.035 203.632C155.081 203.44 155.05 203.238 154.947 203.069C154.845 202.9 154.679 202.779 154.487 202.732V202.731ZM166.503 188.029C166.766 189.372 166.86 190.741 166.786 192.107C166.775 192.305 166.843 192.498 166.975 192.646C167.107 192.793 167.291 192.882 167.489 192.893C167.686 192.905 167.88 192.837 168.027 192.706C168.175 192.574 168.265 192.39 168.276 192.192C168.356 190.703 168.251 189.208 167.962 187.745C167.945 187.648 167.908 187.556 167.854 187.473C167.801 187.391 167.731 187.32 167.65 187.264C167.569 187.209 167.477 187.17 167.381 187.151C167.285 187.131 167.185 187.13 167.089 187.149C166.992 187.168 166.901 187.206 166.819 187.26C166.737 187.315 166.667 187.385 166.612 187.467C166.558 187.549 166.52 187.641 166.502 187.737C166.483 187.834 166.483 187.933 166.503 188.029H166.503ZM148.015 198.816C147.078 197.818 146.268 196.708 145.605 195.511C145.558 195.425 145.494 195.35 145.418 195.289C145.342 195.228 145.254 195.182 145.161 195.155C145.067 195.128 144.969 195.12 144.872 195.131C144.775 195.142 144.681 195.172 144.595 195.219C144.423 195.316 144.295 195.476 144.24 195.666C144.186 195.856 144.208 196.06 144.303 196.234C145.024 197.54 145.906 198.75 146.928 199.837C147.063 199.981 147.249 200.065 147.447 200.072C147.644 200.078 147.835 200.006 147.98 199.871C148.122 199.735 148.206 199.548 148.213 199.351C148.219 199.153 148.149 198.961 148.015 198.816ZM163.399 180.975C164.214 182.077 164.897 183.271 165.432 184.533C165.47 184.623 165.525 184.704 165.595 184.773C165.665 184.841 165.747 184.895 165.838 184.932C165.929 184.969 166.025 184.987 166.123 184.986C166.221 184.985 166.318 184.965 166.408 184.927C166.497 184.889 166.579 184.834 166.648 184.764C166.716 184.694 166.77 184.612 166.807 184.521C166.844 184.431 166.862 184.334 166.861 184.236C166.86 184.138 166.84 184.042 166.802 183.952C166.221 182.581 165.481 181.284 164.599 180.085C164.479 179.93 164.304 179.828 164.11 179.801C163.916 179.774 163.719 179.825 163.562 179.941C163.405 180.058 163.3 180.232 163.27 180.425C163.239 180.618 163.286 180.816 163.4 180.975H163.399ZM144.172 192.145C143.767 190.836 143.52 189.484 143.435 188.117C143.429 188.019 143.404 187.924 143.361 187.836C143.319 187.748 143.259 187.669 143.186 187.604C143.113 187.539 143.028 187.489 142.935 187.457C142.843 187.425 142.745 187.412 142.648 187.417C142.55 187.423 142.454 187.448 142.366 187.491C142.278 187.533 142.2 187.593 142.135 187.666C142.07 187.739 142.02 187.824 141.988 187.917C141.956 188.009 141.942 188.107 141.948 188.205C142.039 189.691 142.307 191.162 142.748 192.585C142.808 192.774 142.94 192.931 143.116 193.023C143.291 193.115 143.496 193.134 143.685 193.075C143.779 193.046 143.865 192.999 143.94 192.937C144.015 192.874 144.077 192.797 144.122 192.711C144.167 192.625 144.195 192.53 144.203 192.433C144.212 192.336 144.201 192.238 144.172 192.145L144.172 192.145ZM157.465 176.205C158.715 176.73 159.877 177.445 160.909 178.323C160.984 178.386 161.071 178.433 161.164 178.463C161.257 178.492 161.356 178.503 161.453 178.495C161.55 178.486 161.645 178.458 161.732 178.413C161.819 178.368 161.896 178.306 161.959 178.231C162.021 178.157 162.069 178.07 162.098 177.977C162.128 177.884 162.139 177.785 162.13 177.688C162.122 177.591 162.094 177.496 162.049 177.409C162.004 177.322 161.942 177.245 161.867 177.182C160.717 176.209 159.427 175.416 158.04 174.829C157.857 174.753 157.652 174.752 157.469 174.827C157.286 174.902 157.141 175.047 157.065 175.23C156.989 175.412 156.988 175.617 157.063 175.8C157.138 175.983 157.283 176.128 157.465 176.204V176.205ZM143.647 184.486C143.875 183.152 144.309 181.863 144.934 180.663C144.98 180.576 145.009 180.481 145.019 180.383C145.029 180.286 145.019 180.187 144.99 180.093C144.962 179.999 144.915 179.911 144.852 179.835C144.789 179.76 144.712 179.697 144.626 179.651C144.539 179.605 144.443 179.577 144.346 179.568C144.248 179.559 144.149 179.569 144.055 179.599C143.961 179.628 143.874 179.676 143.799 179.739C143.724 179.802 143.661 179.879 143.616 179.967C142.921 181.304 142.436 182.74 142.176 184.225C142.141 184.42 142.186 184.62 142.299 184.782C142.413 184.944 142.586 185.055 142.781 185.089C142.976 185.124 143.176 185.08 143.339 184.967C143.501 184.853 143.612 184.681 143.647 184.486H143.647ZM150.007 175.984L150.115 175.942C151.358 175.476 152.686 175.282 154.011 175.373C154.206 175.383 154.398 175.316 154.545 175.186C154.691 175.055 154.781 174.873 154.793 174.677C154.806 174.482 154.742 174.289 154.613 174.141C154.485 173.992 154.303 173.901 154.108 173.885C152.62 173.784 151.128 173.992 149.725 174.498L149.589 174.548C148.282 175.041 147.085 175.786 146.065 176.739C145.921 176.874 145.835 177.061 145.829 177.258C145.822 177.456 145.893 177.648 146.028 177.793C146.163 177.937 146.35 178.022 146.547 178.029C146.745 178.036 146.937 177.964 147.082 177.83C147.932 177.035 148.924 176.409 150.007 175.983L150.007 175.984ZM158.485 196.266C158.29 196.366 158.09 196.455 157.885 196.532C155.678 197.365 153.248 196.779 151.373 195.241C151.298 195.179 151.211 195.132 151.117 195.104C151.024 195.076 150.926 195.066 150.829 195.076C150.731 195.085 150.637 195.114 150.551 195.16C150.465 195.206 150.389 195.269 150.327 195.344C150.265 195.42 150.219 195.507 150.19 195.6C150.162 195.693 150.152 195.792 150.162 195.889C150.171 195.986 150.2 196.08 150.246 196.166C150.292 196.252 150.355 196.329 150.43 196.39C152.722 198.276 155.705 198.948 158.411 197.926C158.667 197.83 158.917 197.72 159.16 197.595C159.249 197.551 159.327 197.49 159.392 197.416C159.457 197.342 159.506 197.255 159.537 197.162C159.568 197.068 159.58 196.97 159.573 196.872C159.565 196.773 159.538 196.678 159.494 196.59C159.449 196.502 159.388 196.424 159.313 196.36C159.238 196.296 159.151 196.248 159.057 196.218C158.963 196.188 158.864 196.177 158.766 196.185C158.668 196.194 158.573 196.221 158.485 196.267V196.266ZM161.314 186.48C161.357 186.586 161.399 186.692 161.439 186.799C162.395 189.332 162.137 191.99 160.934 193.96C160.883 194.044 160.849 194.137 160.834 194.234C160.819 194.33 160.823 194.429 160.846 194.524C160.869 194.619 160.911 194.709 160.969 194.788C161.026 194.867 161.099 194.934 161.183 194.985C161.266 195.036 161.359 195.07 161.456 195.085C161.553 195.1 161.651 195.096 161.747 195.073C161.842 195.05 161.931 195.008 162.01 194.95C162.09 194.893 162.156 194.82 162.207 194.736C163.628 192.408 163.964 189.267 162.834 186.272C162.787 186.148 162.741 186.024 162.686 185.904C162.648 185.813 162.593 185.731 162.524 185.661C162.454 185.592 162.372 185.537 162.281 185.499C162.191 185.462 162.093 185.443 161.995 185.443C161.897 185.443 161.8 185.463 161.709 185.501C161.619 185.539 161.537 185.595 161.468 185.665C161.399 185.734 161.344 185.817 161.308 185.908C161.271 185.999 161.253 186.097 161.254 186.195C161.255 186.293 161.275 186.39 161.314 186.48ZM149.199 192.513C149.041 192.209 148.902 191.896 148.782 191.576C147.918 189.287 148.049 186.895 148.967 185.001C149.054 184.823 149.066 184.618 149.001 184.431C148.936 184.244 148.8 184.091 148.622 184.005C148.444 183.918 148.239 183.906 148.052 183.971C147.865 184.036 147.712 184.172 147.625 184.35C146.541 186.584 146.368 189.404 147.387 192.102C147.527 192.475 147.689 192.839 147.871 193.193C147.962 193.367 148.118 193.498 148.306 193.557C148.493 193.617 148.696 193.6 148.871 193.51C149.046 193.421 149.178 193.266 149.24 193.079C149.301 192.893 149.287 192.689 149.199 192.513ZM152.26 181.872L152.34 181.841C154.751 180.931 157.428 181.714 159.352 183.586C159.494 183.722 159.685 183.797 159.881 183.793C160.078 183.79 160.266 183.709 160.403 183.568C160.54 183.426 160.616 183.237 160.614 183.04C160.612 182.843 160.533 182.655 160.393 182.517C158.075 180.268 154.86 179.364 151.95 180.397L151.814 180.446C151.299 180.641 150.807 180.892 150.348 181.195C150.266 181.249 150.196 181.319 150.141 181.4C150.087 181.482 150.049 181.573 150.029 181.669C150.01 181.765 150.01 181.864 150.029 181.96C150.048 182.056 150.085 182.148 150.139 182.229C150.194 182.311 150.263 182.381 150.345 182.435C150.426 182.49 150.517 182.528 150.613 182.548C150.709 182.567 150.808 182.567 150.904 182.548C151 182.529 151.092 182.492 151.174 182.438C151.515 182.211 151.879 182.022 152.26 181.872L152.26 181.872ZM156.563 189.132C156.159 189.355 155.739 189.548 155.307 189.709C154.772 189.915 154.219 190.069 153.655 190.17C153.558 190.186 153.466 190.222 153.383 190.274C153.3 190.326 153.228 190.394 153.172 190.474C153.115 190.553 153.075 190.644 153.053 190.739C153.031 190.834 153.028 190.933 153.045 191.03C153.061 191.126 153.097 191.219 153.149 191.301C153.201 191.384 153.269 191.456 153.349 191.513C153.428 191.569 153.519 191.61 153.614 191.631C153.709 191.653 153.808 191.656 153.905 191.639C154.563 191.522 155.209 191.342 155.834 191.103C156.333 190.916 156.819 190.692 157.286 190.435C157.459 190.339 157.587 190.178 157.641 189.988C157.695 189.798 157.672 189.594 157.576 189.422C157.48 189.249 157.32 189.121 157.13 189.067C156.94 189.012 156.736 189.036 156.563 189.132L156.563 189.132ZM154.741 188.732L154.913 188.665C155.981 188.262 156.993 188.071 157.67 188.135C157.768 188.145 157.867 188.135 157.961 188.107C158.055 188.079 158.143 188.032 158.219 187.969C158.295 187.907 158.358 187.83 158.404 187.743C158.45 187.656 158.479 187.561 158.488 187.463C158.497 187.365 158.487 187.266 158.457 187.172C158.428 187.078 158.381 186.99 158.317 186.915C158.254 186.839 158.177 186.777 158.089 186.732C158.002 186.686 157.907 186.659 157.808 186.651C156.993 186.575 155.787 186.76 154.511 187.225L154.387 187.271C153.276 187.69 152.339 188.235 151.729 188.76C151.654 188.824 151.592 188.902 151.548 188.989C151.503 189.077 151.476 189.172 151.468 189.271C151.46 189.369 151.472 189.467 151.503 189.561C151.534 189.655 151.583 189.741 151.647 189.816C151.711 189.89 151.79 189.951 151.878 189.995C151.966 190.039 152.062 190.066 152.16 190.072C152.258 190.079 152.357 190.066 152.45 190.035C152.543 190.003 152.629 189.954 152.703 189.889C153.175 189.481 153.896 189.068 154.741 188.732Z" fill="#21333B"/>
<path fill-rule="evenodd" clip-rule="evenodd" d="M106.029 84.3571C91.3934 93.3953 58.9646 121.777 63.6379 143.232C70.3931 174.227 102.41 206.921 102.41 206.921C103.639 217.642 112.796 220.105 114.717 220.795C116.376 221.388 109.879 206.324 110.58 205.117C112.836 201.238 117.278 207.107 118.307 203.315C118.96 200.921 113.283 196.534 108.234 197.094C108.234 197.094 85.4279 154.402 91.9152 135.234C98.4076 116.065 144.045 117.5 147.173 82.0848C148.01 72.6204 144.264 60.7458 106.029 84.3571Z" fill="#FB9C9A"/>
<mask id="mask1_51_2094" style="mask-type:luminance" maskUnits="userSpaceOnUse" x="63" y="70" width="85" height="151">
<path d="M106.029 84.3571C91.3934 93.3953 58.9646 121.777 63.6379 143.232C70.3931 174.227 102.41 206.921 102.41 206.921C103.639 217.642 112.796 220.105 114.717 220.795C116.376 221.388 109.879 206.324 110.58 205.117C112.836 201.238 117.278 207.107 118.307 203.315C118.96 200.921 113.283 196.534 108.234 197.094C108.234 197.094 85.4279 154.402 91.9152 135.234C98.4076 116.065 144.045 117.5 147.173 82.0848C148.01 72.6204 144.264 60.7458 106.029 84.3571Z" fill="white"/>
</mask>
<g mask="url(#mask1_51_2094)">
<path fill-rule="evenodd" clip-rule="evenodd" d="M122.509 173.942C139.875 152.755 167.73 136.09 170.832 106.445C173.009 85.6454 159.071 70.5847 140.625 63.3027C111.9 51.9664 75.0096 54.6177 48.7315 71.0163C11.0008 94.5625 8.1373 145.721 32.6965 179.826C40.3076 190.394 50.3601 200.331 63.1056 204.237C72.6267 207.154 90.3096 207.921 96.4073 197.565C98.4198 194.15 96.2189 189.674 98.7292 186.567C100.635 184.202 103.936 184.393 106.288 182.734C110.149 180.023 109.592 173.228 108.162 169.326L122.509 173.942Z" fill="#4BD16F"/>
</g>
<path fill-rule="evenodd" clip-rule="evenodd" d="M360.371 58.5674C360.371 58.5674 342.258 53.2353 329.47 39.4442C315.105 52.3615 296.401 58.5674 296.401 58.5674V87.6967C296.401 93.3858 297.851 98.981 300.614 103.954C303.377 108.927 307.362 113.114 312.193 116.119C312.716 116.448 313.245 116.774 313.764 117.099C318.042 119.76 322.973 121.183 328.011 121.211C333.049 121.239 337.997 119.87 342.304 117.257C347.819 113.91 352.379 109.199 355.544 103.578C358.708 97.9565 360.371 91.6144 360.371 85.1634V58.5674Z" fill="#4BD16F"/>
<path fill-rule="evenodd" clip-rule="evenodd" d="M351.9 64.869C351.9 64.869 338.584 60.9294 329.183 50.7402C318.623 60.2838 304.873 64.869 304.873 64.869V86.4305C304.872 90.6233 305.938 94.7473 307.97 98.4148C310.002 102.082 312.933 105.173 316.488 107.396C316.867 107.63 317.245 107.867 317.62 108.103C320.767 110.071 324.399 111.124 328.11 111.145C331.822 111.165 335.465 110.153 338.634 108.221H338.637C342.688 105.75 346.035 102.279 348.357 98.142C350.68 94.0049 351.899 89.3402 351.9 84.5958V64.869Z" fill="white"/>
<path fill-rule="evenodd" clip-rule="evenodd" d="M315.187 87.8091L323.987 99.5985C324.721 100.58 325.842 101.133 327.006 101.089C327.596 101.061 328.169 100.891 328.678 100.593C329.187 100.295 329.617 99.8783 329.93 99.3784L346.364 73.9377C347.529 72.1308 347.113 69.6456 345.429 68.391C343.745 67.1363 341.437 67.5868 340.265 69.3938L326.665 90.4474L320.974 82.8234C319.698 81.1074 317.361 80.8308 315.766 82.2065C314.163 83.5822 313.911 86.093 315.187 87.8091Z" fill="#21333B"/>
<path fill-rule="evenodd" clip-rule="evenodd" d="M293.251 87.267C293.785 84.2542 295.497 81.1747 296.509 80.8211C303.266 78.4709 306.843 85.2247 299.878 87.3191C296.509 88.3331 293.134 97.0307 293.134 97.0307C293.134 97.0307 292.846 89.5773 293.251 87.267Z" fill="#FB9C9A"/>
<path fill-rule="evenodd" clip-rule="evenodd" d="M168.368 32.4446C159.411 32.4446 152.882 40.6678 154.156 51.83C155.06 59.7401 165.055 68.2454 173.248 69.0476C180 69.7082 182.644 62.8564 182.644 51.6223C182.644 40.3883 177.318 32.4446 168.368 32.4446Z" fill="url(#paint4_linear_51_2094)"/>
<path fill-rule="evenodd" clip-rule="evenodd" d="M171.79 61.5061C171.96 60.7255 172.62 60.033 173.159 59.4803C173.635 58.9941 174.132 58.5223 174.721 58.1781C175.07 57.9587 175.451 57.7919 175.849 57.6828C178.169 57.125 179.276 59.0921 181.079 60.0465C181.774 60.4155 182.519 60.4815 183.293 60.5092C185.492 63.8632 181.59 67.5341 178.73 68.7306C177.303 69.3287 173.578 74.0632 169.036 68.6206C168.007 67.3901 162.43 67.7626 164.176 61.5082C164.63 59.8719 163.97 57.7872 163.849 56.1026C163.672 53.6325 163.871 50.7596 161.458 49.245C161.077 49.0083 160.673 48.8116 160.252 48.6581C159.954 48.5482 159.613 48.3126 159.329 48.4467C157.236 49.4195 160.677 53.25 155.519 54.8238C155.852 56.5333 154.213 57.7332 152.708 57.9603C150.353 58.3165 147.826 57.2939 146.265 55.5044C144.825 53.851 143.079 51.2773 142.781 49.1421C142.419 46.528 142.547 40.8561 144.974 37.499C146.869 34.8778 149.664 32.8412 152.999 33.0456C152.964 32.3835 153.404 31.7229 153.745 31.1931C154.546 29.9482 155.559 28.8536 156.739 27.9594C158.634 26.5402 160.975 25.4836 163.352 25.3047C166.539 25.065 169.945 26.829 171.329 29.7639C171.932 29.1167 172.847 28.9088 173.684 28.7435C175.735 28.3384 177.665 28.5945 179.489 29.6483C183.441 31.9353 184.804 36.3937 183.136 40.5235C182.54 40.3312 181.845 40.327 181.227 40.2376C179.737 40.0247 184.853 43.1918 174.465 45.0195C171.761 45.4949 167.752 43.4286 165.801 45.9705C164.523 47.6287 165.411 49.6078 165.673 51.4305C165.907 53.0611 165.786 54.728 166.092 56.348C166.525 58.6528 168.291 61.4765 170.768 61.9932L171.79 61.5061Z" fill="url(#paint5_linear_51_2094)"/>
<defs>
<linearGradient id="paint0_linear_51_2094" x1="288.981" y1="148.682" x2="126.035" y2="282.583" gradientUnits="userSpaceOnUse">
<stop stop-color="#E3DBF9"/>
<stop offset="0.54" stop-color="#CCBBFA"/>
<stop offset="1" stop-color="#7848FC"/>
</linearGradient>
<linearGradient id="paint1_linear_51_2094" x1="230.817" y1="134.438" x2="178.585" y2="219.164" gradientUnits="userSpaceOnUse">
<stop stop-color="#E3DBF9"/>
<stop offset="0.54" stop-color="#CCBBFA"/>
<stop offset="1" stop-color="#7848FC"/>
</linearGradient>
<linearGradient id="paint2_linear_51_2094" x1="23.7443" y1="107.187" x2="165.847" y2="223.891" gradientUnits="userSpaceOnUse">
<stop stop-color="#E3DBF9"/>
<stop offset="0.56" stop-color="#CDBDFA"/>
<stop offset="1" stop-color="#7848FC"/>
</linearGradient>
<linearGradient id="paint3_linear_51_2094" x1="152.121" y1="141.128" x2="143.933" y2="218.571" gradientUnits="userSpaceOnUse">
<stop stop-color="#E3E3FE"/>
<stop offset="0.47" stop-color="#D6FBE0"/>
<stop offset="1" stop-color="#4BD16F"/>
</linearGradient>
<linearGradient id="paint4_linear_51_2094" x1="179.455" y1="35.7133" x2="155.182" y2="72.8071" gradientUnits="userSpaceOnUse">
<stop stop-color="#FB9C9A"/>
<stop offset="0.64" stop-color="#FC8886"/>
<stop offset="0.84" stop-color="#FD5450"/>
<stop offset="1" stop-color="#FF1712"/>
</linearGradient>
<linearGradient id="paint5_linear_51_2094" x1="172.225" y1="69.9102" x2="157.184" y2="22.3099" gradientUnits="userSpaceOnUse">
<stop/>
<stop offset="0.53" stop-color="#121212"/>
<stop offset="1" stop-color="#4D4D4D"/>
</linearGradient>
</defs>
</svg>
