<svg width="20" height="18" viewBox="0 0 20 18" fill="none" xmlns="http://www.w3.org/2000/svg">
<path opacity="0.2" d="M19.25 6.14999C16.94 2.51999 13.56 0.429993 10 0.429993C8.22 0.429993 6.49 0.949993 4.91 1.91999C3.33 2.89999 1.91 4.32999 0.75 6.14999C-0.25 7.71999 -0.25 10.27 0.75 11.84C3.06 15.48 6.44 17.56 10 17.56C11.78 17.56 13.51 17.04 15.09 16.07C16.67 15.09 18.09 13.66 19.25 11.84C20.25 10.28 20.25 7.71999 19.25 6.14999ZM10 13.04C7.76 13.04 5.96 11.23 5.96 8.99999C5.96 6.76999 7.76 4.95999 10 4.95999C12.24 4.95999 14.04 6.76999 14.04 8.99999C14.04 11.23 12.24 13.04 10 13.04Z" fill="#4BD16F"/>
<path opacity="0.5" d="M9.85 6C8.28 6 7 7.27999 7 8.85999C7 10.43 8.28 11.71 9.85 11.71C11.42 11.71 12.71 10.43 12.71 8.85999C12.71 7.28999 11.42 6 9.85 6Z" fill="#4BD16F"/>
</svg>
