<svg width="104" height="104" viewBox="0 0 104 104" fill="none" xmlns="http://www.w3.org/2000/svg">
<circle cx="52" cy="52" r="51.5" fill="#E9F5EC" stroke="#4BD16F" stroke-linecap="round" stroke-linejoin="round" stroke-dasharray="4 4"/>
<path opacity="0.4" d="M71.125 47.9275H64.6225C59.29 47.9275 54.9475 43.585 54.9475 38.2525V31.75C54.9475 30.5125 53.935 29.5 52.6975 29.5H43.1575C36.2275 29.5 30.625 34 30.625 42.0325V61.9675C30.625 70 36.2275 74.5 43.1575 74.5H60.8425C67.7725 74.5 73.375 70 73.375 61.9675V50.1775C73.375 48.94 72.3625 47.9275 71.125 47.9275Z" fill="#4BD16F"/>
<path d="M60.5498 29.9725C59.6273 29.05 58.0298 29.68 58.0298 30.9625V38.815C58.0298 42.1 60.8198 44.8225 64.2173 44.8225C66.3548 44.845 69.3248 44.845 71.8673 44.845C73.1498 44.845 73.8248 43.3375 72.9248 42.4375C69.6848 39.175 63.8798 33.3025 60.5498 29.9725Z" fill="#4BD16F"/>
<path d="M50.9427 53.0575L46.4427 48.5575C46.4202 48.535 46.3977 48.535 46.3977 48.5125C46.2627 48.3775 46.0827 48.265 45.9027 48.175C45.8802 48.175 45.8802 48.175 45.8577 48.175C45.6777 48.1075 45.4977 48.085 45.3177 48.0625C45.2502 48.0625 45.2052 48.0625 45.1377 48.0625C45.0027 48.0625 44.8452 48.1075 44.7102 48.1525C44.6427 48.175 44.5977 48.1975 44.5527 48.22C44.3727 48.31 44.1927 48.4 44.0577 48.5575L39.5577 53.0575C38.9052 53.71 38.9052 54.79 39.5577 55.4425C40.2102 56.095 41.2902 56.095 41.9427 55.4425L43.5627 53.8225V63.25C43.5627 64.1725 44.3277 64.9375 45.2502 64.9375C46.1727 64.9375 46.9377 64.1725 46.9377 63.25V53.8225L48.5577 55.4425C48.8952 55.78 49.3227 55.9375 49.7502 55.9375C50.1777 55.9375 50.6052 55.78 50.9427 55.4425C51.5952 54.79 51.5952 53.71 50.9427 53.0575Z" fill="#4BD16F"/>
</svg>
