<svg width="78" height="102" viewBox="0 0 78 102" fill="none" xmlns="http://www.w3.org/2000/svg">
<g filter="url(#filter0_d_153_1073)">
<rect x="7" width="64" height="64" rx="32" fill="#4BD16F"/>
<mask id="mask0_153_1073" style="mask-type:luminance" maskUnits="userSpaceOnUse" x="7" y="0" width="64" height="64">
<rect x="7" width="64" height="64" rx="32" fill="white"/>
</mask>
<g mask="url(#mask0_153_1073)">
</g>
<path d="M34.11 25.96L43.13 22.95C47.18 21.6 49.38 23.81 48.04 27.86L45.03 36.88C43.01 42.95 39.69 42.95 37.67 36.88L36.78 34.2L34.1 33.31C28.04 31.3 28.04 27.99 34.11 25.96Z" fill="#E9F5EC"/>
<path d="M39.12 31.6301L42.93 27.8101L39.12 31.6301Z" fill="#292D32"/>
<path d="M39.1201 32.38C38.9301 32.38 38.7401 32.31 38.5901 32.16C38.3001 31.87 38.3001 31.39 38.5901 31.1L42.3901 27.28C42.6801 26.99 43.1601 26.99 43.4501 27.28C43.7401 27.57 43.7401 28.05 43.4501 28.34L39.6501 32.16C39.5001 32.3 39.3101 32.38 39.1201 32.38Z" fill="#4BD16F"/>
</g>
<defs>
<filter id="filter0_d_153_1073" x="-15" y="-6" width="108" height="108" filterUnits="userSpaceOnUse" color-interpolation-filters="sRGB">
<feFlood flood-opacity="0" result="BackgroundImageFix"/>
<feColorMatrix in="SourceAlpha" type="matrix" values="0 0 0 0 0 0 0 0 0 0 0 0 0 0 0 0 0 0 127 0" result="hardAlpha"/>
<feOffset dy="16"/>
<feGaussianBlur stdDeviation="11"/>
<feColorMatrix type="matrix" values="0 0 0 0 0.294118 0 0 0 0 0.819608 0 0 0 0 0.435294 0 0 0 0.1 0"/>
<feBlend mode="normal" in2="BackgroundImageFix" result="effect1_dropShadow_153_1073"/>
<feBlend mode="normal" in="SourceGraphic" in2="effect1_dropShadow_153_1073" result="shape"/>
</filter>
</defs>
</svg>
