<svg width="54" height="54" viewBox="0 0 54 54" fill="none" xmlns="http://www.w3.org/2000/svg">
<circle cx="27" cy="27" r="26.5" fill="#E9F5EC" stroke="#4BD16F" stroke-linecap="round" stroke-linejoin="round" stroke-dasharray="4 4"/>
<mask id="mask0_426_8720" style="mask-type:alpha" maskUnits="userSpaceOnUse" x="15" y="15" width="24" height="24">
<rect x="15" y="15" width="24" height="24" fill="#D9D9D9"/>
</mask>
<g mask="url(#mask0_426_8720)">
<path d="M20 36C19.45 36 18.979 35.8043 18.587 35.413C18.1957 35.021 18 34.55 18 34V20C18 19.45 18.1957 18.979 18.587 18.587C18.979 18.1957 19.45 18 20 18H29V20H20V34H34V25H36V34C36 34.55 35.8043 35.021 35.413 35.413C35.021 35.8043 34.55 36 34 36H20ZM32 24V22H30V20H32V18H34V20H36V22H34V24H32ZM21 32H33L29.25 27L26.25 31L24 28L21 32Z" fill="#4BD16F"/>
</g>
</svg>
