<svg width="24" height="24" viewBox="0 0 24 24" fill="none" xmlns="http://www.w3.org/2000/svg">
<rect x="3" y="2" width="18" height="20" rx="6" fill="#A6EBB8"/>
<path fill-rule="evenodd" clip-rule="evenodd" d="M7 8C7 6.89543 7.89543 6 9 6H15C16.1046 6 17 6.89543 17 8C17 9.10457 16.1046 10 15 10H9C7.89543 10 7 9.10457 7 8ZM9 13C9 13.5523 8.55228 14 8 14C7.44772 14 7 13.5523 7 13C7 12.4477 7.44772 12 8 12C8.55228 12 9 12.4477 9 13ZM12 14C12.5523 14 13 13.5523 13 13C13 12.4477 12.5523 12 12 12C11.4477 12 11 12.4477 11 13C11 13.5523 11.4477 14 12 14ZM17 13C17 13.5523 16.5523 14 16 14C15.4477 14 15 13.5523 15 13C15 12.4477 15.4477 12 16 12C16.5523 12 17 12.4477 17 13ZM8 18C8.55228 18 9 17.5523 9 17C9 16.4477 8.55228 16 8 16C7.44772 16 7 16.4477 7 17C7 17.5523 7.44772 18 8 18ZM13 17C13 17.5523 12.5523 18 12 18C11.4477 18 11 17.5523 11 17C11 16.4477 11.4477 16 12 16C12.5523 16 13 16.4477 13 17ZM16 18C16.5523 18 17 17.5523 17 17C17 16.4477 16.5523 16 16 16C15.4477 16 15 16.4477 15 17C15 17.5523 15.4477 18 16 18Z" fill="black"/>
</svg>
