<svg width="24" height="24" viewBox="0 0 24 24" fill="none" xmlns="http://www.w3.org/2000/svg">
<path opacity="0.2" d="M15.01 14.75V21.99L3.01001 22.01V14.75L3 13.25V7.06998C3 6.39998 3.34001 5.77995 3.89001 5.40995L7.89001 2.73997C8.56001 2.28997 9.43999 2.28997 10.11 2.73997L14.11 5.40995C14.67 5.77995 15 6.39998 15 7.06998V13.25L15.01 14.75Z" fill="#4BD16F"/>
<path opacity="0.5" d="M22 21.25H20.73V18.25C21.68 17.94 22.37 17.05 22.37 16V14C22.37 12.69 21.3 11.62 19.99 11.62C18.68 11.62 17.61 12.69 17.61 14V16C17.61 17.04 18.29 17.92 19.22 18.24V21.25H2C1.59 21.25 1.25 21.59 1.25 22C1.25 22.41 1.59 22.75 2 22.75H19.93C19.95 22.75 19.96 22.76 19.98 22.76C20 22.76 20.01 22.75 20.03 22.75H22C22.41 22.75 22.75 22.41 22.75 22C22.75 21.59 22.41 21.25 22 21.25Z" fill="#4BD16F"/>
<path opacity="0.5" d="M15.01 14.75H3.01001L3 13.25H15L15.01 14.75Z" fill="#4BD16F"/>
<path opacity="0.5" d="M9 22.75C8.59 22.75 8.25 22.41 8.25 22V18.25C8.25 17.84 8.59 17.5 9 17.5C9.41 17.5 9.75 17.84 9.75 18.25V22C9.75 22.41 9.41 22.75 9 22.75Z" fill="#4BD16F"/>
<path opacity="0.5" d="M9 10.75C9.9665 10.75 10.75 9.9665 10.75 9C10.75 8.0335 9.9665 7.25 9 7.25C8.0335 7.25 7.25 8.0335 7.25 9C7.25 9.9665 8.0335 10.75 9 10.75Z" fill="#4BD16F"/>
</svg>
