<svg width="24" height="24" viewBox="0 0 24 24" fill="none" xmlns="http://www.w3.org/2000/svg">
<path d="M16.1899 8.85999C15.7999 8.85999 15.4899 8.54999 15.4899 8.15999V6.87999C15.4899 5.89999 15.0699 4.95999 14.3499 4.29999C13.6099 3.62999 12.6599 3.31999 11.6599 3.40999C9.97986 3.56999 8.50986 5.27999 8.50986 7.05999V7.95999C8.50986 8.34999 8.19986 8.65999 7.80986 8.65999C7.41986 8.65999 7.10986 8.34999 7.10986 7.95999V7.05999C7.10986 4.55999 9.12986 2.24999 11.5199 2.01999C12.9099 1.88999 14.2499 2.32999 15.2799 3.26999C16.2999 4.18999 16.8799 5.50999 16.8799 6.87999V8.15999C16.8799 8.54999 16.5699 8.85999 16.1899 8.85999Z" fill="#4BD16F"/>
<path d="M19.9602 8.95999C19.1202 8.02999 17.7402 7.57999 15.7202 7.57999H8.28023C6.26023 7.57999 4.88023 8.02999 4.04023 8.95999C3.07023 10.04 3.10023 11.48 3.21023 12.48L3.91023 18.05C4.12023 20 4.91023 22 9.21023 22H14.7902C19.0902 22 19.8802 20 20.0902 18.06L20.7902 12.47C20.9002 11.48 20.9302 10.04 19.9602 8.95999ZM12.0002 18.58C9.91023 18.58 8.21023 16.88 8.21023 14.79C8.21023 12.7 9.91023 11 12.0002 11C14.0902 11 15.7902 12.7 15.7902 14.79C15.7902 16.88 14.0902 18.58 12.0002 18.58Z" fill="#4BD16F"/>
<path d="M12 18.58C14.0931 18.58 15.79 16.8832 15.79 14.79C15.79 12.6968 14.0931 11 12 11C9.9068 11 8.20996 12.6968 8.20996 14.79C8.20996 16.8832 9.9068 18.58 12 18.58Z" fill="#4BD16F"/>
<path d="M12.3056 19.9578C12.1389 20.0141 11.8519 20.0141 11.6852 19.9578C10.2407 19.4612 7 17.3717 7 13.8298C7 12.265 8.24074 11 9.77778 11C10.6852 11 11.4907 11.4404 12 12.1338C12.5 11.4498 13.3148 11 14.2222 11C15.7593 11 17 12.265 17 13.8298C17 17.3717 13.7593 19.4612 12.3056 19.9578Z" fill="white"/>
</svg>
