<svg width="195" height="149" viewBox="0 0 195 149" fill="none" xmlns="http://www.w3.org/2000/svg">
<path d="M31.7936 43.5549C38.6074 43.5549 44.1311 38.0436 44.1311 31.2451C44.1311 24.4466 38.6074 18.9354 31.7936 18.9354C24.9797 18.9354 19.4561 24.4466 19.4561 31.2451C19.4561 38.0436 24.9797 43.5549 31.7936 43.5549Z" fill="white"/>
<path d="M31.7937 43.8667C29.2915 43.8679 26.8451 43.1287 24.764 41.7426C22.6829 40.3565 21.0606 38.3857 20.1022 36.0795C19.1438 33.7733 18.8924 31.2354 19.3798 28.7866C19.8672 26.3378 21.0715 24.0883 22.8403 22.3225C24.6092 20.5568 26.8632 19.354 29.3173 18.8665C31.7713 18.379 34.3151 18.6286 36.627 19.5837C38.9388 20.5388 40.9148 22.1566 42.3051 24.2323C43.6954 26.308 44.4375 28.7485 44.4375 31.2451C44.4342 34.5905 43.1012 37.798 40.7309 40.1641C38.3606 42.5302 35.1466 43.8617 31.7937 43.8667ZM31.7937 19.2534C29.4149 19.2522 27.0891 19.9549 25.1106 21.2728C23.1322 22.5907 21.5899 24.4645 20.679 26.657C19.7681 28.8496 19.5294 31.2625 19.9932 33.5905C20.457 35.9185 21.6024 38.0569 23.2845 39.7352C24.9666 41.4135 27.1098 42.5563 29.443 43.0191C31.7762 43.4818 34.1946 43.2437 36.3921 42.3348C38.5897 41.426 40.4676 39.8872 41.7885 37.9132C43.1093 35.9392 43.8137 33.6186 43.8125 31.2451C43.8075 28.0662 42.5396 25.019 40.2868 22.7711C38.0339 20.5233 34.9798 19.2583 31.7937 19.2534Z" fill="#D1D3D4"/>
<path d="M118.194 56.7252L159.075 71.0117L137.606 76.5056L112.456 64.1023L118.194 56.7252Z" fill="#21333B"/>
<path d="M137.625 76.78C137.586 76.7893 137.545 76.7893 137.506 76.78L112.356 64.3767C112.319 64.3585 112.286 64.3323 112.26 64.2999C112.234 64.2676 112.216 64.2299 112.206 64.1896C112.197 64.1498 112.197 64.1086 112.206 64.0688C112.214 64.0289 112.231 63.9914 112.256 63.9589L117.975 56.5506C118.011 56.5052 118.061 56.472 118.116 56.4553C118.172 56.4386 118.232 56.4392 118.287 56.457L159.169 70.7436C159.224 70.7637 159.272 70.8013 159.305 70.8507C159.338 70.9002 159.353 70.9589 159.35 71.018C159.347 71.0763 159.326 71.1322 159.289 71.1772C159.251 71.2222 159.2 71.2539 159.144 71.2674L137.675 76.7675L137.625 76.78ZM112.881 64.0337L137.625 76.2125L158.112 70.9681L118.294 57.0495L112.881 64.0337Z" fill="#231F20"/>
<path d="M70.2998 104.256C70.2998 104.256 48.6248 110.81 37.8311 104.256C37.8311 104.256 46.0811 114.532 57.3061 113.385C68.5311 112.238 70.2998 104.256 70.2998 104.256Z" fill="#8FE9A7"/>
<path d="M77.8561 98.5746C77.8561 98.5746 61.3373 114.545 42.5811 110.342C16.5373 104.542 -3.52516 73.6433 13.9123 34.8869C13.9123 34.8869 -4.21266 61.1527 5.16234 90.4492C18.0123 130.553 49.0498 128.894 80.6498 120.706" fill="#8FE9A7"/>
<path d="M122.769 26.4247C122.769 26.4247 118.05 47.8577 118.194 56.7252C118.194 57.1617 119.6 58.253 119.631 58.596C120.312 66.5094 94.7311 59.8432 94.7311 59.8432C94.7311 59.8432 93.7811 43.0622 95.6874 37.057C97.5936 31.0518 99.6374 29.736 99.6374 29.736C99.6374 29.736 116.75 23.0261 119.756 23.9678C122.762 24.9094 122.769 26.4247 122.769 26.4247Z" fill="white"/>
<path d="M113.587 35.5729L146.131 18.5425L143.537 10.1988L108.737 27.7966L113.587 35.5729Z" fill="white"/>
<path d="M67.2063 104.499C67.2063 104.499 66.725 107.972 69.5125 114.95C72.3 121.928 75.0438 124.111 75.0438 124.111L84.9563 122.864L75.2375 98.5435L67.2063 104.499Z" fill="#231F20"/>
<path d="M75.0436 124.385C74.9826 124.386 74.9233 124.366 74.8748 124.329C74.7623 124.236 72.0373 122.016 69.2498 115.05C66.4623 108.084 66.9061 104.605 66.9248 104.449C66.9302 104.413 66.943 104.378 66.9623 104.347C66.9817 104.316 67.0072 104.289 67.0373 104.268L75.0686 98.3439C75.102 98.3187 75.1409 98.3016 75.1821 98.294C75.2234 98.2864 75.2658 98.2885 75.3061 98.3003C75.3471 98.3107 75.3851 98.3309 75.4167 98.3591C75.4482 98.3873 75.4725 98.4228 75.4873 98.4624L85.2061 122.783C85.2243 122.821 85.2338 122.862 85.2338 122.904C85.2338 122.946 85.2243 122.988 85.2061 123.026C85.1848 123.061 85.1557 123.091 85.1211 123.114C85.0865 123.137 85.0471 123.151 85.0061 123.157L75.0936 124.373L75.0436 124.385ZM67.4686 104.648C67.4186 105.272 67.3123 108.714 69.7686 114.844C72.2248 120.974 74.6561 123.394 75.1311 123.824L84.5686 122.67L75.1248 99.0049L67.4686 104.648Z" fill="#231F20"/>
<path d="M116.537 120.706C116.537 120.706 113.775 128.644 104.938 136.09C96.1 143.536 73.8438 147.938 73.8438 147.938L86.0438 122.49L116.537 120.706Z" fill="white"/>
<path d="M73.875 148.219C73.828 148.219 73.7815 148.209 73.7393 148.188C73.697 148.168 73.66 148.138 73.6313 148.101C73.595 148.054 73.5724 147.999 73.5657 147.941C73.5591 147.882 73.5688 147.823 73.5938 147.77L85.75 122.327C85.7743 122.278 85.8114 122.235 85.8575 122.205C85.9037 122.174 85.9572 122.156 86.0125 122.153L116.506 120.394C116.558 120.39 116.61 120.399 116.657 120.421C116.704 120.443 116.745 120.477 116.775 120.519C116.806 120.559 116.826 120.606 116.835 120.656C116.844 120.706 116.84 120.757 116.825 120.806C116.794 120.887 113.931 128.913 105.125 136.327C96.3188 143.742 74.1188 148.175 73.875 148.219ZM86.2813 122.758L74.4063 147.477C78.05 146.704 96.9062 142.488 104.744 135.847C112.244 129.536 115.369 122.801 116.075 121.037L86.2813 122.758Z" fill="#231F20"/>
<path d="M99.6624 78.4824C99.6624 78.4824 92.2 75.8384 80.65 76.5056C69.1 77.1729 49.9187 88.0546 49.9187 88.0546L76.325 98.1444L99.6624 78.4824Z" fill="white"/>
<path d="M76.3248 98.4562C76.2875 98.462 76.2496 98.462 76.2123 98.4562L49.806 88.3539C49.7514 88.3316 49.704 88.2948 49.6688 88.2476C49.6335 88.2003 49.6118 88.1444 49.606 88.0858C49.6018 88.0272 49.6142 87.9686 49.6418 87.9168C49.6695 87.8649 49.7112 87.8219 49.7623 87.7927C49.956 87.6805 69.1373 76.8611 80.631 76.2001C92.1248 75.5391 99.6935 78.1644 99.7623 78.1893C99.8152 78.2069 99.8625 78.2384 99.8991 78.2804C99.9357 78.3224 99.9604 78.3734 99.9707 78.4281C99.9809 78.4828 99.9762 78.5393 99.9571 78.5916C99.9381 78.6439 99.9053 78.6902 99.8623 78.7256L76.5248 98.3876C76.467 98.4308 76.397 98.4548 76.3248 98.4562ZM50.656 88.0047L76.2811 97.7827L99.0435 78.6071C97.1685 78.0397 90.2935 76.2562 80.6873 76.8174C70.4373 77.4098 53.9498 86.1963 50.656 88.0047Z" fill="#231F20"/>
<path d="M70.3187 96.1301C80.0249 86.639 95.6812 76.8673 114.462 69.3904C142.925 58.0659 164.006 67.8376 170.987 71.9534C171.746 72.4009 172.335 73.0867 172.662 73.9035C172.989 74.7204 173.035 75.6223 172.794 76.4682C170.569 84.2507 162.006 105.808 133.544 117.133C114.762 124.616 96.6686 128.27 83.0812 128.046C83.0812 128.046 78.7062 124.186 74.2499 113.079C69.7937 101.973 70.3187 96.1301 70.3187 96.1301Z" fill="white"/>
<path d="M84.2499 128.37H83.0749C82.9994 128.371 82.9261 128.344 82.8687 128.295C82.6874 128.133 78.3812 124.254 73.9624 113.192C69.5437 102.129 69.9874 96.3546 70.0062 96.1114C70.014 96.0381 70.0472 95.9698 70.0999 95.9181C80.175 86.0653 96.2999 76.2936 114.35 69.1036C142.606 57.8789 163.481 67.1642 171.15 71.6852C171.967 72.1682 172.6 72.9072 172.952 73.7871C173.303 74.6669 173.353 75.6382 173.094 76.5493C170.65 85.0988 161.919 106.182 133.662 117.426C116.112 124.41 98.1937 128.37 84.2499 128.37ZM83.2062 127.746C97.1937 127.933 115.512 124.005 133.431 116.852C161.431 105.709 170.075 84.8431 172.494 76.3871C172.715 75.608 172.672 74.7777 172.371 74.0254C172.071 73.2732 171.529 72.6412 170.831 72.2278C163.244 67.7566 142.575 58.5461 114.581 69.6897C96.6624 76.8174 80.6499 86.5268 70.6249 96.2736C70.5874 97.1279 70.5125 102.871 74.5437 112.955C78.575 123.038 82.5874 127.142 83.2062 127.74V127.746Z" fill="#231F20"/>
<path d="M172.794 76.4682C169.877 86.0897 164.571 94.8199 157.369 101.849C157.369 101.849 151.3 97.7079 146.025 84.5001C140.75 71.2924 142.275 64.1273 142.275 64.1273C152.348 64.2781 162.219 66.9704 170.969 71.9534C171.731 72.3981 172.324 73.0827 172.654 73.8998C172.984 74.7169 173.034 75.6203 172.794 76.4682Z" fill="white"/>
<path d="M157.369 102.16C157.306 102.159 157.245 102.14 157.194 102.104C156.944 101.93 150.987 97.739 145.731 84.6435C140.475 71.5481 141.925 64.3829 141.981 64.0649C141.997 63.995 142.035 63.9324 142.091 63.8871C142.146 63.8418 142.216 63.8166 142.287 63.8155C152.417 63.9571 162.344 66.6651 171.137 71.6852C171.954 72.1682 172.588 72.9072 172.939 73.7871C173.291 74.6669 173.341 75.6382 173.081 76.5493C170.177 86.2254 164.859 95.0076 157.625 102.073C157.591 102.105 157.551 102.13 157.507 102.145C157.462 102.16 157.415 102.165 157.369 102.16ZM142.556 64.4453C142.356 65.8235 141.681 72.7952 146.306 84.4003C150.931 96.0054 156.237 100.614 157.337 101.449C164.414 94.4976 169.624 85.8812 172.487 76.3934C172.709 75.6142 172.666 74.7839 172.365 74.0317C172.064 73.2794 171.523 72.6474 170.825 72.234C162.208 67.3085 152.485 64.6298 142.556 64.4453Z" fill="#231F20"/>
<path d="M74.6624 94.7957C74.6176 94.7953 74.5734 94.7857 74.5325 94.7674C74.4917 94.7492 74.455 94.7227 74.4249 94.6897C74.3981 94.6588 74.3777 94.6229 74.3651 94.584C74.3524 94.5452 74.3477 94.5042 74.3512 94.4635C74.3547 94.4228 74.3663 94.3832 74.3854 94.3471C74.4045 94.311 74.4307 94.279 74.4624 94.2532C81.487 88.5194 88.8548 83.2173 96.5249 78.3764C96.5957 78.3341 96.6802 78.3208 96.7607 78.3394C96.8411 78.358 96.9112 78.4071 96.9561 78.4762C96.9778 78.5105 96.9924 78.5488 96.9991 78.5887C97.0058 78.6287 97.0045 78.6697 96.9951 78.7091C96.9858 78.7486 96.9688 78.7858 96.9449 78.8186C96.921 78.8514 96.8908 78.8792 96.8561 78.9002C89.2137 83.727 81.8692 89.008 74.8624 94.7146C74.8078 94.765 74.7367 94.7938 74.6624 94.7957Z" fill="white"/>
<path d="M98.6373 127.198C98.5588 127.198 98.4829 127.169 98.4248 127.117C98.3373 127.036 89.8935 119.01 85.6998 108.509C81.506 98.0072 82.0935 86.3834 82.0998 86.2711C82.1005 86.2293 82.1098 86.1881 82.1271 86.1501C82.1444 86.112 82.1694 86.0779 82.2004 86.0499C82.2315 86.0218 82.2679 86.0004 82.3076 85.987C82.3473 85.9735 82.3893 85.9684 82.431 85.9718C82.5134 85.9782 82.59 86.0162 82.6448 86.0779C82.6996 86.1395 82.7283 86.22 82.7248 86.3023C82.7248 86.4145 82.1435 97.9199 86.281 108.278C90.4185 118.636 98.781 126.58 98.856 126.661C98.8853 126.69 98.9086 126.725 98.9244 126.763C98.9403 126.801 98.9485 126.842 98.9485 126.883C98.9485 126.924 98.9403 126.965 98.9244 127.003C98.9086 127.041 98.8853 127.075 98.856 127.104C98.798 127.162 98.7196 127.196 98.6373 127.198Z" fill="#231F20"/>
<path d="M170.125 71.1801C170.125 71.1801 182.137 68.0622 182.85 69.8456C183.562 71.6291 172.7 77.6156 172.7 77.6156" fill="#231F20"/>
<path d="M172.7 77.89C172.64 77.8884 172.582 77.8675 172.536 77.8302C172.489 77.793 172.456 77.7416 172.441 77.6838C172.426 77.626 172.43 77.5649 172.453 77.5098C172.477 77.4548 172.517 77.4087 172.569 77.3787C177.694 74.5475 182.987 70.9058 182.569 69.9454C182.15 68.9851 175.831 69.9766 170.169 71.4483C170.133 71.4573 170.097 71.4593 170.061 71.4541C170.025 71.449 169.99 71.4368 169.959 71.4182C169.927 71.3997 169.9 71.3752 169.878 71.3461C169.856 71.317 169.84 71.2839 169.831 71.2487C169.822 71.2135 169.82 71.1769 169.825 71.1409C169.83 71.1049 169.843 71.0703 169.861 71.039C169.88 71.0078 169.904 70.9804 169.934 70.9587C169.963 70.9369 169.996 70.921 170.031 70.912C172.906 70.1699 182.337 67.8876 183.081 69.7459C183.825 71.6042 175.406 76.4246 172.806 77.8526C172.773 77.8709 172.737 77.8836 172.7 77.89Z" fill="#231F20"/>
<path d="M171.194 78.7443C169.548 76.6161 168.531 74.072 168.256 71.3984C168.239 70.9774 168.381 70.5654 168.654 70.2442C168.927 69.923 169.312 69.7161 169.731 69.6648C169.91 69.6239 170.095 69.6197 170.276 69.6523C170.456 69.6849 170.628 69.7537 170.781 69.8546C170.934 69.9554 171.065 70.0862 171.166 70.239C171.267 70.3918 171.336 70.5635 171.369 70.7436C171.601 73.046 172.469 75.2391 173.875 77.0793C173.977 77.2317 174.046 77.4033 174.08 77.5835C174.113 77.7637 174.109 77.9488 174.068 78.1274C174.027 78.3061 173.95 78.4745 173.841 78.6224C173.733 78.7702 173.596 78.8945 173.437 78.9875C173.1 79.2333 172.683 79.3446 172.268 79.2996C171.853 79.2546 171.47 79.0566 171.194 78.7443Z" fill="white"/>
<path d="M172.437 79.6236C172.152 79.6285 171.868 79.5682 171.609 79.4471C171.351 79.3261 171.123 79.1475 170.944 78.9252C169.272 76.7542 168.234 74.1645 167.944 71.4421C167.915 70.9385 168.08 70.443 168.405 70.0569C168.731 69.6709 169.192 69.4235 169.694 69.3655C169.942 69.3268 170.195 69.3384 170.439 69.3995C170.683 69.4605 170.912 69.5698 171.112 69.7209C171.271 69.8407 171.403 69.9915 171.501 70.1642C171.599 70.3369 171.66 70.5277 171.681 70.7249C171.917 72.9725 172.772 75.1112 174.15 76.9047C174.271 77.0617 174.358 77.2418 174.407 77.4338C174.455 77.6258 174.463 77.8256 174.431 78.021C174.391 78.2712 174.301 78.5108 174.166 78.7252C174.03 78.9396 173.853 79.1243 173.644 79.2682C173.289 79.5106 172.867 79.635 172.437 79.6236ZM169.981 69.9517H169.775C169.435 69.992 169.123 70.1578 168.9 70.4163C168.677 70.6748 168.558 71.0074 168.569 71.3485C168.845 73.9626 169.837 76.4504 171.437 78.5386C171.666 78.7921 171.981 78.9512 172.321 78.9847C172.661 79.0181 173.001 78.9235 173.275 78.7194C173.415 78.6264 173.535 78.506 173.627 78.3657C173.72 78.2253 173.783 78.0678 173.812 77.9025C173.829 77.7934 173.824 77.6821 173.797 77.5751C173.77 77.4681 173.722 77.3674 173.656 77.2789C172.207 75.3929 171.307 73.1444 171.056 70.781C171.043 70.6677 171.008 70.5581 170.952 70.4585C170.896 70.359 170.821 70.2714 170.731 70.2011C170.516 70.0385 170.251 69.9528 169.981 69.9579V69.9517Z" fill="#231F20"/>
<path d="M101.119 121.91C101.036 121.915 100.954 121.886 100.892 121.831C100.83 121.777 100.792 121.699 100.787 121.616C100.782 121.534 100.811 121.453 100.866 121.391C100.921 121.329 100.998 121.291 101.081 121.286C101.362 121.255 129.237 117.919 151.431 99.9777C151.495 99.926 151.577 99.9016 151.659 99.9098C151.741 99.918 151.816 99.9581 151.869 100.021C151.919 100.087 151.943 100.169 151.935 100.251C151.927 100.334 151.887 100.41 151.825 100.464C129.487 118.548 101.437 121.872 101.156 121.903L101.119 121.91Z" fill="black"/>
<path d="M114.075 22.5522C114.63 22.3178 115.076 21.8837 115.325 21.3362C116.356 19.7513 116.916 17.9066 116.937 16.0169C116.882 13.2489 115.748 10.6113 113.776 8.66352C111.804 6.71577 109.149 5.61122 106.375 5.5842L108.587 7.38015C106.691 7.30574 104.806 7.69732 103.097 8.52046C101.388 9.3436 99.9082 10.5731 98.7873 12.1008C99.5364 11.8825 100.337 11.9198 101.062 12.2068C99.9315 12.5004 98.8192 12.8607 97.7311 13.2856C97.5584 13.3325 97.4052 13.433 97.2936 13.5724C97.2026 13.7681 97.1892 13.9909 97.2561 14.196C98.0561 17.9064 100.844 21.33 104.562 22.1157C105.187 22.2466 105.812 22.3028 106.481 22.3838C107.9 22.5647 109.3 22.864 110.731 22.9388C111.629 23.0026 112.532 22.9375 113.412 22.7455C113.637 22.6948 113.858 22.6303 114.075 22.5522Z" fill="white"/>
<path d="M111.375 23.2569H110.675C109.74 23.1906 108.81 23.0761 107.887 22.9139C107.394 22.8391 106.9 22.7642 106.406 22.7019L105.944 22.6457C105.456 22.5834 104.956 22.5273 104.462 22.4213C100.844 21.6605 97.8249 18.3928 96.9624 14.3145C96.9153 14.1746 96.8977 14.0266 96.9106 13.8796C96.9235 13.7326 96.9667 13.5898 97.0374 13.4602C97.1791 13.271 97.3788 13.133 97.6061 13.0673C98.3436 12.7742 99.0936 12.5186 99.8499 12.2878C99.5117 12.2783 99.1742 12.3225 98.8499 12.4188C98.7932 12.4353 98.7328 12.434 98.6769 12.415C98.621 12.396 98.5723 12.3603 98.5374 12.3128C98.5035 12.2631 98.4854 12.2045 98.4854 12.1444C98.4854 12.0844 98.5035 12.0257 98.5374 11.976C99.6073 10.526 100.993 9.33667 102.589 8.49747C104.186 7.65826 105.952 7.19097 107.756 7.13071L106.175 5.8461C106.13 5.80797 106.098 5.75725 106.082 5.70053C106.066 5.64381 106.068 5.58372 106.087 5.52807C106.109 5.47279 106.147 5.42532 106.196 5.39192C106.245 5.35852 106.303 5.34076 106.362 5.34099C109.207 5.36919 111.929 6.49803 113.955 8.48959C115.981 10.4812 117.154 13.1799 117.225 16.0169C117.211 17.9686 116.636 19.8753 115.569 21.5108C115.288 22.1122 114.794 22.5879 114.181 22.8453C113.95 22.9387 113.712 23.0117 113.469 23.0636C112.781 23.2097 112.078 23.2746 111.375 23.2569ZM99.7624 11.6518C100.24 11.6533 100.712 11.7443 101.156 11.9199C101.212 11.9438 101.259 11.984 101.291 12.0353C101.324 12.0865 101.34 12.1463 101.337 12.2068C101.332 12.2658 101.309 12.3219 101.271 12.3675C101.233 12.4132 101.182 12.4463 101.125 12.4624C100.002 12.7512 98.8974 13.1094 97.8186 13.535C97.7472 13.5373 97.6778 13.5592 97.6181 13.5984C97.5583 13.6376 97.5106 13.6925 97.4802 13.757C97.4498 13.8215 97.4379 13.8932 97.4458 13.9641C97.4537 14.035 97.4811 14.1023 97.5249 14.1586C98.3624 18.0499 101.206 21.1429 104.606 21.86C105.075 21.9598 105.562 22.0159 106.031 22.072L106.506 22.1282C107 22.1905 107.5 22.2716 108 22.3464C108.904 22.5058 109.815 22.6182 110.731 22.6832C111.603 22.7486 112.479 22.6835 113.331 22.4898C113.544 22.4427 113.754 22.378 113.956 22.2965C114.454 22.0893 114.853 21.6984 115.069 21.2052C116.079 19.6605 116.63 17.8614 116.656 16.0169C116.602 13.4711 115.611 11.0342 113.872 9.17091C112.132 7.30766 109.766 6.14855 107.225 5.9147L108.756 7.16189C108.802 7.20048 108.835 7.25228 108.851 7.31028C108.867 7.36828 108.864 7.42967 108.844 7.48616C108.825 7.54424 108.787 7.59407 108.736 7.62708C108.684 7.66009 108.623 7.67421 108.562 7.667C106.839 7.60724 105.124 7.93813 103.546 8.63478C101.969 9.33143 100.571 10.3757 99.4561 11.6892L99.7624 11.6518Z" fill="#231F20"/>
<path d="M106.456 28.1521C106.456 28.1521 106.569 34.6749 109.644 34.8807C112.719 35.0865 112.769 29.1124 112.769 29.1124" fill="#231F20"/>
<path d="M109.794 35.1613H109.625C106.331 34.943 106.181 28.4389 106.175 28.1646C106.169 28.1246 106.172 28.0839 106.183 28.0451C106.194 28.0063 106.214 27.9704 106.24 27.9398C106.266 27.9092 106.299 27.8846 106.336 27.8678C106.373 27.8509 106.413 27.8422 106.453 27.8422C106.494 27.8422 106.534 27.8509 106.57 27.8678C106.607 27.8846 106.64 27.9092 106.666 27.9398C106.693 27.9704 106.712 28.0063 106.723 28.0451C106.735 28.0839 106.737 28.1246 106.731 28.1646C106.731 28.2269 106.875 34.4317 109.662 34.6188C109.905 34.6408 110.149 34.6099 110.378 34.528C110.606 34.4461 110.815 34.3154 110.988 34.1448C112.45 32.7979 112.519 29.1561 112.519 29.1187C112.523 29.048 112.554 28.9815 112.605 28.932C112.655 28.8825 112.723 28.8534 112.794 28.8505C112.867 28.8505 112.937 28.8794 112.988 28.9309C113.04 28.9823 113.069 29.0521 113.069 29.1249C113.069 29.287 113 33.0411 111.363 34.5502C110.938 34.9477 110.376 35.1666 109.794 35.1613Z" fill="#231F20"/>
<path d="M112.506 24.9967L112.794 29.1124C112.794 29.1124 112.525 31.4322 109.969 30.8897C109.216 30.7225 108.51 30.39 107.903 29.9165C107.295 29.4429 106.801 28.8402 106.456 28.1521C106.456 28.1521 105.831 18.2993 105.6 15.6802C107.436 15.4616 109.205 14.8603 110.794 13.9154C111.029 13.735 111.288 13.5862 111.562 13.4727C112.075 13.3978 112.012 13.6847 112.237 14.0963C112.648 14.8839 113.307 15.515 114.112 15.8922C114.215 15.9263 114.306 15.989 114.375 16.0731C114.414 16.1417 114.435 16.2188 114.437 16.2976C114.7 18.6485 115.181 20.987 114.844 23.3504C114.569 25.3709 112.506 24.9967 112.506 24.9967Z" fill="white"/>
<path d="M110.7 31.2576C110.435 31.2581 110.171 31.2288 109.912 31.1703C109.114 30.9977 108.364 30.6472 107.72 30.1451C107.077 29.643 106.555 29.0022 106.194 28.2706C106.188 28.2376 106.188 28.2038 106.194 28.1708C106.194 28.071 105.569 18.2931 105.344 15.6989C105.338 15.622 105.363 15.5461 105.412 15.4869C105.436 15.4585 105.466 15.4355 105.499 15.4194C105.533 15.4033 105.569 15.3944 105.606 15.3933C107.401 15.1769 109.13 14.5862 110.681 13.6598L110.894 13.5226C111.075 13.3669 111.289 13.252 111.519 13.1858C111.611 13.1619 111.707 13.1569 111.801 13.1712C111.895 13.1855 111.985 13.2187 112.066 13.2689C112.146 13.3191 112.216 13.3852 112.27 13.4631C112.324 13.541 112.362 13.6291 112.381 13.7221C112.411 13.8123 112.449 13.8999 112.494 13.984C112.87 14.7175 113.482 15.3038 114.231 15.649C114.387 15.7053 114.522 15.8075 114.619 15.9421C114.679 16.047 114.713 16.1645 114.719 16.2851C114.775 16.7902 114.844 17.2953 114.906 17.7942C115.239 19.6458 115.313 21.5347 115.125 23.4065C115.099 23.6921 115.014 23.9692 114.875 24.2204C114.736 24.4715 114.547 24.6912 114.319 24.8657C113.872 25.1581 113.346 25.3062 112.812 25.2898L113.075 29.0688C113.035 29.4124 112.927 29.7448 112.758 30.0466C112.588 30.3485 112.36 30.6138 112.087 30.8273C111.683 31.1154 111.197 31.2662 110.7 31.2576ZM106.737 28.0835C107.069 28.7188 107.536 29.2745 108.105 29.7117C108.673 30.1489 109.331 30.4573 110.031 30.6153C110.297 30.7112 110.581 30.746 110.862 30.717C111.143 30.688 111.414 30.596 111.654 30.4479C111.895 30.2997 112.098 30.0993 112.25 29.8616C112.402 29.6239 112.498 29.355 112.531 29.075L112.244 25.0216C112.24 24.9791 112.246 24.9363 112.261 24.8964C112.276 24.8565 112.3 24.8205 112.331 24.7909C112.364 24.761 112.402 24.7387 112.445 24.7257C112.487 24.7128 112.531 24.7095 112.575 24.7161C113.07 24.7893 113.575 24.6855 114 24.423C114.165 24.2919 114.302 24.1286 114.402 23.9432C114.502 23.7577 114.563 23.5539 114.581 23.3442C114.752 21.5238 114.679 19.6887 114.362 17.8877C114.294 17.3826 114.231 16.8775 114.175 16.3662C114.175 16.3662 114.175 16.2788 114.175 16.2601L114.044 16.1915C113.165 15.7967 112.445 15.1179 112 14.2646C111.946 14.1613 111.898 14.0551 111.856 13.9466C111.835 13.882 111.807 13.8194 111.775 13.7595C111.723 13.754 111.671 13.754 111.619 13.7595C111.47 13.8201 111.331 13.902 111.206 14.0027C111.106 14.0651 111.019 14.1337 110.944 14.1711C109.409 15.0807 107.71 15.6823 105.944 15.9421C106.131 18.7732 106.687 27.3102 106.737 28.0835Z" fill="#231F20"/>
<path d="M112.625 27.0234C111.611 27.1036 110.605 26.7934 109.812 26.1566C109.488 25.8922 109.225 25.5606 109.042 25.1849C108.858 24.8091 108.759 24.3981 108.75 23.9802C109.897 24.6214 111.185 24.9705 112.5 24.9967L112.625 27.0234Z" fill="#231F20"/>
<path d="M112.312 27.3102C111.326 27.3298 110.366 26.9907 109.612 26.3561C109.258 26.0644 108.971 25.699 108.773 25.2854C108.574 24.8719 108.468 24.4201 108.462 23.9615C108.468 23.9149 108.484 23.8701 108.51 23.831C108.536 23.792 108.571 23.7597 108.612 23.737C108.653 23.7141 108.7 23.7021 108.747 23.7021C108.794 23.7021 108.84 23.7141 108.881 23.737C109.984 24.3644 111.225 24.7113 112.494 24.7473C112.566 24.747 112.635 24.7738 112.689 24.8223C112.742 24.8708 112.775 24.9375 112.781 25.0092L112.887 27.0296C112.893 27.0998 112.87 27.1692 112.824 27.2228C112.779 27.2765 112.714 27.3101 112.644 27.3165C112.533 27.3239 112.422 27.3218 112.312 27.3102ZM109.062 24.4542C109.208 25.035 109.529 25.5573 109.981 25.9508C110.64 26.4917 111.472 26.7773 112.325 26.7552L112.244 25.2773C111.138 25.2247 110.055 24.9444 109.062 24.4542Z" fill="#231F20"/>
<path d="M111.875 17.6944C111.875 17.6944 113.325 19.5652 113.031 19.9518C112.737 20.3384 111.844 20.1451 111.844 20.1451" fill="white"/>
<path d="M112.3 20.4632C112.13 20.4648 111.96 20.448 111.794 20.4133C111.758 20.4067 111.724 20.3932 111.693 20.3735C111.663 20.3539 111.637 20.3284 111.616 20.2986C111.595 20.2687 111.581 20.2352 111.573 20.1997C111.566 20.1643 111.565 20.1278 111.572 20.0921C111.578 20.0565 111.592 20.0225 111.612 19.9921C111.631 19.9617 111.657 19.9355 111.687 19.9149C111.717 19.8944 111.75 19.8799 111.786 19.8723C111.821 19.8647 111.858 19.8642 111.894 19.8708C112.2 19.9331 112.694 19.9331 112.819 19.7772C112.529 19.0926 112.137 18.4556 111.656 17.8877C111.634 17.8591 111.617 17.8264 111.608 17.7914C111.598 17.7565 111.596 17.72 111.6 17.684C111.605 17.6481 111.617 17.6134 111.635 17.582C111.653 17.5506 111.677 17.5231 111.706 17.5011C111.735 17.4792 111.768 17.4632 111.804 17.4541C111.839 17.4451 111.876 17.4431 111.912 17.4483C111.948 17.4535 111.982 17.4658 112.014 17.4845C112.045 17.5032 112.072 17.5279 112.094 17.5572C113.144 18.9229 113.531 19.7959 113.25 20.1514C113.122 20.2658 112.971 20.3525 112.807 20.4062C112.644 20.4599 112.471 20.4792 112.3 20.4632Z" fill="#231F20"/>
<path d="M111.694 22.6021H111.581C110.2 22.5273 109.162 21.1928 109.119 21.1367C109.096 21.108 109.08 21.0753 109.071 21.0403C109.061 21.0054 109.059 20.9689 109.063 20.933C109.068 20.8971 109.08 20.8625 109.098 20.8311C109.116 20.7997 109.14 20.7721 109.169 20.75C109.197 20.7279 109.23 20.7117 109.265 20.7022C109.3 20.6927 109.337 20.6903 109.373 20.6949C109.409 20.6995 109.443 20.7112 109.475 20.7292C109.506 20.7472 109.534 20.7712 109.556 20.7999C109.556 20.7999 110.487 21.991 111.606 22.0471C111.901 22.0508 112.193 21.9869 112.46 21.8605C112.726 21.734 112.96 21.5482 113.144 21.3175C113.196 21.2679 113.265 21.2403 113.337 21.2403C113.409 21.2403 113.479 21.2679 113.531 21.3175C113.557 21.3431 113.578 21.3736 113.592 21.4073C113.607 21.4411 113.614 21.4773 113.614 21.5139C113.614 21.5505 113.607 21.5868 113.592 21.6205C113.578 21.6542 113.557 21.6848 113.531 21.7104C113.305 21.9797 113.024 22.1984 112.708 22.3521C112.391 22.5058 112.046 22.591 111.694 22.6021Z" fill="#231F20"/>
<path d="M113.744 80.5902L109.175 99.1359C109.175 99.1359 131.931 91.5343 132.75 89.0524C133.569 86.5704 120.981 89.4265 120.981 89.4265L121.875 84.126L113.744 80.5902Z" fill="white"/>
<path d="M109.175 99.4477C109.128 99.4472 109.081 99.436 109.039 99.4151C108.997 99.3942 108.96 99.364 108.931 99.3268C108.902 99.2896 108.882 99.2464 108.872 99.2003C108.863 99.1543 108.864 99.1067 108.875 99.061L113.437 80.5153C113.448 80.4708 113.468 80.4292 113.497 80.3934C113.526 80.3576 113.562 80.3286 113.603 80.3084C113.644 80.2881 113.689 80.2772 113.735 80.2763C113.781 80.2754 113.827 80.2847 113.869 80.3033L121.994 83.8391C122.057 83.8679 122.109 83.9161 122.143 83.9767C122.177 84.0373 122.19 84.1071 122.181 84.1758L121.375 89.0212C123.875 88.4724 131.637 86.9009 132.894 88.2853C133 88.3985 133.071 88.5399 133.099 88.6926C133.127 88.8453 133.11 89.0027 133.05 89.1459C132.206 91.7089 111.625 98.6495 109.3 99.429C109.26 99.4455 109.217 99.4519 109.175 99.4477ZM113.956 81.0267L109.619 98.6557C118.369 95.7061 131.9 90.6176 132.456 88.9526C132.5 88.8029 132.456 88.7468 132.425 88.7031C131.569 87.7615 124.994 88.8341 121.05 89.7321C121 89.7425 120.948 89.7406 120.899 89.7264C120.85 89.7123 120.805 89.6864 120.769 89.651C120.731 89.6156 120.703 89.5715 120.686 89.5225C120.67 89.4735 120.666 89.4213 120.675 89.3704L121.531 84.313L113.956 81.0267Z" fill="#231F20"/>
<path d="M94.7312 59.8494C94.7312 59.8494 91.575 72.9449 97.8062 74.7221C104.037 76.4994 114.462 69.3904 114.462 69.3904L111.087 81.5567C111.087 81.5567 108.825 87.0506 112.106 86.8074C115.062 82.9848 119.1 81.9746 121.875 84.126C126.219 79.318 133.844 64.2146 128.919 59.0325C123.994 53.8504 94.7312 59.8494 94.7312 59.8494Z" fill="#21333B"/>
<path d="M111.9 87.1067C111.623 87.1256 111.345 87.0757 111.092 86.9614C110.839 86.8471 110.619 86.6721 110.45 86.452C109.394 85.0052 110.775 81.6191 110.831 81.4632L114 70.039C111.644 71.5418 103.206 76.5618 97.7499 75.0277C91.3374 73.2006 94.3499 60.367 94.4811 59.8245C94.4932 59.7735 94.5196 59.7271 94.5572 59.6906C94.5949 59.6541 94.6422 59.6292 94.6936 59.6187C95.8999 59.3692 124.169 53.6446 129.137 58.8828C134.106 64.121 126.637 79.343 122.1 84.3442C122.054 84.3969 121.989 84.4301 121.92 84.4371C121.85 84.444 121.78 84.4242 121.725 84.3816C121.199 83.9722 120.596 83.6718 119.952 83.4983C119.308 83.3248 118.636 83.2817 117.975 83.3714C115.975 83.6271 113.987 84.9179 112.35 87.0132C112.327 87.0439 112.298 87.0692 112.265 87.0875C112.231 87.1058 112.194 87.1167 112.156 87.1192L111.9 87.1067ZM114.462 69.1347C114.521 69.1352 114.578 69.1549 114.625 69.1909C114.671 69.2226 114.706 69.2679 114.725 69.3204C114.744 69.373 114.746 69.4301 114.731 69.484L111.375 81.6316C111 82.5607 110.194 85.1112 110.925 86.1152C111.051 86.2709 111.214 86.3916 111.401 86.4659C111.587 86.5401 111.789 86.5654 111.987 86.5393C113.687 84.3879 115.775 83.0596 117.887 82.7977C119.287 82.5987 120.709 82.9424 121.862 83.758C126.175 78.8129 133.394 64.1273 128.737 59.2258C124.081 54.3244 97.4061 59.6062 94.9874 60.0926C94.6499 61.6204 92.3749 72.8888 97.9061 74.4353C103.931 76.1502 114.231 69.2096 114.331 69.141C114.372 69.1225 114.417 69.1139 114.462 69.116V69.1347Z" fill="#231F20"/>
<path d="M109.175 99.1359C109.175 99.1359 111.675 101.58 118.8 99.1359C125.925 96.6914 134.925 90.1374 132.75 89.0524C130.575 87.9673 111.587 95.7123 109.175 99.1359Z" fill="#231F20"/>
<path d="M113.131 100.502C110.237 100.502 109.056 99.3978 108.987 99.3292C108.94 99.2842 108.91 99.2236 108.903 99.1584C108.896 99.0932 108.912 99.0277 108.95 98.9737C111.325 95.6126 130.331 87.5308 132.875 88.8029C133.03 88.873 133.159 88.9891 133.245 89.1353C133.331 89.2816 133.37 89.4508 133.356 89.6198C133.206 91.7775 125.1 97.2589 118.894 99.3978C117.047 100.079 115.1 100.452 113.131 100.502ZM109.569 99.086C110.275 99.5537 112.944 100.857 118.712 98.874C124.962 96.7226 132.687 91.3409 132.806 89.5824C132.812 89.5212 132.798 89.4597 132.765 89.4077C132.732 89.3557 132.683 89.3162 132.625 89.2955C130.75 88.3539 112.537 95.6126 109.569 99.086Z" fill="#231F20"/>
<path d="M122 88.2479C120.356 88.8575 118.761 89.5934 117.231 90.4492L117.487 87.5807C117.487 87.5807 121.181 85.791 122 85.897V88.2479Z" fill="white"/>
<path d="M117.244 90.761C117.188 90.7614 117.134 90.7462 117.087 90.7173C117.036 90.6874 116.994 90.6432 116.968 90.59C116.941 90.5368 116.93 90.4771 116.937 90.418L117.194 87.5557C117.197 87.503 117.215 87.4521 117.244 87.4083C117.274 87.3645 117.315 87.3293 117.362 87.3063C117.987 87.0007 121.194 85.4854 122.056 85.5852C122.132 85.5944 122.201 85.6315 122.251 85.6892C122.301 85.7469 122.327 85.8209 122.325 85.897V88.2479C122.324 88.3111 122.305 88.3727 122.27 88.4249C122.234 88.477 122.184 88.5175 122.125 88.541C120.503 89.1431 118.929 89.8686 117.419 90.7111C117.366 90.7434 117.305 90.7607 117.244 90.761ZM117.8 87.7865L117.612 89.863C118.939 89.1773 120.304 88.5673 121.7 88.0359V86.2275C120.357 86.6335 119.052 87.1551 117.8 87.7865Z" fill="#231F20"/>
<path d="M102.394 28.7009C102.394 28.7009 79.825 37.8428 77.9125 40.412C76 42.9812 72.7188 58.5586 72.7188 58.5586L79.5375 57.5795C79.5375 57.5795 85.7063 47.9138 87.6188 45.8684C89.5313 43.823 100.338 40.9607 100.338 40.9607L102.394 28.7009Z" fill="white"/>
<path d="M83.2499 53.1707L78.6624 61.0031C78.6624 61.0031 82.5624 64.121 81.6124 64.6324C80.6624 65.1437 79.7374 65.5491 79.7374 65.5491C79.7374 65.5491 79.6374 68.112 78.4874 68.4176C77.3374 68.7232 70.9186 68.1557 71.2061 65.9606C72.2061 58.3902 73.4499 49.7784 73.3686 50.7636L83.2499 53.1707Z" fill="white"/>
<path d="M77.5873 68.8042C75.8686 68.8042 72.7811 68.3739 71.5248 67.2764C71.3162 67.1209 71.1522 66.9136 71.0491 66.675C70.946 66.4364 70.9074 66.1751 70.9373 65.917C71.3561 62.7055 71.8748 58.939 72.3498 55.5903C72.7686 52.6656 72.9748 51.3685 73.0936 50.801C73.0904 50.7783 73.0904 50.7552 73.0936 50.7325C73.0901 50.7468 73.0901 50.7618 73.0936 50.7761C73.1998 50.3521 73.2811 50.3583 73.4311 50.377C73.4754 50.3803 73.5185 50.3931 73.5573 50.4146C73.5962 50.4362 73.6299 50.4659 73.6561 50.5017L83.3123 52.8651C83.359 52.8776 83.4023 52.9003 83.439 52.9316C83.4758 52.9629 83.5051 53.002 83.5248 53.046C83.5463 53.0896 83.5575 53.1377 83.5575 53.1863C83.5575 53.2349 83.5463 53.2829 83.5248 53.3266L79.0623 60.9158C79.9998 61.6828 82.1436 63.5349 82.0623 64.4266C82.0537 64.5244 82.0205 64.6185 81.9659 64.7003C81.9113 64.782 81.837 64.8487 81.7498 64.8943C81.0498 65.2684 80.3686 65.599 80.0561 65.7424C80.0061 66.4096 79.7623 68.3927 78.6123 68.7045C78.2757 68.7773 77.9317 68.8108 77.5873 68.8042ZM73.6373 51.144C73.3748 52.7841 72.3873 59.5251 71.5561 65.998C71.5436 66.1546 71.5722 66.3116 71.6391 66.4538C71.7059 66.5959 71.8087 66.7183 71.9373 66.8087C73.3248 68.0185 77.5623 68.349 78.4436 68.112C79.1873 67.9125 79.4186 66.1415 79.4436 65.5366C79.4463 65.4796 79.4647 65.4245 79.4966 65.3772C79.5286 65.33 79.5729 65.2923 79.6248 65.2684C79.6248 65.2684 80.5248 64.8569 81.4561 64.358C81.4936 64.0275 80.0998 62.5558 78.4623 61.24C78.403 61.1942 78.3626 61.1283 78.3488 61.0547C78.3349 60.9811 78.3487 60.9051 78.3873 60.8409L82.7623 53.3578L73.6373 51.144Z" fill="#231F20"/>
<path d="M144.069 20.9683C144.069 20.6565 140.987 10.1988 140.987 10.1988L147.656 7.86655C147.656 7.86655 147.556 5.40959 148.987 4.48667C150.419 3.56375 152.375 4.48667 152.375 4.48667C152.375 4.48667 158.219 -0.421023 158.937 0.601673C159.656 1.62437 157.5 3.87554 154.219 6.21402C154.219 6.21402 155.962 11.128 154.012 12.662C152.871 13.5738 151.487 14.131 150.031 14.2646L144.069 20.9683Z" fill="white"/>
<path d="M144.069 21.2801C144.031 21.286 143.993 21.286 143.956 21.2801C143.899 21.2592 143.85 21.222 143.814 21.1731C143.779 21.1243 143.759 21.066 143.756 21.0057C143.687 20.5692 141.881 14.3769 140.687 10.3048C140.667 10.2271 140.676 10.1445 140.713 10.0731C140.75 10.0016 140.812 9.94642 140.887 9.91818L147.344 7.66076C147.344 6.99352 147.512 5.08532 148.819 4.24347C150.125 3.40161 151.769 3.92543 152.319 4.14369C153.437 3.21453 157.4 -0.00945035 158.731 0.171392C158.823 0.181178 158.911 0.210113 158.991 0.256314C159.071 0.302514 159.14 0.364945 159.194 0.439538C160.231 1.91746 156.844 4.72987 154.587 6.36369C154.912 7.38015 156.081 11.4647 154.206 12.9364C153.048 13.8577 151.653 14.4348 150.181 14.6014L144.3 21.1928C144.269 21.2223 144.233 21.2452 144.193 21.2602C144.153 21.2752 144.111 21.282 144.069 21.2801ZM141.375 10.4046C142.331 13.6722 143.762 18.5674 144.225 20.3322L149.8 14.0963C149.857 14.0345 149.935 13.9966 150.019 13.9903C151.407 13.8567 152.727 13.3238 153.819 12.4562C155.275 11.3088 154.387 7.667 153.925 6.35745C153.903 6.29402 153.902 6.22515 153.922 6.16111C153.942 6.09706 153.983 6.04126 154.037 6.002C157.85 3.27066 159.112 1.41858 158.681 0.801223C158.237 0.533077 155.394 2.38515 152.575 4.75481C152.529 4.79231 152.474 4.81579 152.415 4.82243C152.356 4.82907 152.297 4.81858 152.244 4.79223C152.244 4.79223 150.425 3.96285 149.156 4.79223C147.887 5.62161 147.969 7.87279 147.969 7.9102C147.971 7.97715 147.951 8.04302 147.913 8.09806C147.875 8.15309 147.82 8.19437 147.756 8.21576L141.375 10.4046Z" fill="#231F20"/>
<path d="M118.469 51.8487H118.412C118.338 51.8336 118.272 51.7898 118.23 51.7267C118.188 51.6636 118.173 51.5864 118.187 51.5119C120.019 42.5197 121.756 26.3499 121.669 25.5642C121.659 25.5289 121.657 25.4922 121.662 25.4561C121.667 25.42 121.679 25.3853 121.698 25.354C121.716 25.3226 121.741 25.2953 121.77 25.2736C121.8 25.2518 121.833 25.2361 121.869 25.2274C121.944 25.2085 122.024 25.2202 122.091 25.26C122.157 25.2997 122.206 25.3643 122.225 25.4395C122.381 26.0194 120.581 42.6257 118.75 51.6304C118.733 51.6925 118.697 51.7475 118.646 51.787C118.595 51.8264 118.533 51.8481 118.469 51.8487Z" fill="#231F20"/>
<path d="M89.6498 44.3905C89.5832 44.3886 89.5194 44.3638 89.4692 44.3202C89.4189 44.2766 89.3854 44.2169 89.3744 44.1514C89.3633 44.0859 89.3754 44.0186 89.4085 43.961C89.4416 43.9034 89.4938 43.859 89.556 43.8355L102.3 39.6574C102.37 39.6402 102.444 39.6499 102.507 39.6847C102.571 39.7195 102.619 39.7768 102.641 39.8452C102.664 39.9136 102.66 39.9881 102.631 40.0539C102.601 40.1196 102.548 40.1718 102.481 40.1999L89.7373 44.378C89.7092 44.3879 89.6795 44.3922 89.6498 44.3905Z" fill="#231F20"/>
<path d="M152.494 11.0282C152.44 11.0342 152.385 11.0342 152.331 11.0282C151.848 10.9235 151.399 10.6965 151.029 10.3688C150.659 10.0411 150.38 9.62395 150.219 9.1574C150.174 9.56789 150.012 9.95687 149.751 10.2777C149.491 10.5984 149.143 10.8374 148.75 10.9658C148.714 10.9777 148.676 10.9821 148.639 10.9787C148.601 10.9754 148.565 10.9644 148.532 10.9464C148.499 10.9284 148.47 10.9039 148.446 10.8742C148.423 10.8446 148.406 10.8106 148.397 10.7742C148.388 10.7378 148.386 10.6998 148.392 10.6627C148.397 10.6256 148.411 10.5901 148.431 10.5583C148.451 10.5266 148.478 10.4994 148.509 10.4783C148.54 10.4572 148.575 10.4427 148.612 10.4358C150.006 10.0741 149.762 7.6483 149.756 7.62336C149.749 7.55081 149.77 7.47836 149.816 7.42133C149.861 7.3643 149.927 7.32717 150 7.31779C150.071 7.31208 150.142 7.33321 150.199 7.37705C150.256 7.42089 150.294 7.48427 150.306 7.55476C150.306 7.55476 150.694 10.1739 152.412 10.4295C152.469 10.4447 152.53 10.4434 152.586 10.4257C152.643 10.408 152.693 10.3748 152.731 10.3298C153.356 9.6438 152.669 6.41982 152.106 4.55527C152.085 4.48581 152.092 4.41067 152.126 4.34637C152.16 4.28206 152.218 4.23384 152.287 4.21229C152.322 4.2018 152.359 4.19832 152.395 4.20207C152.431 4.20581 152.466 4.21671 152.498 4.23411C152.53 4.25152 152.559 4.27509 152.581 4.30346C152.604 4.33183 152.621 4.36443 152.631 4.39937C152.787 4.92319 154.131 9.55026 153.137 10.6914C153.063 10.7926 152.966 10.8754 152.854 10.9337C152.743 10.9921 152.619 11.0244 152.494 11.0282Z" fill="#231F20"/>
<path d="M11.5499 96.0803C10.6124 94.2095 1.4624 78.5011 0.0561458 68.4363C0.0561458 68.4363 -0.106354 88.0484 8.06865 98.1444C16.2436 108.24 11.5499 96.0803 11.5499 96.0803Z" fill="#8FE9A7"/>
<path d="M107.525 16.9024L104.375 18.2556V18.9416L108.631 17.6944L107.525 16.9024Z" fill="#231F20"/>
<path d="M104.375 19.216C104.314 19.2164 104.255 19.1967 104.206 19.1599C104.172 19.1344 104.145 19.1013 104.127 19.0634C104.108 19.0255 104.099 18.9837 104.1 18.9416V18.2556C104.099 18.2018 104.114 18.1489 104.143 18.1034C104.172 18.058 104.213 18.022 104.262 18L107.387 16.6468C107.431 16.6284 107.479 16.6216 107.526 16.6271C107.573 16.6326 107.618 16.6501 107.656 16.6779L108.762 17.4761C108.803 17.5066 108.835 17.5478 108.854 17.5952C108.872 17.6425 108.878 17.6942 108.869 17.7443C108.861 17.7954 108.838 17.8433 108.804 17.882C108.77 17.9207 108.725 17.9487 108.675 17.9625L104.419 19.2097L104.375 19.216ZM104.65 18.4365V18.5737L108.012 17.5884L107.494 17.2142L104.65 18.4365Z" fill="#231F20"/>
<path d="M106.494 19.5153C106.019 18.9291 105.244 17.8565 104.375 18.2681C104.138 18.3792 103.935 18.5514 103.787 18.767C103.495 19.2093 103.344 19.7293 103.353 20.2588C103.362 20.7884 103.531 21.303 103.837 21.7353C104.306 22.5335 105.712 23.6934 106.525 22.6021" fill="white"/>
<path d="M105.694 23.3192H105.612C105.191 23.2353 104.793 23.0629 104.444 22.8134C104.095 22.564 103.803 22.2432 103.587 21.8725C103.255 21.3874 103.078 20.8136 103.078 20.2262C103.078 19.6387 103.255 19.065 103.587 18.5799C103.765 18.3263 104.006 18.1241 104.287 17.9937C105.312 17.5385 106.162 18.5737 106.631 19.191L106.744 19.3345C106.791 19.3937 106.814 19.4691 106.807 19.5447C106.8 19.6203 106.764 19.6902 106.706 19.7398C106.677 19.7637 106.643 19.7816 106.606 19.7923C106.57 19.8031 106.532 19.8066 106.494 19.8025C106.456 19.7984 106.42 19.787 106.386 19.7687C106.353 19.7504 106.324 19.7258 106.3 19.6961L106.181 19.5465C105.631 18.8543 105.087 18.2619 104.519 18.5113C104.328 18.6059 104.164 18.7475 104.044 18.9229C103.787 19.3215 103.656 19.788 103.668 20.2617C103.681 20.7354 103.835 21.1945 104.112 21.5794C104.277 21.8714 104.502 22.1259 104.771 22.3266C105.04 22.5274 105.348 22.6701 105.675 22.7455C105.798 22.746 105.92 22.7161 106.029 22.6584C106.138 22.6007 106.231 22.5171 106.3 22.415C106.347 22.356 106.415 22.3177 106.49 22.3084C106.565 22.2991 106.64 22.3194 106.7 22.3651C106.73 22.3877 106.755 22.4161 106.774 22.4486C106.793 22.481 106.805 22.5169 106.809 22.5541C106.814 22.5913 106.811 22.6291 106.801 22.6652C106.791 22.7013 106.773 22.7349 106.75 22.7642C106.631 22.9338 106.473 23.0726 106.289 23.1692C106.105 23.2657 105.901 23.3171 105.694 23.3192Z" fill="#231F20"/>
<path d="M109.583 18.1646C110.634 18.0532 111.415 17.3104 111.33 16.5056C111.244 15.7008 110.323 15.1387 109.273 15.2501C108.222 15.3616 107.44 16.1043 107.526 16.9092C107.612 17.714 108.533 18.276 109.583 18.1646Z" fill="white"/>
<path d="M109.325 18.4614C108.851 18.5027 108.379 18.3703 107.995 18.0891C107.612 17.808 107.345 17.3972 107.244 16.9336C107.137 15.9733 108.037 15.0628 109.244 14.9568C109.788 14.894 110.338 15.0077 110.812 15.2811C111.03 15.4019 111.215 15.5721 111.354 15.778C111.493 15.9839 111.582 16.2196 111.612 16.4659C111.719 17.4263 110.819 18.3367 109.612 18.4427C109.517 18.4552 109.421 18.4614 109.325 18.4614ZM109.537 15.5118H109.3C108.412 15.6054 107.744 16.2103 107.812 16.8588C107.881 17.5073 108.656 17.9563 109.556 17.8628C110.456 17.7692 111.119 17.1644 111.05 16.5158C111.024 16.3566 110.962 16.2053 110.869 16.0734C110.776 15.9416 110.654 15.8327 110.512 15.755C110.216 15.5869 109.879 15.5029 109.537 15.5118Z" fill="#231F20"/>
<path d="M113.498 17.9774C114.548 17.8659 115.33 17.1232 115.244 16.3183C115.158 15.5135 114.237 14.9515 113.187 15.0629C112.137 15.1743 111.355 15.9171 111.441 16.7219C111.526 17.5267 112.447 18.0888 113.498 17.9774Z" fill="white"/>
<path d="M113.25 18.2744C112.776 18.3156 112.304 18.1833 111.921 17.9021C111.538 17.6209 111.27 17.2101 111.169 16.7465C111.069 15.7862 111.969 14.8758 113.169 14.7698C114.369 14.6637 115.444 15.3185 115.544 16.2789C115.644 17.2392 114.75 18.1496 113.544 18.2494L113.25 18.2744ZM113.469 15.3248H113.231C112.337 15.4183 111.669 16.0232 111.737 16.6717C111.806 17.3203 112.594 17.7692 113.481 17.6757C114.369 17.5822 115.044 16.9773 114.975 16.3287C114.886 16.0067 114.683 15.7277 114.404 15.5432C114.125 15.3587 113.788 15.2811 113.456 15.3248H113.469Z" fill="#231F20"/>
<path d="M34.9499 84.4003C36.5411 84.4003 37.8311 83.1133 37.8311 81.5256C37.8311 79.9379 36.5411 78.6508 34.9499 78.6508C33.3586 78.6508 32.0686 79.9379 32.0686 81.5256C32.0686 83.1133 33.3586 84.4003 34.9499 84.4003Z" fill="white"/>
<path d="M34.9499 84.7121C34.3167 84.7134 33.6974 84.5272 33.1704 84.1771C32.6433 83.827 32.2322 83.3288 31.989 82.7455C31.7459 82.1622 31.6816 81.52 31.8044 80.9003C31.9271 80.2805 32.2314 79.711 32.6787 79.2639C33.126 78.8167 33.6962 78.512 34.3171 78.3883C34.938 78.2646 35.5817 78.3275 36.1668 78.569C36.7519 78.8104 37.252 79.2197 37.6039 79.7448C37.9558 80.27 38.1437 80.8876 38.1437 81.5193C38.1437 82.365 37.8074 83.1762 37.2086 83.7748C36.6098 84.3734 35.7975 84.7105 34.9499 84.7121ZM34.9499 78.9563C34.4401 78.9551 33.9414 79.1049 33.517 79.3867C33.0925 79.6686 32.7615 80.0698 32.5659 80.5395C32.3702 81.0092 32.3187 81.5263 32.4178 82.0253C32.517 82.5242 32.7624 82.9826 33.1229 83.3423C33.4834 83.7019 33.9428 83.9468 34.4428 84.0457C34.9429 84.1446 35.4612 84.0932 35.932 83.898C36.4027 83.7028 36.8048 83.3725 37.0873 82.949C37.3698 82.5256 37.5199 82.028 37.5187 81.5193C37.517 80.8401 37.2458 80.1891 36.7645 79.7088C36.2831 79.2285 35.6307 78.958 34.9499 78.9563Z" fill="#D1D3D4"/>
<path d="M143.531 47.5895C144.329 47.5895 144.975 46.9446 144.975 46.149C144.975 45.3535 144.329 44.7085 143.531 44.7085C142.734 44.7085 142.087 45.3535 142.087 46.149C142.087 46.9446 142.734 47.5895 143.531 47.5895Z" fill="white"/>
<path d="M143.531 47.9013C143.183 47.9026 142.843 47.8008 142.554 47.6091C142.264 47.4173 142.038 47.144 141.904 46.8239C141.77 46.5039 141.734 46.1513 141.802 45.811C141.869 45.4707 142.035 45.1579 142.281 44.9122C142.526 44.6665 142.839 44.499 143.18 44.4309C143.521 44.3628 143.874 44.3971 144.195 44.5295C144.517 44.662 144.791 44.8866 144.985 45.1749C145.178 45.4632 145.281 45.8022 145.281 46.149C145.281 46.6127 145.097 47.0575 144.769 47.3859C144.441 47.7143 143.996 47.8997 143.531 47.9013ZM143.531 45.0203C143.307 45.0191 143.088 45.0842 142.901 45.2075C142.714 45.3308 142.568 45.5066 142.481 45.7128C142.395 45.9189 142.372 46.146 142.415 46.3654C142.457 46.5847 142.565 46.7864 142.723 46.9449C142.881 47.1034 143.082 47.2115 143.302 47.2556C143.521 47.2996 143.749 47.2776 143.956 47.1924C144.163 47.1072 144.34 46.9625 144.465 46.7768C144.59 46.591 144.656 46.3725 144.656 46.149C144.656 45.8508 144.538 45.5646 144.327 45.3531C144.116 45.1416 143.83 45.022 143.531 45.0203Z" fill="#D1D3D4"/>
<path d="M163.962 42.8066C165.554 42.8066 166.844 41.5195 166.844 39.9318C166.844 38.3441 165.554 37.057 163.962 37.057C162.371 37.057 161.081 38.3441 161.081 39.9318C161.081 41.5195 162.371 42.8066 163.962 42.8066Z" fill="white"/>
<path d="M168.737 146.716C177.702 146.716 184.969 139.466 184.969 130.521C184.969 121.577 177.702 114.327 168.737 114.327C159.773 114.327 152.506 121.577 152.506 130.521C152.506 139.466 159.773 146.716 168.737 146.716Z" fill="white"/>
<path d="M168.744 147.028C165.661 147.028 162.639 146.168 160.02 144.546C157.4 142.924 155.287 140.604 153.919 137.848C152.551 135.091 151.982 132.008 152.276 128.946C152.57 125.885 153.716 122.965 155.584 120.519C157.452 118.072 159.968 116.194 162.849 115.098C165.729 114.002 168.859 113.731 171.886 114.315C174.913 114.9 177.716 116.316 179.979 118.405C182.242 120.494 183.875 123.172 184.694 126.138C185.369 128.588 185.468 131.161 184.984 133.656C184.499 136.15 183.444 138.5 181.901 140.522C180.357 142.543 178.367 144.182 176.085 145.311C173.803 146.439 171.291 147.027 168.744 147.028ZM168.744 114.632C165.411 114.631 162.163 115.673 159.455 117.612C156.748 119.55 154.718 122.286 153.652 125.436C152.585 128.586 152.536 131.99 153.511 135.17C154.486 138.349 156.435 141.143 159.086 143.158C161.736 145.174 164.953 146.309 168.283 146.404C171.614 146.499 174.891 145.55 177.652 143.689C180.414 141.828 182.521 139.15 183.676 136.031C184.832 132.913 184.978 129.511 184.094 126.306C183.165 122.953 181.16 119.996 178.387 117.888C175.613 115.779 172.224 114.636 168.737 114.632H168.744Z" fill="#D1D3D4"/>
<path d="M149.194 139.383C146.294 139.383 143.669 138.965 143.269 137.512C142.625 135.124 148.694 132.006 152.387 130.347C152.464 130.314 152.55 130.312 152.627 130.343C152.705 130.373 152.767 130.433 152.8 130.509C152.833 130.585 152.834 130.671 152.804 130.748C152.774 130.825 152.714 130.887 152.637 130.921C145.712 133.995 143.569 136.252 143.887 137.344C144.206 138.435 147.194 139.289 154.712 138.391C165.081 136.997 175.215 134.22 184.844 130.135C191.762 127.073 193.906 124.809 193.594 123.712C193.281 122.614 190.294 121.772 182.769 122.67C182.686 122.68 182.602 122.657 182.537 122.605C182.471 122.554 182.429 122.479 182.419 122.396C182.409 122.313 182.432 122.23 182.484 122.165C182.535 122.099 182.611 122.057 182.694 122.047C186.706 121.567 193.531 121.13 194.194 123.543C194.856 125.957 188.775 129.068 185.087 130.696C175.399 134.823 165.196 137.625 154.756 139.027C152.91 139.252 151.053 139.371 149.194 139.383Z" fill="#D1D3D4"/>
<path d="M135.75 126.262C135.667 126.262 135.588 126.229 135.529 126.171C135.47 126.112 135.438 126.033 135.438 125.95V122.277C135.438 122.195 135.47 122.115 135.529 122.057C135.588 121.999 135.667 121.966 135.75 121.966C135.833 121.966 135.912 121.999 135.971 122.057C136.03 122.115 136.062 122.195 136.062 122.277V125.95C136.062 126.033 136.03 126.112 135.971 126.171C135.912 126.229 135.833 126.262 135.75 126.262Z" fill="#D1D3D4"/>
<path d="M137.625 124.423H133.944C133.861 124.423 133.781 124.39 133.723 124.331C133.664 124.273 133.631 124.194 133.631 124.111C133.633 124.029 133.666 123.95 133.724 123.892C133.783 123.834 133.861 123.801 133.944 123.799H137.625C137.708 123.799 137.787 123.832 137.846 123.89C137.904 123.949 137.937 124.028 137.937 124.111C137.937 124.194 137.904 124.273 137.846 124.331C137.787 124.39 137.708 124.423 137.625 124.423Z" fill="#D1D3D4"/>
<path d="M178.35 51.8736C178.267 51.8736 178.187 51.8408 178.129 51.7823C178.07 51.7238 178.037 51.6445 178.037 51.5618V47.8889C178.037 47.8062 178.07 47.7269 178.129 47.6684C178.187 47.6099 178.267 47.5771 178.35 47.5771C178.433 47.5771 178.512 47.6099 178.571 47.6684C178.629 47.7269 178.662 47.8062 178.662 47.8889V51.5618C178.662 51.6445 178.629 51.7238 178.571 51.7823C178.512 51.8408 178.433 51.8736 178.35 51.8736Z" fill="white"/>
<path d="M180.194 50.0403H176.512C176.43 50.0403 176.35 50.0074 176.291 49.9489C176.233 49.8905 176.2 49.8112 176.2 49.7285C176.2 49.6458 176.233 49.5665 176.291 49.508C176.35 49.4495 176.43 49.4167 176.512 49.4167H180.194C180.277 49.4167 180.356 49.4495 180.415 49.508C180.473 49.5665 180.506 49.6458 180.506 49.7285C180.505 49.8107 180.471 49.889 180.413 49.9472C180.355 50.0053 180.276 50.0387 180.194 50.0403Z" fill="white"/>
<path d="M23.1311 132.386C23.0482 132.386 22.9687 132.353 22.9101 132.295C22.8515 132.236 22.8186 132.157 22.8186 132.074V128.401C22.8186 128.318 22.8515 128.239 22.9101 128.181C22.9687 128.122 23.0482 128.089 23.1311 128.089C23.214 128.089 23.2935 128.122 23.3521 128.181C23.4107 128.239 23.4436 128.318 23.4436 128.401V132.074C23.4436 132.157 23.4107 132.236 23.3521 132.295C23.2935 132.353 23.214 132.386 23.1311 132.386Z" fill="#D1D3D4"/>
<path d="M24.9686 130.553H21.2874C21.205 130.551 21.1264 130.518 21.0682 130.459C21.0099 130.401 20.9765 130.323 20.9749 130.241C20.9749 130.158 21.0078 130.079 21.0664 130.02C21.125 129.962 21.2045 129.929 21.2874 129.929H24.9686C25.0515 129.929 25.131 129.962 25.1896 130.02C25.2482 130.079 25.2811 130.158 25.2811 130.241C25.2811 130.323 25.2482 130.403 25.1896 130.461C25.131 130.52 25.0515 130.553 24.9686 130.553Z" fill="#D1D3D4"/>
<path d="M60.2373 53.7132C60.1544 53.7132 60.0749 53.6804 60.0163 53.6219C59.9577 53.5634 59.9248 53.4841 59.9248 53.4014V49.7285C59.9248 49.6458 59.9577 49.5665 60.0163 49.508C60.0749 49.4495 60.1544 49.4167 60.2373 49.4167C60.3202 49.4167 60.3997 49.4495 60.4583 49.508C60.5169 49.5665 60.5498 49.6458 60.5498 49.7285V53.4326C60.542 53.5098 60.5057 53.5813 60.4479 53.6332C60.3901 53.6851 60.315 53.7136 60.2373 53.7132Z" fill="#D1D3D4"/>
<path d="M62.0748 51.8736H58.3936C58.3107 51.8736 58.2312 51.8408 58.1726 51.7823C58.114 51.7238 58.0811 51.6445 58.0811 51.5618C58.0811 51.4791 58.114 51.3998 58.1726 51.3414C58.2312 51.2829 58.3107 51.25 58.3936 51.25H62.0748C62.1577 51.25 62.2372 51.2829 62.2958 51.3414C62.3544 51.3998 62.3873 51.4791 62.3873 51.5618C62.3873 51.6445 62.3544 51.7238 62.2958 51.7823C62.2372 51.8408 62.1577 51.8736 62.0748 51.8736Z" fill="#D1D3D4"/>
</svg>
