<svg width="32" height="32" viewBox="0 0 32 32" fill="none" xmlns="http://www.w3.org/2000/svg">
<path fill-rule="evenodd" clip-rule="evenodd" d="M8.16093 6.66659C7.7076 6.17325 7.72093 5.41326 8.20093 4.93326L10.0943 3.03992C10.5876 2.54659 11.4009 2.54659 11.8943 3.03992L15.5209 6.66659H8.16093ZM26.6275 24C26.6275 28 25.2942 29.3333 21.2942 29.3333H10.6275C6.62752 29.3333 5.29419 28 5.29419 24V13.3333H26.6275V24ZM20.0927 3.03992L16.4661 6.66659H23.8261C24.2794 6.17325 24.2661 5.41326 23.7861 4.93326L21.8927 3.03992C21.3994 2.54659 20.5861 2.54659 20.0927 3.03992Z" fill="#A6EBB8"/>
<path fill-rule="evenodd" clip-rule="evenodd" d="M25.9999 13.3333C27.9599 13.3333 28.6666 12.1333 28.6666 10.6666V9.33329C28.6666 7.86663 27.9599 6.66663 25.9999 6.66663H5.99992C3.95992 6.66663 3.33325 7.86663 3.33325 9.33329V10.6666C3.33325 12.1333 3.95992 13.3333 5.99992 13.3333L11.9192 13.3333V20.1866C11.9192 21.2533 13.0925 21.88 13.9859 21.3066L15.2392 20.48C15.6925 20.1866 16.2659 20.1866 16.7059 20.48L17.8925 21.28C18.7725 21.8666 19.9592 21.24 19.9592 20.1733V13.3333L25.9999 13.3333Z" fill="#4BD16F"/>
</svg>
