<svg width="48" height="48" viewBox="0 0 48 48" fill="none" xmlns="http://www.w3.org/2000/svg">
<rect width="48" height="48" rx="16" fill="#E8F9DC"/>
<path fill-rule="evenodd" clip-rule="evenodd" d="M24.0001 14.6667C29.0474 14.6667 33.1589 18.6731 33.328 23.6792L33.3334 24.0001V25.3334C33.3334 26.0698 32.7365 26.6667 32.0001 26.6667C31.3163 26.6667 30.7527 26.152 30.6757 25.4889L30.6667 25.3334V24.0001C30.6667 20.3182 27.682 17.3334 24.0001 17.3334C20.4151 17.3334 17.491 20.1632 17.3396 23.7109L17.3334 24.0001V25.3334C17.3334 26.0698 16.7365 26.6667 16.0001 26.6667C15.3163 26.6667 14.7527 26.152 14.6757 25.4889L14.6667 25.3334V24.0001C14.6667 18.8454 18.8454 14.6667 24.0001 14.6667Z" fill="#9EA3AE"/>
<path fill-rule="evenodd" clip-rule="evenodd" d="M12 28.0001C12 25.0546 14.3878 22.6667 17.3333 22.6667H19.8431C19.9298 22.6667 20 22.737 20 22.8236V33.1766C20 33.2632 19.9298 33.3334 19.8431 33.3334H17.3333C14.3878 33.3334 12 30.9456 12 28.0001ZM28 22.8236C28 22.737 28.0702 22.6667 28.1569 22.6667H30.6667C33.6122 22.6667 36 25.0546 36 28.0001C36 30.9456 33.6122 33.3334 30.6667 33.3334H28.1569C28.0702 33.3334 28 33.2632 28 33.1766V32.0001H25C24.4477 32.0001 24 31.5524 24 31.0001V30.3334C24 29.7811 24.4477 29.3334 25 29.3334H28V22.8236Z" fill="#4BD16F"/>
</svg>
