<svg width="24" height="24" viewBox="0 0 24 24" fill="none" xmlns="http://www.w3.org/2000/svg">
<path d="M18.47 16.83L18.86 19.99C18.96 20.82 18.07 21.4 17.36 20.97L13.17 18.48C12.71 18.48 12.26 18.45 11.82 18.39C12.56 17.52 13 16.42 13 15.23C13 12.39 10.54 10.09 7.49997 10.09C6.33997 10.09 5.26997 10.42 4.37997 11C4.34997 10.75 4.33997 10.5 4.33997 10.24C4.33997 5.68999 8.28997 2 13.17 2C18.05 2 22 5.68999 22 10.24C22 12.94 20.61 15.33 18.47 16.83Z" fill="#4BD16F"/>
<path d="M11.4391 18.0661L11.4391 18.0661L11.4343 18.0719C10.5417 19.1539 9.11452 19.86 7.5 19.86H7.36272L7.24469 19.9301L4.63469 21.4801L4.63467 21.4801L4.62849 21.4839C4.60493 21.4983 4.58598 21.5014 4.5697 21.5008C4.551 21.5 4.52832 21.4936 4.50597 21.479C4.46109 21.4496 4.44138 21.4069 4.44641 21.3599L4.69602 19.393L4.73419 19.0922L4.48508 18.9193C3.26787 18.0745 2.5 16.7323 2.5 15.23C2.5 13.6558 3.33978 12.258 4.6492 11.4214L4.64921 11.4214L4.653 11.419C5.46117 10.8923 6.4362 10.5901 7.5 10.5901C10.2962 10.5901 12.5 12.6975 12.5 15.23C12.5 16.2937 12.1074 17.2805 11.4391 18.0661Z" fill="#4BD16F" stroke="#E9F5EC"/>
</svg>
