<svg width="125" height="125" viewBox="0 0 125 125" fill="none" xmlns="http://www.w3.org/2000/svg">
<path d="M62.5001 124.583C53.9119 124.583 45.8411 122.954 38.2876 119.694C30.7341 116.435 24.1636 112.011 18.5761 106.424C12.9886 100.836 8.56518 94.266 5.30581 86.7125C2.04643 79.159 0.416748 71.0882 0.416748 62.5C0.416748 53.9118 2.04643 45.841 5.30581 38.2875C8.56518 30.734 12.9886 24.1635 18.5761 18.576C24.1636 12.9885 30.7341 8.5651 38.2876 5.30573C45.8411 2.04635 53.9119 0.416664 62.5001 0.416664C71.0883 0.416664 79.1591 2.04635 86.7126 5.30573C94.266 8.5651 100.837 12.9885 106.424 18.576C112.012 24.1635 116.435 30.734 119.694 38.2875C122.954 45.841 124.583 53.9118 124.583 62.5C124.583 71.0882 122.954 79.159 119.694 86.7125C116.435 94.266 112.012 100.836 106.424 106.424C100.837 112.011 94.266 116.435 86.7126 119.694C79.1591 122.954 71.0883 124.583 62.5001 124.583ZM55.8261 115.116V102.389C52.2046 102.389 49.1522 101.043 46.6688 98.3531C44.1855 95.6628 42.9438 92.5069 42.9438 88.8854V82.0562L11.1261 50.2385C10.6088 52.308 10.2466 54.3516 10.0397 56.3693C9.83272 58.387 9.72925 60.4305 9.72925 62.5C9.72925 75.9514 14.101 87.6955 22.8444 97.7323C31.5878 107.769 42.5817 113.564 55.8261 115.116ZM101.457 98.3531C103.734 95.8698 105.726 93.2312 107.433 90.4375C109.14 87.6437 110.589 84.7206 111.779 81.6682C112.969 78.6158 113.848 75.4858 114.417 72.2781C114.986 69.0705 115.271 65.8111 115.271 62.5C115.271 51.5319 112.27 41.5727 106.269 32.6224C100.267 23.672 92.2483 17.1274 82.2115 12.9885V15.7823C82.2115 19.4038 80.9699 22.5597 78.4865 25.25C76.0032 27.9403 72.9508 29.2854 69.3292 29.2854H55.8261V42.7885C55.8261 44.5476 55.1277 45.9962 53.7308 47.1344C52.3339 48.2726 50.756 48.8417 48.997 48.8417H36.1147V62.5H76.1584C77.9174 62.5 79.3661 63.1726 80.5042 64.5177C81.6424 65.8628 82.2115 67.4149 82.2115 69.174V88.8854H88.8855C91.8862 88.8854 94.5247 89.7649 96.8011 91.5239C99.0775 93.283 100.63 95.5594 101.457 98.3531Z" fill="#4BD16F"/>
</svg>
