<svg width="32" height="32" viewBox="0 0 32 32" fill="none" xmlns="http://www.w3.org/2000/svg">
<rect width="32" height="32" rx="12" fill="#A6EBB8"/>
<path fill-rule="evenodd" clip-rule="evenodd" d="M14.9933 8.88338C14.9355 8.38604 14.5128 8 14 8C13.4477 8 13 8.44772 13 9V10H9L8.88338 10.0067C8.38604 10.0645 8 10.4872 8 11C8 11.5523 8.44772 12 9 12L12.9574 12.0006C12.823 13.5692 12.3762 15.0251 11.6875 16.1269L11.6019 16.2551C11.2002 15.8442 10.9993 15.4114 11 15.0016L10.9935 14.885C10.9365 14.3875 10.5144 14.0008 10.0016 14C9.44932 13.9991 9.00089 14.4461 9 14.9984C8.99843 15.9773 9.42471 16.8927 10.1869 17.6652C9.79815 17.8869 9.39693 18 9 18L8.88338 18.0067C8.38604 18.0645 8 18.4872 8 19C8 19.5523 8.44772 20 9 20C10.0473 20 11.0444 19.6068 11.9134 18.8934C12.892 19.3876 14.0506 19.7278 15.2872 19.8917L14.0862 22.5939L14.045 22.7032C13.8958 23.1811 14.1252 23.7055 14.5939 23.9138L14.7032 23.955C15.1811 24.1042 15.7055 23.8748 15.9138 23.4061L16.538 22H21.461L22.0862 23.4061L22.1397 23.51C22.3945 23.941 22.9375 24.1221 23.4061 23.9138C23.9108 23.6895 24.1381 23.0985 23.9138 22.5939L19.9138 13.5939L19.8554 13.481L19.7825 13.3748C19.339 12.8104 18.4019 12.8834 18.0862 13.5939L16.1409 17.9707C15.1004 17.8905 14.1201 17.6663 13.2923 17.3259L13.3835 17.1869C14.2735 15.7629 14.8223 13.9372 14.9636 12.0013L16 12L16.1166 11.9933C16.614 11.9355 17 11.5128 17 11C17 10.4477 16.5523 10 16 10H15V9L14.9933 8.88338ZM19 16.461L17.427 20H20.573L19 16.461Z" fill="#4BD16F"/>
</svg>
