<svg width="32" height="32" viewBox="0 0 32 32" fill="none" xmlns="http://www.w3.org/2000/svg">
<rect width="32" height="32" rx="12" fill="#A6EBB8"/>
<path fill-rule="evenodd" clip-rule="evenodd" d="M17.7701 6.42994C16.7801 5.85994 15.2301 5.85994 14.2401 6.42994L9.19 9.43994C7.12 10.8399 7 11.0499 7 13.2799V18.7099C7 20.9399 7.12 21.1599 9.23 22.5799L14.2301 25.5699C14.7301 25.8599 15.3701 25.9999 16.0001 25.9999C16.6301 25.9999 17.2701 25.8599 17.7601 25.5699L22.81 22.5599C24.88 21.1599 25 20.9499 25 18.7199V13.2799C25 11.0499 24.88 10.8399 22.77 9.41994C22.77 9.41994 21.6187 8.7541 21.043 8.42118C19.8954 7.75743 17.7701 6.42994 17.7701 6.42994Z" fill="#E8F9DC"/>
<path fill-rule="evenodd" clip-rule="evenodd" d="M16 19C14.3431 19 13 17.6569 13 16C13 14.3431 14.3431 13 16 13C17.6569 13 19 14.3431 19 16C19 17.6569 17.6569 19 16 19Z" fill="#4BD16F"/>
</svg>
