<svg width="24" height="24" viewBox="0 0 24 24" fill="none" xmlns="http://www.w3.org/2000/svg">
<rect width="24" height="24" rx="12" fill="#4BD16F"/>
<mask id="mask0_275_255" style="mask-type:luminance" maskUnits="userSpaceOnUse" x="0" y="0" width="24" height="24">
<rect width="24" height="24" rx="12" fill="white"/>
</mask>
<g mask="url(#mask0_275_255)">
<path fill-rule="evenodd" clip-rule="evenodd" d="M9.375 12.375C9.375 12.1679 9.20711 12 9 12C8.79289 12 8.625 12.1679 8.625 12.375C8.625 13.8247 9.80025 15 11.25 15H14.0944L13.6097 15.4848L13.5785 15.5201C13.4641 15.6672 13.4745 15.88 13.6097 16.0151C13.7561 16.1616 13.9936 16.1616 14.14 16.0152L15.2651 14.8902C15.2762 14.8792 15.2865 14.8674 15.2961 14.8551L15.2963 14.8549C15.3175 14.8277 15.3343 14.7983 15.3469 14.7676C15.365 14.7237 15.375 14.6755 15.375 14.625C15.375 14.5745 15.365 14.5263 15.3469 14.4823C15.3286 14.4377 15.3013 14.396 15.2651 14.3598L14.14 13.2348L14.1047 13.2036C13.9576 13.0892 13.7449 13.0997 13.6097 13.2349L13.5785 13.2702C13.4641 13.4173 13.4745 13.63 13.6097 13.7652L14.0944 14.25H11.25L11.1687 14.2483C10.1709 14.2057 9.375 13.3833 9.375 12.375Z" fill="#E8F9DC"/>
<path fill-rule="evenodd" clip-rule="evenodd" d="M10.39 7.98483C10.2436 7.83839 10.0062 7.83839 9.85971 7.98483L8.73471 9.10983L8.73361 9.11108C8.72346 9.12133 8.7139 9.13216 8.70497 9.14351L8.70352 9.14516C8.58913 9.29227 8.59953 9.50498 8.73471 9.64016L9.85971 10.7652L9.89504 10.7964C10.0421 10.9107 10.2549 10.9003 10.39 10.7652L10.4212 10.7298C10.5356 10.5827 10.5252 10.37 10.39 10.2348L9.90524 9.75H12.75L12.8314 9.75173C13.8292 9.79432 14.625 10.6167 14.625 11.625C14.625 11.8321 14.7929 12 15 12C15.2071 12 15.375 11.8321 15.375 11.625C15.375 10.1753 14.1998 9 12.75 9H9.90524L10.39 8.51517L10.4212 8.47984C10.5356 8.33273 10.5252 8.12002 10.39 7.98483Z" fill="white"/>
</g>
</svg>
