<svg width="123" height="28" viewBox="0 0 123 28" fill="none" xmlns="http://www.w3.org/2000/svg">
<path opacity="0.8" d="M46.7756 22.24C45.6023 22.24 44.5823 22.02 43.7156 21.58C42.8623 21.14 42.1956 20.5867 41.7156 19.92C41.2356 19.24 40.929 18.5333 40.7956 17.8L43.3556 17.12C43.5556 17.9333 43.9556 18.5667 44.5556 19.02C45.1556 19.4733 45.909 19.7 46.8156 19.7C47.509 19.7 48.069 19.5267 48.4956 19.18C48.9356 18.8333 49.1556 18.42 49.1556 17.94C49.1556 17.5 48.9956 17.12 48.6756 16.8C48.369 16.4667 47.949 16.2467 47.4156 16.14L45.1756 15.7C43.989 15.4733 43.0556 14.96 42.3756 14.16C41.6956 13.36 41.3556 12.3867 41.3556 11.24C41.3556 10.44 41.5823 9.70667 42.0356 9.04C42.5023 8.36 43.1156 7.82667 43.8756 7.44C44.649 7.05333 45.469 6.86 46.3356 6.86C47.4423 6.86 48.3823 7.04667 49.1556 7.42C49.929 7.79333 50.529 8.26667 50.9556 8.84C51.3956 9.4 51.689 9.99333 51.8356 10.62L49.2956 11.42C49.0156 10.7 48.6356 10.1867 48.1556 9.88C47.6756 9.56 47.069 9.4 46.3356 9.4C45.9223 9.4 45.549 9.48667 45.2156 9.66C44.8956 9.83333 44.6423 10.06 44.4556 10.34C44.2823 10.6067 44.1956 10.88 44.1956 11.16C44.1956 11.6 44.3423 11.9867 44.6356 12.32C44.929 12.64 45.3356 12.8467 45.8556 12.94L47.9756 13.4C49.269 13.68 50.269 14.2133 50.9756 15C51.6823 15.7733 52.0356 16.7 52.0356 17.78C52.0356 18.5533 51.8223 19.28 51.3956 19.96C50.969 20.64 50.3556 21.1933 49.5556 21.62C48.769 22.0333 47.8423 22.24 46.7756 22.24ZM54.1848 6.86H56.8048V15.44L60.9248 11.12H64.1848L60.1648 15.5L64.2648 22H61.2648L58.2048 17.16L56.8048 18.68V22H54.1848V6.86ZM65.7278 11.12H68.3478V22H65.7278V11.12ZM65.5278 8.12C65.5278 7.64 65.6611 7.26667 65.9278 7C66.1945 6.73333 66.5611 6.6 67.0278 6.6C67.5078 6.6 67.8811 6.73333 68.1478 7C68.4145 7.26667 68.5478 7.64 68.5478 8.12C68.5478 8.58667 68.4145 8.95333 68.1478 9.22C67.8945 9.48667 67.5211 9.62 67.0278 9.62C66.5611 9.62 66.1945 9.48667 65.9278 9.22C65.6611 8.95333 65.5278 8.58667 65.5278 8.12ZM70.7669 11.12H73.2269V12.4C73.6269 11.92 74.1202 11.5467 74.7069 11.28C75.3069 11.0133 75.9802 10.88 76.7269 10.88C77.7402 10.88 78.6669 11.1333 79.5069 11.64C80.3469 12.1333 81.0069 12.8133 81.4869 13.68C81.9669 14.5467 82.2069 15.5067 82.2069 16.56C82.2069 17.6133 81.9669 18.5733 81.4869 19.44C81.0069 20.3067 80.3469 20.9933 79.5069 21.5C78.6802 21.9933 77.7469 22.24 76.7069 22.24C76.0402 22.24 75.4202 22.1333 74.8469 21.92C74.2735 21.6933 73.7869 21.3733 73.3869 20.96V26H70.7669V11.12ZM73.3869 16.56C73.3869 17.1867 73.5135 17.7533 73.7669 18.26C74.0335 18.7533 74.3935 19.14 74.8469 19.42C75.3135 19.7 75.8335 19.84 76.4069 19.84C77.3002 19.84 78.0335 19.5333 78.6069 18.92C79.1935 18.2933 79.4869 17.5067 79.4869 16.56C79.4869 15.9467 79.3535 15.3933 79.0869 14.9C78.8202 14.3933 78.4535 14 77.9869 13.72C77.5202 13.4267 76.9935 13.28 76.4069 13.28C75.8335 13.28 75.3135 13.42 74.8469 13.7C74.3935 13.98 74.0335 14.3733 73.7669 14.88C73.5135 15.3733 73.3869 15.9333 73.3869 16.56Z" fill="white"/>
<path d="M113.43 20.82C113.24 20.82 113.05 20.75 112.9 20.6C112.61 20.31 112.61 19.83 112.9 19.54L118.44 14L112.9 8.46C112.61 8.17 112.61 7.69 112.9 7.4C113.19 7.11 113.67 7.11 113.96 7.4L120.03 13.47C120.32 13.76 120.32 14.24 120.03 14.53L113.96 20.6C113.81 20.75 113.62 20.82 113.43 20.82Z" fill="#21333B"/>
<path d="M119.33 14.75H102.5C102.09 14.75 101.75 14.41 101.75 14C101.75 13.59 102.09 13.25 102.5 13.25H119.33C119.74 13.25 120.08 13.59 120.08 14C120.08 14.41 119.74 14.75 119.33 14.75Z" fill="#21333B"/>
<path d="M9.57 20.82C9.76 20.82 9.95 20.75 10.1 20.6C10.39 20.31 10.39 19.83 10.1 19.54L4.56 14L10.1 8.46C10.39 8.17 10.39 7.69 10.1 7.4C9.81 7.11 9.33 7.11 9.04 7.4L2.97 13.47C2.68 13.76 2.68 14.24 2.97 14.53L9.04 20.6C9.19 20.75 9.38 20.82 9.57 20.82Z" fill="#21333B"/>
<path d="M3.67 14.75H20.5C20.91 14.75 21.25 14.41 21.25 14C21.25 13.59 20.91 13.25 20.5 13.25H3.67C3.26 13.25 2.92 13.59 2.92 14C2.92 14.41 3.26 14.75 3.67 14.75Z" fill="#21333B"/>
</svg>
