<svg width="24" height="24" viewBox="0 0 24 24" fill="none" xmlns="http://www.w3.org/2000/svg">
<mask id="mask0_983_3638" style="mask-type:alpha" maskUnits="userSpaceOnUse" x="0" y="0" width="24" height="24">
<rect width="24" height="24" fill="#D9D9D9"/>
</mask>
<g mask="url(#mask0_983_3638)">
<rect x="4" y="5" width="15" height="15" fill="#A6EBB8"/>
<path d="M6.44444 17.5556H8.66667V12H6.44444V17.5556ZM15.3333 17.5556H17.5556V6.44444H15.3333V17.5556ZM10.8889 17.5556H13.1111V14.2222H10.8889V17.5556ZM10.8889 12H13.1111V9.77778H10.8889V12ZM4.22222 22C3.61111 22 3.08778 21.7826 2.65222 21.3478C2.21741 20.9122 2 20.3889 2 19.7778V4.22222C2 3.61111 2.21741 3.08778 2.65222 2.65222C3.08778 2.21741 3.61111 2 4.22222 2H19.7778C20.3889 2 20.9122 2.21741 21.3478 2.65222C21.7826 3.08778 22 3.61111 22 4.22222V19.7778C22 20.3889 21.7826 20.9122 21.3478 21.3478C20.9122 21.7826 20.3889 22 19.7778 22H4.22222Z" fill="#E9F5EC"/>
</g>
</svg>
