<svg width="32" height="32" viewBox="0 0 32 32" fill="none" xmlns="http://www.w3.org/2000/svg">
<rect width="32" height="32" rx="12" fill="#A6EBB8"/>
<mask id="mask0_930_9314" style="mask-type:alpha" maskUnits="userSpaceOnUse" x="8" y="8" width="16" height="16">
<rect x="8" y="8" width="16" height="16" fill="#D9D9D9"/>
</mask>
<g mask="url(#mask0_930_9314)">
<path d="M16.0001 23.3333C14.7556 23.3333 13.6112 23.05 12.5667 22.4833C11.5223 21.9166 10.6667 21.1611 10.0001 20.2166V22H8.66675V18H12.6667V19.3333H11.0167C11.5501 20.1333 12.253 20.7777 13.1254 21.2666C13.9974 21.7555 14.9556 22 16.0001 22C16.8334 22 17.6141 21.8417 18.3421 21.5253C19.0696 21.2084 19.703 20.7804 20.2421 20.2413C20.7807 19.7026 21.2085 19.0693 21.5254 18.3413C21.8419 17.6137 22.0001 16.8333 22.0001 16H23.3334C23.3334 17.0111 23.1419 17.9611 22.7587 18.85C22.3752 19.7388 21.8501 20.5166 21.1834 21.1833C20.5167 21.85 19.739 22.3748 18.8501 22.758C17.9612 23.1415 17.0112 23.3333 16.0001 23.3333ZM8.66675 16C8.66675 14.9888 8.85853 14.0388 9.24208 13.15C9.62519 12.2611 10.1501 11.4833 10.8167 10.8166C11.4834 10.15 12.2612 9.62485 13.1501 9.24129C14.039 8.85818 14.989 8.66663 16.0001 8.66663C17.2445 8.66663 18.389 8.94996 19.4334 9.51663C20.4779 10.0833 21.3334 10.8388 22.0001 11.7833V9.99996H23.3334V14H19.3334V12.6666H20.9834C20.4501 11.8666 19.7472 11.2222 18.8747 10.7333C18.0027 10.2444 17.0445 9.99996 16.0001 9.99996C15.1667 9.99996 14.3863 10.1582 13.6587 10.4746C12.9307 10.7915 12.2974 11.2193 11.7587 11.758C11.2196 12.2971 10.7916 12.9304 10.4747 13.658C10.1583 14.386 10.0001 15.1666 10.0001 16H8.66675ZM16.0001 20C16.2334 20 16.4305 19.9193 16.5914 19.758C16.7527 19.5971 16.8334 19.4 16.8334 19.1666C16.8334 18.9333 16.7527 18.7333 16.5914 18.5666C16.4305 18.4 16.2334 18.3166 16.0001 18.3166C15.7667 18.3166 15.5696 18.3971 15.4087 18.558C15.2474 18.7193 15.1667 18.9166 15.1667 19.15C15.1667 19.3833 15.2474 19.5833 15.4087 19.75C15.5696 19.9166 15.7667 20 16.0001 20ZM15.4001 17.4666H16.6167C16.6167 17.0666 16.6641 16.7666 16.7587 16.5666C16.853 16.3666 17.0445 16.1222 17.3334 15.8333C17.7223 15.4444 17.9807 15.1304 18.1087 14.8913C18.2363 14.6526 18.3001 14.3666 18.3001 14.0333C18.3001 13.4111 18.0779 12.9166 17.6334 12.55C17.189 12.1833 16.6445 12 16.0001 12C15.4445 12 14.9667 12.1444 14.5667 12.4333C14.1667 12.7222 13.8779 13.1333 13.7001 13.6666L14.8001 14.1333C14.8779 13.8444 15.0252 13.6055 15.2421 13.4166C15.4585 13.2277 15.7112 13.1333 16.0001 13.1333C16.3001 13.1333 16.553 13.2193 16.7587 13.3913C16.9641 13.5637 17.0667 13.7944 17.0667 14.0833C17.0667 14.2722 17.0223 14.4611 16.9334 14.65C16.8445 14.8388 16.6556 15.0611 16.3667 15.3166C16.0001 15.6388 15.7474 15.9526 15.6087 16.258C15.4696 16.5637 15.4001 16.9666 15.4001 17.4666Z" fill="#4BD16F"/>
</g>
</svg>
