<svg width="20" height="20" viewBox="0 0 20 20" fill="none" xmlns="http://www.w3.org/2000/svg">
<path d="M14.19 0H5.81C2.17 0 0 2.17 0 5.81V14.18C0 17.83 2.17 20 5.81 20H14.18C17.82 20 19.99 17.83 19.99 14.19V5.81C20 2.17 17.83 0 14.19 0Z" fill="#4BD16F"/>
<path d="M5.32999 13.24C5.16999 13.24 5.00999 13.19 4.86999 13.08C4.53999 12.83 4.47999 12.36 4.72999 12.03L7.10999 8.94001C7.39999 8.57001 7.80999 8.33001 8.27999 8.27001C8.73999 8.21001 9.20999 8.34001 9.57999 8.63001L11.41 10.07C11.48 10.13 11.55 10.13 11.6 10.12C11.64 10.12 11.71 10.1 11.77 10.02L14.08 7.04001C14.33 6.71001 14.81 6.65001 15.13 6.91001C15.46 7.16001 15.52 7.63001 15.26 7.96001L12.95 10.94C12.66 11.31 12.25 11.55 11.78 11.6C11.31 11.66 10.85 11.53 10.48 11.24L8.64999 9.80001C8.57999 9.74001 8.49999 9.74001 8.45999 9.75001C8.41999 9.75001 8.34999 9.77001 8.28999 9.85001L5.90999 12.94C5.77999 13.14 5.55999 13.24 5.32999 13.24Z" fill="white"/>
</svg>
