<svg width="24" height="24" viewBox="0 0 24 24" fill="none" xmlns="http://www.w3.org/2000/svg">
<path fill-rule="evenodd" clip-rule="evenodd" d="M20 5.00001H18.83C18.6234 4.41448 18.2403 3.90744 17.7334 3.5488C17.2265 3.19015 16.6209 2.99756 16 2.99756C15.3791 2.99756 14.7735 3.19015 14.2666 3.5488C13.7597 3.90744 13.3766 4.41448 13.17 5.00001H4C3.73478 5.00001 3.48043 5.10537 3.29289 5.2929C3.10536 5.48044 3 5.73479 3 6.00001C3 6.26523 3.10536 6.51958 3.29289 6.70712C3.48043 6.89465 3.73478 7.00001 4 7.00001H13.17C13.3766 7.58554 13.7597 8.09258 14.2666 8.45122C14.7735 8.80986 15.3791 9.00246 16 9.00246C16.6209 9.00246 17.2265 8.80986 17.7334 8.45122C18.2403 8.09258 18.6234 7.58554 18.83 7.00001H20C20.2652 7.00001 20.5196 6.89465 20.7071 6.70712C20.8946 6.51958 21 6.26523 21 6.00001C21 5.73479 20.8946 5.48044 20.7071 5.2929C20.5196 5.10537 20.2652 5.00001 20 5.00001ZM16 7.00001C16.2652 7.00001 16.5196 6.89465 16.7071 6.70712C16.8946 6.51958 17 6.26523 17 6.00001C17 5.73479 16.8946 5.48044 16.7071 5.2929C16.5196 5.10537 16.2652 5.00001 16 5.00001C15.7348 5.00001 15.4804 5.10537 15.2929 5.2929C15.1054 5.48044 15 5.73479 15 6.00001C15 6.26523 15.1054 6.51958 15.2929 6.70712C15.4804 6.89465 15.7348 7.00001 16 7.00001ZM3 12C3 11.7348 3.10536 11.4804 3.29289 11.2929C3.48043 11.1054 3.73478 11 4 11H5.17C5.3766 10.4145 5.75974 9.90744 6.2666 9.5488C6.77346 9.19015 7.37909 8.99756 8 8.99756C8.62091 8.99756 9.22654 9.19015 9.7334 9.5488C10.2403 9.90744 10.6234 10.4145 10.83 11H20C20.2652 11 20.5196 11.1054 20.7071 11.2929C20.8946 11.4804 21 11.7348 21 12C21 12.2652 20.8946 12.5196 20.7071 12.7071C20.5196 12.8947 20.2652 13 20 13H10.83C10.6234 13.5855 10.2403 14.0926 9.7334 14.4512C9.22654 14.8099 8.62091 15.0025 8 15.0025C7.37909 15.0025 6.77346 14.8099 6.2666 14.4512C5.75974 14.0926 5.3766 13.5855 5.17 13H4C3.73478 13 3.48043 12.8947 3.29289 12.7071C3.10536 12.5196 3 12.2652 3 12ZM8 13C8.26522 13 8.51957 12.8947 8.70711 12.7071C8.89464 12.5196 9 12.2652 9 12C9 11.7348 8.89464 11.4804 8.70711 11.2929C8.51957 11.1054 8.26522 11 8 11C7.73478 11 7.48043 11.1054 7.29289 11.2929C7.10536 11.4804 7 11.7348 7 12C7 12.2652 7.10536 12.5196 7.29289 12.7071C7.48043 12.8947 7.73478 13 8 13ZM4 17C3.73478 17 3.48043 17.1054 3.29289 17.2929C3.10536 17.4804 3 17.7348 3 18C3 18.2652 3.10536 18.5196 3.29289 18.7071C3.48043 18.8947 3.73478 19 4 19H13.17C13.3766 19.5855 13.7597 20.0926 14.2666 20.4512C14.7735 20.8099 15.3791 21.0025 16 21.0025C16.6209 21.0025 17.2265 20.8099 17.7334 20.4512C18.2403 20.0926 18.6234 19.5855 18.83 19H20C20.2652 19 20.5196 18.8947 20.7071 18.7071C20.8946 18.5196 21 18.2652 21 18C21 17.7348 20.8946 17.4804 20.7071 17.2929C20.5196 17.1054 20.2652 17 20 17H18.83C18.6234 16.4145 18.2403 15.9074 17.7334 15.5488C17.2265 15.1902 16.6209 14.9976 16 14.9976C15.3791 14.9976 14.7735 15.1902 14.2666 15.5488C13.7597 15.9074 13.3766 16.4145 13.17 17H4ZM17 18C17 18.2652 16.8946 18.5196 16.7071 18.7071C16.5196 18.8947 16.2652 19 16 19C15.7348 19 15.4804 18.8947 15.2929 18.7071C15.1054 18.5196 15 18.2652 15 18C15 17.7348 15.1054 17.4804 15.2929 17.2929C15.4804 17.1054 15.7348 17 16 17C16.2652 17 16.5196 17.1054 16.7071 17.2929C16.8946 17.4804 17 17.7348 17 18Z" fill="#4BD16F"/>
</svg>
