<svg width="20" height="20" viewBox="0 0 20 20" fill="none" xmlns="http://www.w3.org/2000/svg">
<mask id="mask0_275_240" style="mask-type:luminance" maskUnits="userSpaceOnUse" x="0" y="0" width="20" height="20">
<path d="M10 20C15.5228 20 20 15.5228 20 10C20 4.47715 15.5228 0 10 0C4.47715 0 0 4.47715 0 10C0 15.5228 4.47715 20 10 20Z" fill="white"/>
</mask>
<g mask="url(#mask0_275_240)">
<path d="M0 0L0.3125 0.625L0 1.21094V1.83594L1.25 4.375L0 6.875V8.125L1.25 10L0 11.875V13.125L1.25 15.625L0 18.1641V20L0.625 19.6875L1.21094 20H1.83594L4.375 18.75L6.875 20H8.125L10 18.75L11.875 20H13.125L15.625 18.75L18.1641 20H20L19.6875 19.4141L20 18.7891V18.1641L18.75 15.625L20 13.125V11.875L18.75 10L20 8.125V6.875L18.75 4.375L20 1.83594V0L19.4141 0.3125L18.7891 0H18.1641L15.625 1.25L13.125 0H11.875L10 1.25L8.125 0H6.875L4.375 1.25L1.83594 0H0Z" fill="#EEEEEE"/>
<path d="M1.83594 0L6.875 5.03906V0H1.83594ZM13.125 0V5.03906L18.1641 0H13.125ZM0 1.83594V6.875H5.03906L0 1.83594ZM20 1.83594L14.9609 6.875H20V1.83594ZM0 13.125V18.1641L5.03906 13.125H0ZM14.9609 13.125L20 18.1641V13.125H14.9609ZM13.125 14.9609V20H18.1641L13.125 14.9609ZM6.875 14.9609L1.83594 20H6.875V14.9609Z" fill="#0052B4"/>
<path d="M8.125 0V8.125H0V11.875H8.125V20H11.875V11.875H20V8.125H11.875V0H8.125Z" fill="#D80027"/>
<path d="M13.125 13.125L20 20V18.7891L14.3359 13.125H13.125ZM13.125 6.875L20 0H18.7891L13.125 5.66406V6.875ZM6.875 6.875L0 0V1.21094L5.66406 6.875H6.875ZM6.875 13.125L0 20H1.21094L6.875 14.3359V13.125Z" fill="#D80027"/>
</g>
</svg>
