<svg width="390" height="399" viewBox="0 0 390 399" fill="none" xmlns="http://www.w3.org/2000/svg">
<mask id="mask0_186_1591" style="mask-type:alpha" maskUnits="userSpaceOnUse" x="0" y="0" width="391" height="399">
<rect width="391" height="399" transform="matrix(1 0 0 -1 0 399)" fill="white"/>
</mask>
<g mask="url(#mask0_186_1591)">
<path opacity="0.05" d="M-437 339.706C-211 173.264 -60.3333 167.408 15 322.137C241 210.412 391.667 217.981 467 344.844C693 255.987 843.667 255.08 919 342.124C1145 208.78 1295.67 208.393 1371 340.965V-27.8189H-437V344.598V339.706Z" fill="url(#paint0_linear_186_1591)"/>
<path opacity="0.21" d="M-437 313.369C-211 146.927 -60.3333 141.07 15 295.8C241 184.074 391.667 191.643 467 318.506C693 229.65 843.667 228.743 919 315.786C1145 182.442 1295.67 182.056 1371 314.628V-54.1564H-437V318.26V313.369Z" fill="url(#paint1_linear_186_1591)"/>
<path opacity="0.37" d="M-437 287.031C-211 120.589 -60.3333 114.733 15 269.462C241 157.737 391.667 165.306 467 292.169C693 203.312 843.667 202.405 919 289.449C1145 156.105 1295.67 155.718 1371 288.29V-80.4939H-437V291.923V287.031Z" fill="url(#paint2_linear_186_1591)"/>
<path opacity="0.53" d="M-437 260.694C-211 94.2517 -60.3333 88.3953 15 243.125C241 131.399 391.667 138.968 467 265.831C693 176.975 843.667 176.068 919 263.111C1145 129.767 1295.67 129.381 1371 261.953V-106.831H-437V265.585V260.694Z" fill="url(#paint3_linear_186_1591)"/>
<path opacity="0.68" d="M-437 234.356C-211 67.9142 -60.3333 62.0578 15 216.787C241 105.062 391.667 112.631 467 239.494C693 150.637 843.667 149.73 919 236.774C1145 103.43 1295.67 103.043 1371 235.615V-133.169H-437V239.248V234.356Z" fill="url(#paint4_linear_186_1591)"/>
<path opacity="0.84" d="M-437 208.019C-211 41.5767 -60.3333 35.7203 15 190.45C241 78.7243 391.667 86.2933 467 213.156C693 124.3 843.667 123.393 919 210.436C1145 77.0922 1295.67 76.7059 1371 209.278V-159.506H-437V212.91V208.019Z" fill="url(#paint5_linear_186_1591)"/>
<path d="M-437 181.681C-211 15.2392 -60.3333 9.38283 15 164.112C241 52.3868 391.667 59.9558 467 186.819C693 97.9621 843.667 97.0555 919 184.099C1145 50.7547 1295.67 50.3684 1371 182.94V-185.844H-437V186.573V181.681Z" fill="url(#paint6_linear_186_1591)"/>
</g>
<defs>
<linearGradient id="paint0_linear_186_1591" x1="467" y1="344.844" x2="467" y2="-27.8189" gradientUnits="userSpaceOnUse">
<stop stop-color="#26D655"/>
<stop offset="1" stop-color="#4BD16F"/>
</linearGradient>
<linearGradient id="paint1_linear_186_1591" x1="467" y1="318.506" x2="467" y2="-54.1564" gradientUnits="userSpaceOnUse">
<stop stop-color="#26D655"/>
<stop offset="1" stop-color="#4BD16F"/>
</linearGradient>
<linearGradient id="paint2_linear_186_1591" x1="467" y1="292.169" x2="467" y2="-80.4939" gradientUnits="userSpaceOnUse">
<stop stop-color="#26D655"/>
<stop offset="1" stop-color="#4BD16F"/>
</linearGradient>
<linearGradient id="paint3_linear_186_1591" x1="467" y1="265.831" x2="467" y2="-106.831" gradientUnits="userSpaceOnUse">
<stop stop-color="#26D655"/>
<stop offset="1" stop-color="#4BD16F"/>
</linearGradient>
<linearGradient id="paint4_linear_186_1591" x1="467" y1="239.494" x2="467" y2="-133.169" gradientUnits="userSpaceOnUse">
<stop stop-color="#26D655"/>
<stop offset="1" stop-color="#4BD16F"/>
</linearGradient>
<linearGradient id="paint5_linear_186_1591" x1="467" y1="213.156" x2="467" y2="-159.506" gradientUnits="userSpaceOnUse">
<stop stop-color="#26D655"/>
<stop offset="1" stop-color="#4BD16F"/>
</linearGradient>
<linearGradient id="paint6_linear_186_1591" x1="467" y1="186.819" x2="467" y2="-185.844" gradientUnits="userSpaceOnUse">
<stop stop-color="#26D655"/>
<stop offset="1" stop-color="#4BD16F"/>
</linearGradient>
</defs>
</svg>
