<svg width="125" height="125" viewBox="0 0 125 125" fill="none" xmlns="http://www.w3.org/2000/svg">
<path d="M74.7614 121.945C72.8989 123.807 70.6484 124.739 68.0099 124.739C65.3713 124.739 63.1208 123.807 61.2583 121.945L3.05517 63.7417C2.02045 62.7069 1.32201 61.6205 0.959856 60.4823C0.597703 59.3441 0.416626 58.1542 0.416626 56.9125V9.72916C0.416626 7.03889 1.29614 4.81423 3.05517 3.05521C4.8142 1.29618 7.03885 0.416664 9.72913 0.416664H56.9125C58.1541 0.416664 59.3958 0.597741 60.6375 0.959894C61.8791 1.32205 63.0173 2.02048 64.052 3.05521L121.945 60.9479C123.911 62.9139 124.894 65.2161 124.894 67.8547C124.894 70.4932 123.911 72.7955 121.945 74.7615L74.7614 121.945ZM68.3979 115.581L115.581 68.3979L56.9125 9.72916H9.72913V56.9125L68.3979 115.581ZM26.026 33.9417C28.1989 33.9417 30.0873 33.1398 31.6911 31.5359C33.2949 29.9321 34.0968 28.0437 34.0968 25.8708C34.0968 23.6979 33.2949 21.8095 31.6911 20.2057C30.0873 18.6019 28.1989 17.8 26.026 17.8C23.8531 17.8 21.9647 18.6019 20.3609 20.2057C18.7571 21.8095 17.9552 23.6979 17.9552 25.8708C17.9552 28.0437 18.7571 29.9321 20.3609 31.5359C21.9647 33.1398 23.8531 33.9417 26.026 33.9417Z" fill="#4BD16F"/>
</svg>
