<svg width="114" height="113" viewBox="0 0 114 113" fill="none" xmlns="http://www.w3.org/2000/svg">
<path d="M52.625 86.6104H61.375L62.9375 78.2292C65.0208 77.6083 66.7917 76.8323 68.25 75.901C69.7083 74.9698 71.0625 73.8833 72.3125 72.6417L82 75.5906L86.0625 67.2094L78.7188 62.5531C79.1354 60.3802 79.3438 58.3625 79.3438 56.5C79.3438 54.6375 79.1354 52.6198 78.7188 50.4469L86.0625 45.7906L82 37.4094L72.3125 40.3583C71.0625 39.1167 69.7083 38.0302 68.25 37.099C66.7917 36.1677 65.0208 35.3917 62.9375 34.7708L61.375 26.3896H52.625L51.0625 34.7708C48.9792 35.3917 47.2083 36.1677 45.75 37.099C44.2917 38.0302 42.9375 39.1167 41.6875 40.3583L32 37.4094L27.9375 45.7906L35.2812 50.4469C34.8646 52.6198 34.6562 54.6375 34.6562 56.5C34.6562 58.3625 34.8646 60.3802 35.2812 62.5531L27.9375 67.2094L32 75.5906L41.6875 72.6417C42.9375 73.8833 44.2917 74.9698 45.75 75.901C47.2083 76.8323 48.9792 77.6083 51.0625 78.2292L52.625 86.6104ZM57 69.6927C53.25 69.6927 50.099 68.4252 47.5469 65.8901C44.9948 63.355 43.7188 60.225 43.7188 56.5C43.7188 52.775 44.9948 49.645 47.5469 47.1099C50.099 44.5748 53.25 43.3073 57 43.3073C60.75 43.3073 63.901 44.5748 66.4531 47.1099C69.0052 49.645 70.2812 52.775 70.2812 56.5C70.2812 60.225 69.0052 63.355 66.4531 65.8901C63.901 68.4252 60.75 69.6927 57 69.6927ZM10.125 112.375C7.625 112.375 5.4375 111.444 3.5625 109.581C1.6875 107.719 0.75 105.546 0.75 103.062V9.9375C0.75 7.45417 1.6875 5.28125 3.5625 3.41875C5.4375 1.55625 7.625 0.625 10.125 0.625H103.875C106.375 0.625 108.562 1.55625 110.437 3.41875C112.312 5.28125 113.25 7.45417 113.25 9.9375V103.062C113.25 105.546 112.312 107.719 110.437 109.581C108.562 111.444 106.375 112.375 103.875 112.375H10.125ZM10.125 103.062H103.875V9.9375H10.125V103.062Z" fill="#4BD16F"/>
</svg>
