<svg width="32" height="32" viewBox="0 0 32 32" fill="none" xmlns="http://www.w3.org/2000/svg">
<rect width="32" height="32" rx="12" fill="#A6EBB8"/>
<rect x="6" y="6" width="20" height="20" rx="6" fill="#E8F9DC"/>
<path fill-rule="evenodd" clip-rule="evenodd" d="M19.6257 10.1194C18.7844 9.39831 17.6625 9 16.5 9H15.5L15.2326 9.00704C14.1666 9.06319 13.1509 9.45378 12.3743 10.1194C11.5014 10.8677 11 11.9052 11 13C11 13.5523 11.4477 14 12 14C12.5523 14 13 13.5523 13 13L13.0087 12.8349C13.055 12.3963 13.285 11.973 13.6759 11.6379C14.1474 11.2338 14.8059 11 15.5 11H16.5L16.707 11.007C17.3239 11.0485 17.8998 11.2742 18.3241 11.6379C18.7639 12.0149 19 12.5035 19 13C19.0261 13.4895 18.9094 13.9186 18.6689 14.2793C18.4897 14.5482 18.3227 14.6401 18.0695 14.7796C17.983 14.8273 17.8863 14.8806 17.7757 14.9483C17.7757 14.9483 17.0556 15.3922 16.7878 15.6583C16.7731 15.673 16.7578 15.6882 16.7418 15.7039C16.4677 15.9754 16.0184 16.4201 15.6046 17.1074C15.5487 17.2002 15.4966 17.284 15.4482 17.3618C15.1174 17.8934 14.9626 18.1421 15.0009 19.0425C15.0244 19.5943 15.4907 20.0226 16.0425 19.9991C16.5943 19.9756 16.9254 19.5039 16.9991 18.9575C17.1647 17.7297 17.9838 17.1607 18.2764 16.9846L18.41 16.912L18.5518 16.8586C19.2755 16.5552 19.8957 16.0446 20.333 15.3887C20.814 14.6672 21.0475 13.8091 20.9984 12.9434L20.9921 12.7359C20.9315 11.7681 20.4405 10.8178 19.6257 10.1194ZM16 23C16.5523 23 17 22.5523 17 22C17 21.4477 16.5523 21 16 21C15.4477 21 15 21.4477 15 22C15 22.5523 15.4477 23 16 23Z" fill="#4BD16F"/>
</svg>
