<svg width="32" height="32" viewBox="0 0 32 32" fill="none" xmlns="http://www.w3.org/2000/svg">
<rect width="32" height="32" rx="12" fill="#A6EBB8"/>
<path fill-rule="evenodd" clip-rule="evenodd" d="M7 15.8889C7 15.398 7.39797 15 7.88889 15H24.1111C24.602 15 25 15.398 25 15.8889V15.8889C25 19.8162 21.8162 23 17.8889 23H14.1111C10.1838 23 7 19.8162 7 15.8889V15.8889Z" fill="#E8F9DC"/>
<path fill-rule="evenodd" clip-rule="evenodd" d="M10.5556 9C8.59188 9 7 10.5919 7 12.5556C7 12.801 7.19898 13 7.44444 13H24.5556C24.801 13 25 12.801 25 12.5556C25 10.5919 23.4081 9 21.4444 9H10.5556ZM12 17C11.4477 17 11 17.4477 11 18C11 18.5523 11.4477 19 12 19H17C17.5523 19 18 18.5523 18 18C18 17.4477 17.5523 17 17 17H12Z" fill="#4BD16F"/>
</svg>
