<svg width="48" height="48" viewBox="0 0 48 48" fill="none" xmlns="http://www.w3.org/2000/svg">
<rect width="48" height="48" rx="24" transform="matrix(0 1 1 0 0 0)" fill="#4BD16F"/>
<mask id="mask0_77_1720" style="mask-type:luminance" maskUnits="userSpaceOnUse" x="0" y="0" width="48" height="48">
<rect width="48" height="48" rx="24" transform="matrix(0 1 1 0 0 0)" fill="white"/>
</mask>
<g mask="url(#mask0_77_1720)">
<path fill-rule="evenodd" clip-rule="evenodd" d="M25 17C24.4477 17 24 16.5523 24 16C24 15.4477 24.4477 15 25 15C28.866 15 32 18.134 32 22V29.5852L33.2928 28.2926L33.3871 28.2094C33.7793 27.9043 34.3466 27.932 34.7071 28.2925C35.0976 28.683 35.0977 29.3161 34.7072 29.7067L31.7072 32.7071C31.6777 32.7365 31.6465 32.7641 31.6137 32.7896L31.6129 32.7903C31.5413 32.8459 31.4639 32.8905 31.383 32.924C31.265 32.973 31.1357 33 31 33C30.7441 33 30.4881 32.9024 30.2928 32.7071L27.2928 29.7067L27.2097 29.6125C26.9047 29.2202 26.9324 28.6529 27.2929 28.2925L27.3871 28.2093C27.7795 27.9043 28.3467 27.9321 28.7072 28.2926L30 29.5852V22L29.9954 21.7831C29.8818 19.1223 27.6888 17 25 17Z" fill="#E8F9DC"/>
<path fill-rule="evenodd" clip-rule="evenodd" d="M13.2929 19.7069C12.9024 19.3163 12.9024 18.6832 13.2929 18.2926L16.2929 15.2926L16.2962 15.2897C16.3235 15.2626 16.3524 15.2371 16.3827 15.2133L16.3871 15.2095C16.7794 14.9044 17.3466 14.9322 17.7071 15.2926L20.7071 18.2926L20.7903 18.3869C21.0953 18.7791 21.0676 19.3464 20.7071 19.7069L20.6129 19.7901C20.2206 20.0951 19.6534 20.0673 19.2929 19.7069L18 18.4141V26.0001L18.0046 26.217C18.1182 28.8778 20.3112 31.0001 23 31.0001C23.5523 31.0001 24 31.4478 24 32.0001C24 32.5524 23.5523 33.0001 23 33.0001C19.134 33.0001 16 29.8661 16 26.0001V18.4141L14.7071 19.7069L14.6129 19.7901C14.2206 20.0951 13.6534 20.0673 13.2929 19.7069Z" fill="#A6EBB8"/>
</g>
</svg>
